M48
;DRILL file {KiCad 4.0.7} date 06/15/18 18:23:33
;FORMAT={-:-/ absolute / metric / decimal}
FMAT,2
METRIC,TZ
T1C0.250
T2C0.300
T3C0.650
T4C0.762
T5C0.800
T6C0.838
T7C1.000
T8C1.200
T9C1.300
T10C1.650
T11C3.500
%
G90
G05
M71
T1
X25.83Y-138.54
X25.89Y-139.46
X25.96Y-136.02
X26.04Y-151.75
X26.88Y-148.73
X27.11Y-150.63
X27.31Y-135.66
X27.32Y-133.73
X28.77Y-138.24
X29.33Y-151.47
X29.76Y-134.6
X30.05Y-139.
X30.3Y-151.47
X30.65Y-129.51
X30.85Y-134.56
X31.02Y-137.14
X31.35Y-128.46
X31.36Y-137.96
X31.43Y-153.05
X31.5Y-129.92
X31.65Y-149.35
X31.68Y-126.13
X31.97Y-148.21
X32.02Y-140.65
X32.45Y-150.22
X33.19Y-145.71
X33.4Y-133.12
X33.43Y-129.85
X33.77Y-139.92
X34.08Y-125.58
X34.18Y-130.7
X34.18Y-133.14
X34.38Y-148.11
X34.56Y-151.04
X34.89Y-131.88
X35.032Y-145.312
X35.37Y-132.93
X35.41Y-139.51
X35.83Y-131.89
X36.1Y-126.61
X36.1Y-133.05
X36.2Y-128.56
X36.59Y-151.55
X36.64Y-155.39
X36.9Y-132.77
X37.09Y-153.57
X37.34Y-148.79
X37.58Y-129.52
X37.65Y-156.22
X37.66Y-135.55
X37.7Y-137.55
X37.87Y-124.16
X38.26Y-137.08
X38.36Y-134.65
X38.6Y-151.41
X38.97Y-128.84
X39.08Y-126.1
X39.08Y-146.57
X39.09Y-145.28
X39.62Y-147.8
X39.66Y-137.98
X39.67Y-149.49
X39.88Y-124.15
X39.88Y-152.43
X40.768Y-142.778
X40.8Y-162.68
X40.9Y-136.66
X41.27Y-133.79
X41.35Y-132.44
X41.36Y-129.51
X41.41Y-130.76
X41.61Y-137.77
X41.94Y-136.3
X42.55Y-148.99
X42.93Y-141.36
X42.99Y-147.65
X43.14Y-136.66
X43.37Y-135.09
X43.56Y-129.57
X43.57Y-130.79
X43.66Y-132.39
X43.68Y-133.81
X43.77Y-137.95
X44.87Y-140.22
X45.31Y-147.61
X45.34Y-153.36
X45.45Y-151.21
X45.55Y-130.82
X45.58Y-129.46
X45.64Y-149.41
X45.81Y-132.44
X45.96Y-133.99
X46.03Y-142.35
X46.83Y-127.65
X46.88Y-140.23
X47.01Y-155.25
X47.05Y-160.36
X47.34Y-124.5
X48.1Y-148.34
X48.32Y-152.77
X48.48Y-131.
X48.53Y-141.12
X48.55Y-129.48
X48.59Y-132.47
X48.65Y-133.78
X49.07Y-124.57
X49.42Y-125.7
X50.93Y-126.9
X51.1Y-129.51
X51.16Y-131.06
X51.33Y-162.68
X51.35Y-140.76
X51.35Y-152.68
X51.45Y-147.75
X51.51Y-138.18
X51.65Y-144.74
X53.08Y-138.18
X53.29Y-131.81
X54.2Y-140.29
X54.74Y-145.73
X54.96Y-138.24
X55.37Y-131.81
X55.5Y-147.68
X55.91Y-143.63
X56.29Y-146.46
X56.5Y-142.14
X56.51Y-144.78
X57.42Y-138.17
X58.68Y-144.35
X59.08Y-137.75
X59.09Y-146.42
X59.22Y-152.51
X59.33Y-155.03
X59.78Y-145.72
X60.05Y-141.75
X60.06Y-137.78
X60.08Y-155.01
X60.47Y-128.63
X60.56Y-124.85
X60.59Y-138.33
X61.22Y-140.23
X61.26Y-125.52
X61.41Y-145.95
X62.24Y-142.3
X62.51Y-125.11
X62.69Y-144.23
X63.54Y-124.86
X63.79Y-127.02
X64.09Y-140.57
X64.33Y-142.06
X64.5Y-127.72
X64.53Y-157.03
X64.6Y-124.75
X64.78Y-143.66
X64.93Y-125.86
X64.93Y-135.6
X64.93Y-136.39
X64.94Y-137.19
X64.95Y-134.78
X65.39Y-129.44
X66.13Y-137.6
X66.61Y-133.19
X66.73Y-126.42
X66.91Y-141.85
X66.94Y-140.23
X67.03Y-124.26
X67.51Y-126.3
X67.72Y-134.29
X67.73Y-137.59
X67.76Y-128.39
X67.95Y-144.78
X68.25Y-125.26
X68.47Y-129.39
X68.54Y-140.23
X69.Y-125.27
X69.21Y-143.3
X69.32Y-129.41
X69.5Y-140.15
X69.98Y-144.98
X70.33Y-153.17
X70.55Y-125.92
X71.29Y-125.93
X71.4Y-153.17
X71.42Y-146.26
X71.72Y-140.27
X71.73Y-129.37
X71.81Y-123.87
X72.24Y-144.01
X72.53Y-125.91
X72.89Y-141.45
X73.13Y-146.24
X73.35Y-128.6
X73.4Y-132.35
X73.53Y-130.85
X73.85Y-140.31
X73.91Y-126.39
X74.33Y-144.48
X74.84Y-125.73
X75.96Y-143.93
X76.34Y-125.65
X76.34Y-136.49
X76.5Y-130.79
X76.52Y-129.19
X76.54Y-129.99
X77.26Y-124.77
X77.62Y-126.51
X78.11Y-131.48
X78.19Y-143.91
X78.2Y-128.03
X78.55Y-141.66
X78.56Y-142.64
X78.9Y-124.74
X80.16Y-126.26
X80.2Y-143.36
X80.38Y-127.79
X80.65Y-133.46
X80.77Y-125.27
X81.69Y-131.41
X81.74Y-125.41
X81.75Y-141.67
X82.2Y-128.73
X82.57Y-125.9
X83.17Y-142.08
X83.43Y-139.92
X83.85Y-133.81
X84.55Y-141.53
X84.96Y-139.26
X85.37Y-136.71
X85.68Y-132.71
X86.73Y-150.07
X86.81Y-147.46
X87.45Y-150.05
X87.57Y-131.55
X87.75Y-133.03
X88.47Y-137.21
X88.5Y-147.49
X89.58Y-133.9
X89.63Y-137.19
X89.92Y-142.27
X89.93Y-139.92
X90.85Y-131.67
X91.02Y-140.46
X91.04Y-136.5
X91.24Y-126.03
X91.38Y-124.41
X91.68Y-126.89
X91.73Y-129.42
X92.06Y-148.62
X92.065Y-150.05
X92.16Y-132.76
X92.72Y-125.73
X93.19Y-134.25
X93.2Y-130.69
X93.39Y-124.24
X93.45Y-131.92
X93.5Y-147.57
X93.71Y-153.36
X94.13Y-123.82
X94.18Y-126.66
X94.19Y-143.2
X94.41Y-153.36
X94.55Y-138.76
X94.71Y-136.34
X94.76Y-128.75
X94.91Y-124.87
X94.95Y-127.38
X95.11Y-130.22
X95.15Y-140.78
X95.41Y-125.46
X95.56Y-145.29
X95.77Y-142.05
X96.5Y-136.9
X96.53Y-125.82
X96.53Y-151.14
X96.99Y-155.63
X97.Y-162.71
X97.27Y-151.12
X97.33Y-133.95
X97.76Y-162.69
X97.77Y-155.62
X97.79Y-141.78
X97.88Y-137.54
X98.22Y-125.96
X98.24Y-133.95
X98.35Y-139.9
X98.92Y-133.65
X99.54Y-126.07
X100.195Y-134.575
X100.41Y-137.72
X100.85Y-133.93
X101.24Y-136.39
X102.04Y-126.21
X102.16Y-137.33
X102.28Y-133.95
X102.79Y-126.16
X103.01Y-134.09
X103.09Y-138.93
X103.45Y-125.8
X103.92Y-142.07
X103.95Y-145.71
X104.1Y-126.16
X104.12Y-138.95
X104.53Y-140.18
X104.55Y-143.16
X105.11Y-146.55
X105.26Y-141.9
X105.78Y-123.86
X106.18Y-141.53
X106.65Y-147.9
X106.74Y-124.73
X107.82Y-135.86
X107.9Y-134.25
X108.38Y-154.14
X108.81Y-125.37
X109.06Y-151.01
X109.79Y-137.47
X109.87Y-153.11
X110.22Y-150.43
X110.46Y-146.86
X110.61Y-153.09
X110.75Y-149.79
X111.16Y-139.76
X111.18Y-136.8
X112.1Y-139.77
X112.29Y-144.09
X113.24Y-139.49
X113.41Y-144.43
X114.04Y-129.57
X117.54Y-134.51
X117.99Y-132.61
X118.22Y-152.85
X118.33Y-144.36
X118.96Y-152.83
X119.18Y-139.39
X119.18Y-142.65
X119.45Y-130.9
X120.38Y-128.69
X120.96Y-131.07
X121.04Y-137.27
X121.05Y-142.65
X121.1Y-139.39
X121.82Y-153.21
X121.98Y-128.8
X121.98Y-137.34
X122.55Y-130.19
X122.58Y-134.45
X122.77Y-145.53
X123.38Y-133.81
X123.76Y-134.52
X123.79Y-136.76
X123.92Y-147.47
X124.44Y-137.63
X124.58Y-147.98
X124.77Y-134.78
X125.Y-140.6
X125.46Y-129.95
X126.58Y-135.43
X126.91Y-134.4
X126.93Y-139.49
X127.Y-151.37
X127.77Y-136.92
X128.6Y-131.73
X129.54Y-132.23
X129.96Y-141.11
X130.45Y-133.79
X130.7Y-141.11
X130.93Y-132.05
X131.11Y-135.31
X131.3Y-151.7
X131.31Y-134.46
X131.38Y-139.35
X131.56Y-145.98
X131.75Y-136.89
X131.83Y-152.22
X132.25Y-139.23
X132.85Y-133.51
X132.85Y-137.6
X133.34Y-132.05
X133.37Y-130.05
X133.41Y-138.72
X133.62Y-146.01
X134.57Y-143.18
X134.75Y-138.64
X135.39Y-146.57
X135.87Y-135.53
X136.39Y-153.11
X136.39Y-153.86
X137.26Y-136.68
X137.35Y-138.26
X137.4Y-137.48
X138.89Y-142.93
X139.96Y-130.84
X140.79Y-146.43
X140.79Y-153.28
X140.92Y-139.68
X141.63Y-130.91
X142.54Y-139.59
X142.72Y-142.14
X143.23Y-137.7
X143.74Y-139.47
X144.34Y-137.13
X144.48Y-157.36
X144.48Y-158.71
X145.92Y-135.33
X146.29Y-130.84
X146.29Y-144.35
X146.32Y-145.3
X146.47Y-131.86
X146.57Y-162.8
X146.94Y-144.78
X147.23Y-140.22
X147.28Y-141.23
X147.84Y-142.82
X148.66Y-143.75
X148.74Y-138.89
X149.38Y-142.54
X149.97Y-131.87
X150.54Y-138.58
X150.57Y-142.96
X152.64Y-153.45
X152.79Y-130.96
X154.Y-130.95
T2
X97.595Y-128.835
X97.595Y-129.685
X97.595Y-130.535
X97.595Y-131.385
X98.651Y-128.835
X98.651Y-129.685
X98.651Y-130.535
X98.651Y-131.385
X99.707Y-128.835
X99.707Y-129.685
X99.707Y-130.535
X99.707Y-131.385
X100.764Y-128.835
X100.764Y-129.685
X100.764Y-130.535
X100.764Y-131.385
X101.82Y-128.835
X101.82Y-129.685
X101.82Y-130.535
X101.82Y-131.385
X102.876Y-128.835
X102.876Y-129.685
X102.876Y-130.535
X102.876Y-131.385
X103.932Y-128.835
X103.932Y-129.685
X103.932Y-130.535
X103.932Y-131.385
X104.989Y-128.835
X104.989Y-129.685
X104.989Y-130.535
X104.989Y-131.385
X106.045Y-128.835
X106.045Y-129.685
X106.045Y-130.535
X106.045Y-131.385
T3
X59.09Y-124.25
X59.09Y-125.52
X59.09Y-126.79
T4
X84.69Y-126.48
X84.69Y-129.02
X87.23Y-126.48
X87.23Y-129.02
X89.77Y-126.48
X89.77Y-129.02
T5
X34.1Y-127.45
X37.6Y-127.45
X45.2Y-127.45
X48.7Y-127.45
T6
X49.734Y-146.5
X49.734Y-149.04
X49.734Y-151.58
X49.734Y-154.12
X53.925Y-147.77
X53.925Y-150.31
X53.925Y-152.85
T7
X53.15Y-124.87
X53.15Y-127.41
X53.15Y-129.95
X55.69Y-124.87
X55.69Y-127.41
X55.69Y-129.95
T8
X27.Y-159.2
X27.01Y-126.6
X29.55Y-126.6
X30.5Y-159.2
X66.33Y-147.92
X66.33Y-150.46
X114.08Y-126.65
X116.62Y-126.65
X119.16Y-126.65
X121.7Y-126.65
X125.52Y-126.65
X127.33Y-160.35
X128.06Y-126.65
X129.87Y-160.35
X130.6Y-126.65
X132.41Y-160.35
X133.14Y-126.65
X134.95Y-160.35
X136.95Y-126.65
X139.49Y-126.65
X142.03Y-126.65
X144.57Y-126.65
X148.4Y-126.65
X150.94Y-126.65
X153.48Y-126.65
X156.02Y-126.65
T9
X108.49Y-147.11
X108.49Y-162.35
T10
X118.99Y-159.7
X122.95Y-159.7
T11
X29.Y-143.5
X154.01Y-140.81
T0
M30
