G04 #@! TF.FileFunction,Soldermask,Top*
%FSLAX46Y46*%
G04 Gerber Fmt 4.6, Leading zero omitted, Abs format (unit mm)*
G04 Created by KiCad (PCBNEW 4.0.7) date 06/14/18 16:52:46*
%MOMM*%
%LPD*%
G01*
G04 APERTURE LIST*
%ADD10C,0.100000*%
%ADD11C,0.150000*%
%ADD12R,1.000000X0.900000*%
%ADD13R,0.900000X1.000000*%
%ADD14R,1.300000X0.900000*%
%ADD15R,1.150000X1.200000*%
%ADD16R,1.200000X1.150000*%
%ADD17R,1.650000X1.400000*%
%ADD18R,0.900000X1.300000*%
%ADD19R,1.100000X0.650000*%
%ADD20R,0.650000X1.100000*%
%ADD21R,2.125000X2.125000*%
%ADD22R,4.500000X4.500000*%
%ADD23R,0.700000X0.750000*%
%ADD24R,0.750000X0.700000*%
%ADD25R,2.000000X2.000000*%
%ADD26C,2.000000*%
%ADD27R,4.150000X3.100000*%
%ADD28R,3.100000X4.150000*%
%ADD29R,3.900000X2.000000*%
%ADD30R,2.900000X1.400000*%
%ADD31R,2.900000X4.400000*%
%ADD32R,1.400000X1.650000*%
%ADD33R,1.200000X1.200000*%
%ADD34R,1.500000X1.500000*%
%ADD35R,1.300000X1.200000*%
%ADD36R,1.800000X1.670000*%
%ADD37R,5.120000X5.200000*%
%ADD38R,3.000000X3.000000*%
%ADD39O,3.000000X3.000000*%
%ADD40R,4.641800X4.210000*%
%ADD41R,0.700000X1.850000*%
%ADD42C,7.400000*%
%ADD43R,2.100000X2.100000*%
%ADD44O,2.100000X2.100000*%
%ADD45R,1.400000X1.400000*%
%ADD46O,1.400000X1.400000*%
%ADD47R,2.750000X3.400000*%
%ADD48O,2.750000X3.400000*%
%ADD49C,1.670000*%
%ADD50R,1.670000X1.670000*%
%ADD51R,2.400000X3.000000*%
%ADD52O,2.400000X3.000000*%
%ADD53R,0.680000X0.830000*%
%ADD54R,1.300000X2.900000*%
%ADD55R,2.600000X3.100000*%
%ADD56R,3.100000X2.600000*%
%ADD57R,1.030000X0.850000*%
%ADD58R,1.200000X1.450000*%
%ADD59R,4.910000X4.750000*%
%ADD60R,1.100000X1.100000*%
%ADD61R,1.200000X1.300000*%
%ADD62R,2.600000X1.600000*%
%ADD63R,6.800000X6.200000*%
%ADD64R,0.830000X0.680000*%
%ADD65R,0.800000X1.000000*%
%ADD66R,1.000000X0.800000*%
%ADD67R,1.400000X2.900000*%
%ADD68R,2.599640X1.197560*%
%ADD69R,0.950000X1.900000*%
%ADD70R,1.900000X0.950000*%
%ADD71R,1.050000X1.620000*%
%ADD72R,1.213000X0.705000*%
%ADD73R,0.705000X1.213000*%
%ADD74R,2.254000X2.254000*%
%ADD75R,1.797000X1.797000*%
%ADD76C,1.797000*%
%ADD77R,1.050000X1.460000*%
%ADD78R,0.800000X1.500000*%
%ADD79R,1.500000X1.290000*%
%ADD80R,1.149300X0.699720*%
%ADD81R,3.000000X2.400000*%
%ADD82O,3.000000X2.400000*%
%ADD83C,2.800000*%
%ADD84R,2.800000X2.800000*%
%ADD85R,1.000000X0.850000*%
%ADD86R,0.850000X1.000000*%
%ADD87R,1.300000X1.600000*%
%ADD88R,1.650000X1.900000*%
%ADD89R,1.600000X1.150000*%
%ADD90R,2.400000X2.900000*%
%ADD91C,1.000000*%
%ADD92C,0.800000*%
%ADD93C,0.600000*%
G04 APERTURE END LIST*
D10*
D11*
X25000000Y-164000000D02*
X25000000Y-123000000D01*
X158000000Y-164000000D02*
X25000000Y-164000000D01*
X158000000Y-123000000D02*
X158000000Y-164000000D01*
X25000000Y-123000000D02*
X158000000Y-123000000D01*
D12*
X35790000Y-132250000D03*
X36890000Y-132250000D03*
D13*
X29920000Y-137570000D03*
X29920000Y-136470000D03*
D12*
X30310000Y-132540000D03*
X29210000Y-132540000D03*
X33740000Y-132250000D03*
X34840000Y-132250000D03*
X37840000Y-132250000D03*
X38940000Y-132250000D03*
X32710000Y-141110000D03*
X33810000Y-141110000D03*
D14*
X28770000Y-137790000D03*
X28770000Y-136290000D03*
D15*
X39150000Y-133870000D03*
X39150000Y-135370000D03*
D16*
X29440000Y-139000000D03*
X30940000Y-139000000D03*
D17*
X27310000Y-134880000D03*
X27310000Y-132880000D03*
D18*
X27330000Y-138540000D03*
X25830000Y-138540000D03*
D14*
X39200000Y-136570000D03*
X39200000Y-138070000D03*
D19*
X32250000Y-134560000D03*
X32250000Y-135060000D03*
X32250000Y-135560000D03*
X32250000Y-136060000D03*
X32250000Y-136560000D03*
X32250000Y-137060000D03*
X32250000Y-137560000D03*
X32250000Y-138060000D03*
D20*
X32900000Y-138710000D03*
X33400000Y-138710000D03*
X33900000Y-138710000D03*
X34400000Y-138710000D03*
X34900000Y-138710000D03*
X35400000Y-138710000D03*
X35900000Y-138710000D03*
X36400000Y-138710000D03*
D19*
X37050000Y-138060000D03*
X37050000Y-137560000D03*
X37050000Y-137060000D03*
X37050000Y-136560000D03*
X37050000Y-136060000D03*
X37050000Y-135560000D03*
X37050000Y-135060000D03*
X37050000Y-134560000D03*
D20*
X36400000Y-133910000D03*
X35900000Y-133910000D03*
X35400000Y-133910000D03*
X34900000Y-133910000D03*
X34400000Y-133910000D03*
X33900000Y-133910000D03*
X33400000Y-133910000D03*
X32900000Y-133910000D03*
D21*
X35512500Y-137172500D03*
X35512500Y-135447500D03*
X33787500Y-137172500D03*
X33787500Y-135447500D03*
D22*
X78500000Y-158250000D03*
X69000000Y-158250000D03*
D23*
X35010000Y-147590000D03*
X34450000Y-147590000D03*
D24*
X145040000Y-142640000D03*
X145040000Y-143200000D03*
D25*
X45200000Y-127450000D03*
D26*
X48700000Y-127450000D03*
D23*
X70920000Y-123420000D03*
X70360000Y-123420000D03*
X70920000Y-124120000D03*
X70360000Y-124120000D03*
X70920000Y-124820000D03*
X70360000Y-124820000D03*
D16*
X71920000Y-124530000D03*
X73420000Y-124530000D03*
D23*
X71920000Y-125560000D03*
X72480000Y-125560000D03*
D24*
X71090000Y-142180000D03*
X71090000Y-142740000D03*
X78670000Y-140750000D03*
X78670000Y-140190000D03*
D16*
X62130000Y-151410000D03*
X60630000Y-151410000D03*
D12*
X61230000Y-148960000D03*
X62330000Y-148960000D03*
D16*
X62130000Y-150060000D03*
X60630000Y-150060000D03*
X62130000Y-152760000D03*
X60630000Y-152760000D03*
D12*
X57520000Y-151650000D03*
X58620000Y-151650000D03*
D16*
X58430000Y-152750000D03*
X56930000Y-152750000D03*
D27*
X64565000Y-155960000D03*
X57015000Y-155960000D03*
D12*
X52190000Y-156450000D03*
X53290000Y-156450000D03*
X52190000Y-155600000D03*
X53290000Y-155600000D03*
D28*
X113990000Y-161625000D03*
X113990000Y-154075000D03*
D27*
X84515000Y-150050000D03*
X92065000Y-150050000D03*
D23*
X88670000Y-133890000D03*
X89230000Y-133890000D03*
D25*
X34100000Y-127450000D03*
D26*
X37600000Y-127450000D03*
D15*
X113250000Y-142100000D03*
X113250000Y-143600000D03*
X111900000Y-142100000D03*
X111900000Y-143600000D03*
D13*
X110800000Y-143000000D03*
X110800000Y-141900000D03*
X115290000Y-137980000D03*
X115290000Y-139080000D03*
D16*
X127610000Y-139640000D03*
X129110000Y-139640000D03*
X126250000Y-134540000D03*
X124750000Y-134540000D03*
X127600000Y-134540000D03*
X129100000Y-134540000D03*
X126260000Y-139640000D03*
X124760000Y-139640000D03*
D23*
X157040000Y-143780000D03*
X157600000Y-143780000D03*
D16*
X98820000Y-123750000D03*
X97320000Y-123750000D03*
D15*
X95970000Y-123750000D03*
X95970000Y-125250000D03*
D29*
X147440000Y-160510000D03*
X152840000Y-160510000D03*
D17*
X109740000Y-133010000D03*
X109740000Y-131010000D03*
X107910000Y-133010000D03*
X107910000Y-131010000D03*
D16*
X100390000Y-136390000D03*
X101890000Y-136390000D03*
D30*
X156400000Y-163150000D03*
X156400000Y-160150000D03*
D31*
X152590000Y-146820000D03*
X152590000Y-154820000D03*
D32*
X144490000Y-154130000D03*
X146490000Y-154130000D03*
X144490000Y-152330000D03*
X146490000Y-152330000D03*
X144490000Y-150530000D03*
X146490000Y-150530000D03*
D16*
X100380000Y-135030000D03*
X101880000Y-135030000D03*
X100390000Y-137750000D03*
X101890000Y-137750000D03*
D15*
X107680000Y-127610000D03*
X107680000Y-126110000D03*
D33*
X59540000Y-130250000D03*
X59540000Y-128650000D03*
D34*
X41400000Y-126700000D03*
X41400000Y-123900000D03*
D35*
X46430000Y-137840000D03*
X46430000Y-135940000D03*
X44430000Y-136890000D03*
X49890000Y-136690000D03*
X49890000Y-134790000D03*
X47890000Y-135740000D03*
X53340000Y-135590000D03*
X53340000Y-133690000D03*
X51340000Y-134640000D03*
X56790000Y-134500000D03*
X56790000Y-132600000D03*
X54790000Y-133550000D03*
D36*
X80620000Y-151660000D03*
D37*
X79580000Y-147860000D03*
D36*
X78540000Y-151660000D03*
D38*
X108490000Y-162350000D03*
D39*
X108490000Y-147110000D03*
D33*
X114240000Y-130850000D03*
X112640000Y-130850000D03*
X58190000Y-130250000D03*
X58190000Y-128650000D03*
X149600000Y-130850000D03*
X148000000Y-130850000D03*
X129360000Y-130850000D03*
X127760000Y-130850000D03*
D34*
X100320000Y-124250000D03*
X103120000Y-124250000D03*
X107560000Y-124250000D03*
X104760000Y-124250000D03*
X105970000Y-135890000D03*
X108770000Y-135890000D03*
D40*
X58272300Y-161210000D03*
X64647700Y-161210000D03*
X120817700Y-134340000D03*
X114442300Y-134340000D03*
X149322300Y-134320000D03*
X155697700Y-134320000D03*
X137892300Y-134330000D03*
X144267700Y-134330000D03*
D41*
X96670000Y-139530000D03*
X96170000Y-139530000D03*
X95670000Y-139530000D03*
X95170000Y-139530000D03*
X94670000Y-139530000D03*
X94670000Y-143930000D03*
X95170000Y-143930000D03*
X95670000Y-143930000D03*
X96170000Y-143930000D03*
X96670000Y-143930000D03*
D42*
X154010000Y-140810000D03*
D43*
X55690000Y-129950000D03*
D44*
X53150000Y-129950000D03*
X55690000Y-127410000D03*
X53150000Y-127410000D03*
X55690000Y-124870000D03*
X53150000Y-124870000D03*
D45*
X59090000Y-124250000D03*
D46*
X59090000Y-125520000D03*
X59090000Y-126790000D03*
D47*
X122950000Y-159700000D03*
D48*
X118990000Y-159700000D03*
D49*
X84690000Y-126480000D03*
X87230000Y-126480000D03*
X89770000Y-126480000D03*
D50*
X84690000Y-129020000D03*
D49*
X87230000Y-129020000D03*
X89770000Y-129020000D03*
D51*
X125520000Y-126650000D03*
D52*
X128060000Y-126650000D03*
X130600000Y-126650000D03*
X133140000Y-126650000D03*
D51*
X114080000Y-126650000D03*
D52*
X116620000Y-126650000D03*
X119160000Y-126650000D03*
X121700000Y-126650000D03*
D51*
X136950000Y-126650000D03*
D52*
X139490000Y-126650000D03*
X142030000Y-126650000D03*
X144570000Y-126650000D03*
D51*
X148400000Y-126650000D03*
D52*
X150940000Y-126650000D03*
X153480000Y-126650000D03*
X156020000Y-126650000D03*
D53*
X71560000Y-123470000D03*
X72080000Y-123470000D03*
D54*
X98040000Y-148200000D03*
X95140000Y-148200000D03*
D22*
X92240000Y-158250000D03*
X82740000Y-158250000D03*
D54*
X101120000Y-148200000D03*
X104020000Y-148200000D03*
D55*
X106500000Y-143850000D03*
X106500000Y-138750000D03*
D56*
X136400000Y-144150000D03*
X131300000Y-144150000D03*
X136400000Y-151700000D03*
X131300000Y-151700000D03*
X143650000Y-160150000D03*
X138550000Y-160150000D03*
D57*
X131200000Y-138040000D03*
X131200000Y-137090000D03*
X131200000Y-136140000D03*
X128520000Y-136140000D03*
X128520000Y-137090000D03*
X128520000Y-138040000D03*
D58*
X129460000Y-136565000D03*
X129460000Y-137615000D03*
X130260000Y-136565000D03*
X130260000Y-137615000D03*
D57*
X127350000Y-138040000D03*
X127350000Y-137090000D03*
X127350000Y-136140000D03*
X124670000Y-136140000D03*
X124670000Y-137090000D03*
X124670000Y-138040000D03*
D58*
X125610000Y-136565000D03*
X125610000Y-137615000D03*
X126410000Y-136565000D03*
X126410000Y-137615000D03*
D59*
X126900000Y-151290000D03*
D60*
X126265000Y-148160000D03*
X127535000Y-148160000D03*
X128805000Y-148160000D03*
X124995000Y-148160000D03*
X124995000Y-153760000D03*
X128805000Y-153760000D03*
X127535000Y-153760000D03*
X126265000Y-153760000D03*
D59*
X126900000Y-144440000D03*
D60*
X126265000Y-141310000D03*
X127535000Y-141310000D03*
X128805000Y-141310000D03*
X124995000Y-141310000D03*
X124995000Y-146910000D03*
X128805000Y-146910000D03*
X127535000Y-146910000D03*
X126265000Y-146910000D03*
D59*
X140790000Y-153280000D03*
D60*
X140155000Y-150150000D03*
X141425000Y-150150000D03*
X142695000Y-150150000D03*
X138885000Y-150150000D03*
X138885000Y-155750000D03*
X142695000Y-155750000D03*
X141425000Y-155750000D03*
X140155000Y-155750000D03*
D59*
X140790000Y-146430000D03*
D60*
X140155000Y-143300000D03*
X141425000Y-143300000D03*
X142695000Y-143300000D03*
X138885000Y-143300000D03*
X138885000Y-148900000D03*
X142695000Y-148900000D03*
X141425000Y-148900000D03*
X140155000Y-148900000D03*
D61*
X77690000Y-137800000D03*
X79590000Y-137800000D03*
X78640000Y-135800000D03*
D62*
X53340000Y-162680000D03*
X53340000Y-160400000D03*
X53340000Y-158120000D03*
D63*
X47040000Y-160400000D03*
D62*
X42190000Y-162680000D03*
X42190000Y-160400000D03*
X42190000Y-158120000D03*
D63*
X35890000Y-160400000D03*
D61*
X98370000Y-142800000D03*
X100270000Y-142800000D03*
X99320000Y-140800000D03*
D62*
X95740000Y-151070000D03*
X95740000Y-153350000D03*
X95740000Y-155630000D03*
D63*
X102040000Y-153350000D03*
D62*
X104140000Y-162680000D03*
X104140000Y-160400000D03*
X104140000Y-158120000D03*
D63*
X97840000Y-160400000D03*
D62*
X121240000Y-150080000D03*
X121240000Y-147800000D03*
X121240000Y-145520000D03*
D63*
X114940000Y-147800000D03*
D64*
X145910000Y-142690000D03*
X145910000Y-143210000D03*
D14*
X59690000Y-132950000D03*
X59690000Y-131450000D03*
D64*
X42740000Y-144480000D03*
X42740000Y-143960000D03*
X144120000Y-143220000D03*
X144120000Y-142700000D03*
D53*
X69910000Y-125560000D03*
X69390000Y-125560000D03*
X67970000Y-125580000D03*
X68490000Y-125580000D03*
D64*
X73190000Y-125520000D03*
X73190000Y-126040000D03*
D53*
X72090000Y-140710000D03*
X72610000Y-140710000D03*
X73770000Y-140700000D03*
X73250000Y-140700000D03*
D14*
X77590000Y-140550000D03*
X77590000Y-139050000D03*
D18*
X25600000Y-153190000D03*
X27100000Y-153190000D03*
X27100000Y-151740000D03*
X25600000Y-151740000D03*
D65*
X28900000Y-148700000D03*
X29800000Y-148700000D03*
X53050000Y-147410000D03*
X53950000Y-147410000D03*
D66*
X54240000Y-156500000D03*
X54240000Y-155600000D03*
D65*
X94120000Y-146100000D03*
X95020000Y-146100000D03*
D18*
X54700000Y-146210000D03*
X53200000Y-146210000D03*
D67*
X117290000Y-152850000D03*
X122190000Y-152850000D03*
D18*
X155900000Y-144850000D03*
X157400000Y-144850000D03*
D65*
X123680000Y-137710000D03*
X122780000Y-137710000D03*
D30*
X148690000Y-143770000D03*
X148690000Y-138870000D03*
D65*
X131820000Y-134630000D03*
X132720000Y-134630000D03*
D18*
X120540000Y-130900000D03*
X122040000Y-130900000D03*
X117990000Y-130900000D03*
X119490000Y-130900000D03*
X157400000Y-130890000D03*
X155900000Y-130890000D03*
X154850000Y-130890000D03*
X153350000Y-130890000D03*
X144140000Y-130900000D03*
X145640000Y-130900000D03*
X141590000Y-130900000D03*
X143090000Y-130900000D03*
D14*
X58240000Y-132950000D03*
X58240000Y-131450000D03*
D18*
X115440000Y-130900000D03*
X116940000Y-130900000D03*
X152300000Y-130890000D03*
X150800000Y-130890000D03*
X139040000Y-130900000D03*
X140540000Y-130900000D03*
D66*
X107490000Y-129850000D03*
X107490000Y-128950000D03*
D18*
X104610000Y-136340000D03*
X103110000Y-136340000D03*
D14*
X102000000Y-143000000D03*
X102000000Y-141500000D03*
X102000000Y-138950000D03*
X102000000Y-140450000D03*
X98960000Y-135440000D03*
X98960000Y-136940000D03*
X109090000Y-125950000D03*
X109090000Y-127450000D03*
D66*
X97750000Y-135290000D03*
X97750000Y-136190000D03*
D68*
X40767660Y-146582460D03*
X40767660Y-145312460D03*
X40767660Y-144047540D03*
X40767660Y-142777540D03*
X35032340Y-142777540D03*
X35032340Y-144047540D03*
X35032340Y-145312460D03*
X35032340Y-146582460D03*
X145057660Y-141582460D03*
X145057660Y-140312460D03*
X145057660Y-139047540D03*
X145057660Y-137777540D03*
X139322340Y-137777540D03*
X139322340Y-139047540D03*
X139322340Y-140312460D03*
X139322340Y-141582460D03*
D69*
X65330000Y-138890000D03*
X66130000Y-138890000D03*
X66930000Y-138890000D03*
X67730000Y-138890000D03*
X68530000Y-138890000D03*
X69330000Y-138890000D03*
X70130000Y-138890000D03*
X70930000Y-138890000D03*
X71730000Y-138890000D03*
X72530000Y-138890000D03*
X73330000Y-138890000D03*
D70*
X75030000Y-137190000D03*
X75030000Y-136390000D03*
X75030000Y-135590000D03*
X75030000Y-134790000D03*
X75030000Y-133990000D03*
X75030000Y-133190000D03*
X75030000Y-132390000D03*
X75030000Y-131590000D03*
X75030000Y-130790000D03*
X75030000Y-129990000D03*
X75030000Y-129190000D03*
D69*
X73330000Y-127490000D03*
X72530000Y-127490000D03*
X71730000Y-127490000D03*
X70930000Y-127490000D03*
X70130000Y-127490000D03*
X69330000Y-127490000D03*
X68530000Y-127490000D03*
X67730000Y-127490000D03*
X66930000Y-127490000D03*
X66130000Y-127490000D03*
X65330000Y-127490000D03*
D70*
X63630000Y-129190000D03*
X63630000Y-129990000D03*
X63630000Y-130790000D03*
X63630000Y-131590000D03*
X63630000Y-132390000D03*
X63630000Y-133190000D03*
X63630000Y-133990000D03*
X63630000Y-134790000D03*
X63630000Y-135590000D03*
X63630000Y-136390000D03*
X63630000Y-137190000D03*
D71*
X28400000Y-153040000D03*
X29350000Y-153040000D03*
X30300000Y-153040000D03*
X30300000Y-150420000D03*
X29350000Y-150420000D03*
X28400000Y-150420000D03*
D72*
X56202000Y-148160000D03*
X56202000Y-148660000D03*
X56202000Y-149160000D03*
X56202000Y-149660000D03*
D73*
X56900000Y-150358000D03*
X57400000Y-150358000D03*
X57900000Y-150358000D03*
X58400000Y-150358000D03*
D72*
X59098000Y-149660000D03*
X59098000Y-149160000D03*
X59098000Y-148660000D03*
X59098000Y-148160000D03*
D73*
X58400000Y-147462000D03*
X57900000Y-147462000D03*
X57400000Y-147462000D03*
X56900000Y-147462000D03*
D74*
X57650000Y-148910000D03*
D75*
X49724000Y-155220000D03*
D76*
X53915000Y-153950000D03*
X49724000Y-152680000D03*
X53915000Y-151410000D03*
X49724000Y-150140000D03*
X53915000Y-148870000D03*
X49724000Y-147600000D03*
D35*
X84420000Y-134810000D03*
X84420000Y-136710000D03*
X86420000Y-135760000D03*
D77*
X113050000Y-138400000D03*
X112100000Y-138400000D03*
X111150000Y-138400000D03*
X111150000Y-140600000D03*
X113050000Y-140600000D03*
X112100000Y-140600000D03*
D78*
X97595000Y-132960000D03*
X98245000Y-132960000D03*
X98895000Y-132960000D03*
X99545000Y-132960000D03*
X100195000Y-132960000D03*
X100845000Y-132960000D03*
X101495000Y-132960000D03*
X102145000Y-132960000D03*
X102795000Y-132960000D03*
X103445000Y-132960000D03*
X104095000Y-132960000D03*
X104745000Y-132960000D03*
X105395000Y-132960000D03*
X106045000Y-132960000D03*
X106045000Y-127260000D03*
X105395000Y-127260000D03*
X104745000Y-127260000D03*
X104095000Y-127260000D03*
X103445000Y-127260000D03*
X102795000Y-127260000D03*
X102145000Y-127260000D03*
X101495000Y-127260000D03*
X100845000Y-127260000D03*
X100195000Y-127260000D03*
X99545000Y-127260000D03*
X98895000Y-127260000D03*
X98245000Y-127260000D03*
X97595000Y-127260000D03*
D79*
X106045000Y-131385000D03*
X106045000Y-130535000D03*
X106045000Y-128835000D03*
X106045000Y-129685000D03*
X104988750Y-129685000D03*
X104988750Y-128835000D03*
X104988750Y-130535000D03*
X104988750Y-131385000D03*
X103932500Y-131385000D03*
X103932500Y-130535000D03*
X103932500Y-128835000D03*
X103932500Y-129685000D03*
X102876250Y-129685000D03*
X102876250Y-128835000D03*
X102876250Y-130535000D03*
X102876250Y-131385000D03*
X101820000Y-131385000D03*
X101820000Y-130535000D03*
X101820000Y-128835000D03*
X101820000Y-129685000D03*
X100763750Y-129685000D03*
X100763750Y-128835000D03*
X100763750Y-130535000D03*
X100763750Y-131385000D03*
X99707500Y-131385000D03*
X99707500Y-130535000D03*
X99707500Y-128835000D03*
X99707500Y-129685000D03*
X98651250Y-129685000D03*
X98651250Y-128835000D03*
X98651250Y-130535000D03*
X98651250Y-131385000D03*
X97595000Y-131385000D03*
X97595000Y-130535000D03*
X97595000Y-128835000D03*
X97595000Y-129685000D03*
D80*
X72875860Y-141650700D03*
X72875860Y-142151080D03*
X72875860Y-142648920D03*
X72875860Y-143149300D03*
X75624140Y-143149300D03*
X75624140Y-142648920D03*
X75624140Y-142151080D03*
X75624140Y-141650700D03*
D23*
X25400000Y-146450000D03*
X25960000Y-146450000D03*
D40*
X85142300Y-144800000D03*
X91517700Y-144800000D03*
D42*
X29000000Y-143500000D03*
D18*
X25600000Y-147520000D03*
X27100000Y-147520000D03*
D81*
X66330000Y-148100000D03*
D82*
X66330000Y-150640000D03*
D51*
X29550000Y-126600000D03*
D52*
X27010000Y-126600000D03*
D83*
X30500000Y-159200000D03*
D84*
X27000000Y-159200000D03*
D85*
X27750000Y-131150000D03*
X25650000Y-131150000D03*
X27850000Y-154900000D03*
X29950000Y-154900000D03*
D86*
X70880000Y-149900000D03*
X70880000Y-152000000D03*
D33*
X42540000Y-152240000D03*
X42540000Y-150640000D03*
X43890000Y-152250000D03*
X43890000Y-150650000D03*
D87*
X42390000Y-155990000D03*
X42390000Y-153790000D03*
X43840000Y-156000000D03*
X43840000Y-153800000D03*
D67*
X73170000Y-151050000D03*
X76170000Y-151050000D03*
X98320000Y-145050000D03*
X101320000Y-145050000D03*
D88*
X94700000Y-137530000D03*
X94700000Y-135030000D03*
X86250000Y-141060000D03*
X86250000Y-138560000D03*
X123280000Y-143260000D03*
X123280000Y-140760000D03*
X114830000Y-143250000D03*
X114830000Y-140750000D03*
D89*
X146390000Y-155700000D03*
X144490000Y-155700000D03*
X132520000Y-156130000D03*
X134420000Y-156130000D03*
X88020000Y-134910000D03*
X89920000Y-134910000D03*
D90*
X117050000Y-142650000D03*
X121050000Y-142650000D03*
X88470000Y-137210000D03*
X92470000Y-137210000D03*
X92470000Y-140460000D03*
X88470000Y-140460000D03*
X117050000Y-139400000D03*
X121050000Y-139400000D03*
D13*
X25980000Y-134950000D03*
X25980000Y-133850000D03*
D18*
X136010000Y-139240000D03*
X134510000Y-139240000D03*
D16*
X34410000Y-140010000D03*
X32910000Y-140010000D03*
D51*
X134950000Y-160350000D03*
D52*
X132410000Y-160350000D03*
X129870000Y-160350000D03*
X127330000Y-160350000D03*
D91*
X28910000Y-134470000D03*
X40400000Y-134750000D03*
X45900000Y-141170000D03*
X50990000Y-142080000D03*
X62190000Y-142140000D03*
X56400000Y-141830000D03*
X54570000Y-138930000D03*
X57570000Y-138880000D03*
X74010000Y-147280000D03*
X69850000Y-137010000D03*
X68680000Y-134010000D03*
X40000000Y-154100000D03*
X81660000Y-124890000D03*
X91970000Y-129570000D03*
X93240000Y-124760000D03*
X77660000Y-124480000D03*
X45540000Y-132340000D03*
X41540000Y-131450000D03*
X41790000Y-137360000D03*
X37540000Y-149420000D03*
X46780000Y-153150000D03*
X47000000Y-148010000D03*
X48490000Y-144440000D03*
X53460000Y-144330000D03*
X49760000Y-132620000D03*
X41440000Y-129150000D03*
X41940000Y-133860000D03*
X44770000Y-134020000D03*
X46420000Y-133990000D03*
X122410000Y-148980000D03*
X117330000Y-134450000D03*
X87680000Y-133900000D03*
X94670000Y-142550000D03*
X126248909Y-131521091D03*
X123975028Y-135790010D03*
X134480000Y-137070000D03*
X146740000Y-139240000D03*
X143876446Y-143973554D03*
X140120000Y-142450000D03*
X133830000Y-135950000D03*
X130070000Y-131800000D03*
X36680000Y-146600000D03*
X43520000Y-144450000D03*
X57460000Y-145630000D03*
X61230000Y-147640000D03*
X71200000Y-140740000D03*
X72875860Y-141510000D03*
X73788316Y-140129999D03*
X83100000Y-134210000D03*
X74020000Y-125490000D03*
X69670000Y-124340000D03*
X67040000Y-125530000D03*
X33720000Y-135550000D03*
X25830000Y-137450000D03*
X119004779Y-131524908D03*
X109680000Y-142680000D03*
D92*
X112810000Y-138010000D03*
D91*
X123020000Y-136640000D03*
X121200000Y-131250000D03*
X129480000Y-133059999D03*
X146710000Y-138050000D03*
X145040000Y-144670000D03*
X143960000Y-136820000D03*
X147120000Y-130820000D03*
X154000000Y-130890000D03*
X142520000Y-131670000D03*
X71740000Y-137670000D03*
X73780000Y-131590000D03*
X66890000Y-128800000D03*
X70910000Y-125610000D03*
X64900000Y-133210000D03*
X72800000Y-123480000D03*
X61930000Y-159850000D03*
X72920000Y-160590000D03*
X55700000Y-146190000D03*
X118620000Y-157050000D03*
X90140000Y-137480000D03*
X122940000Y-156880000D03*
X25980000Y-132860000D03*
X39880000Y-132240000D03*
X29210000Y-133280000D03*
X32490000Y-132470000D03*
D93*
X25650000Y-131580000D03*
D91*
X27980000Y-139440000D03*
X32760000Y-141900000D03*
X44850000Y-155540000D03*
D93*
X51850000Y-162770000D03*
D91*
X119250000Y-142650000D03*
X123230000Y-139530000D03*
X156020000Y-129600000D03*
X145390000Y-156730000D03*
X123760000Y-136800000D03*
X123190000Y-147730000D03*
X96170000Y-130030000D03*
X134500000Y-144030000D03*
X123640000Y-133960000D03*
X104100000Y-125750000D03*
X95960000Y-124430000D03*
X96750000Y-125330000D03*
X106480000Y-124220000D03*
X102800000Y-126030000D03*
X106820000Y-133060000D03*
X102960000Y-133980000D03*
X103860000Y-136350000D03*
X98600000Y-134520000D03*
X104820000Y-137290000D03*
X104810000Y-133990000D03*
X152510000Y-146890000D03*
X144050000Y-149060000D03*
X146780000Y-144560000D03*
X102160000Y-133970000D03*
X102720000Y-137760000D03*
X46420000Y-139170000D03*
X27100000Y-150500000D03*
X65970000Y-136420000D03*
X87770000Y-132360000D03*
X130880000Y-133090000D03*
X154810000Y-131920000D03*
X87155891Y-132024014D03*
X141580000Y-131910000D03*
X130930000Y-131950000D03*
X66010000Y-135530000D03*
X86656890Y-131533081D03*
X118710000Y-130890000D03*
X66050686Y-134800686D03*
X113450000Y-130840000D03*
X116280000Y-130850000D03*
X108250000Y-156240000D03*
X118550000Y-152930000D03*
X95740000Y-155630000D03*
X152300000Y-129860000D03*
X126750000Y-129140000D03*
X126760000Y-130690000D03*
X35420000Y-132900000D03*
X134110000Y-133860000D03*
X143190000Y-139640000D03*
X94600000Y-140890000D03*
X68540000Y-130390000D03*
X60100000Y-148110000D03*
X39150000Y-145320000D03*
X98210000Y-126210000D03*
X123200000Y-148560000D03*
X128660000Y-140550000D03*
X140160000Y-143710000D03*
X125520000Y-140470000D03*
X99620000Y-126160000D03*
X127110000Y-133160000D03*
X103510000Y-126220000D03*
X137630000Y-149590000D03*
X101830000Y-126140000D03*
X136730000Y-142020000D03*
X41080000Y-155400000D03*
X40330000Y-162610000D03*
X135320000Y-139310000D03*
X104080000Y-133980000D03*
X104470000Y-138690000D03*
X109100000Y-126790000D03*
X104730000Y-126190000D03*
X100820000Y-133950000D03*
X97740000Y-134570000D03*
X143060000Y-141160000D03*
X96240000Y-132890000D03*
X66920000Y-137610000D03*
X84670000Y-141050000D03*
X91010000Y-140500000D03*
X31330000Y-137160000D03*
X27130000Y-137130000D03*
X124660000Y-138720000D03*
X124740000Y-133450000D03*
X106500000Y-140690000D03*
X131850000Y-135330000D03*
X120850000Y-134400000D03*
X122190000Y-136790000D03*
X132720000Y-135370000D03*
X71773646Y-129879990D03*
X35410000Y-140770000D03*
X111150000Y-139560000D03*
X112090000Y-139530000D03*
X148690000Y-139780000D03*
X81950000Y-133630000D03*
X137060000Y-130850000D03*
X139760000Y-130850000D03*
X118450002Y-142900000D03*
X67730000Y-140160000D03*
X65210000Y-137590000D03*
X119760000Y-131900000D03*
X130960000Y-134010000D03*
X66090000Y-140000000D03*
X62350000Y-129200000D03*
X70950000Y-129880000D03*
X62320000Y-130000000D03*
X70160000Y-129870000D03*
X73330000Y-128760000D03*
X130220000Y-135000000D03*
X76410000Y-129430000D03*
X127928312Y-135626131D03*
X76540000Y-131490000D03*
X145920000Y-143940000D03*
X140910000Y-140300000D03*
X64340000Y-127340000D03*
X43480000Y-143630000D03*
X142692460Y-139047540D03*
X66150000Y-126270000D03*
X67290000Y-140930000D03*
X28770000Y-135340000D03*
X30850000Y-134170000D03*
X31370000Y-153030000D03*
X69340000Y-140130000D03*
X143110000Y-140430000D03*
X76400000Y-128700000D03*
X96160000Y-132100000D03*
X110110000Y-135860000D03*
X126900000Y-151290000D03*
X147690000Y-160540000D03*
X136540000Y-151780000D03*
X33000000Y-133360000D03*
X33830000Y-140200000D03*
X30170000Y-138380000D03*
X33820000Y-141940000D03*
X27660000Y-133810000D03*
X30870000Y-133180000D03*
X38340000Y-139100000D03*
X38070000Y-135350000D03*
X55313511Y-148660000D03*
X119240000Y-140770000D03*
X45480000Y-146270000D03*
X38750000Y-146270000D03*
X36170000Y-133030000D03*
X133380000Y-133920000D03*
X143250000Y-141860000D03*
X95630000Y-141140000D03*
X69340000Y-130380000D03*
X59200000Y-147400000D03*
X118838554Y-139468554D03*
X127740000Y-138860000D03*
X131060002Y-136765002D03*
X127670000Y-136780000D03*
X128050000Y-133100000D03*
X130930000Y-128980000D03*
X85300000Y-136790000D03*
X94730000Y-136330000D03*
X90900000Y-139710000D03*
X61320000Y-162100000D03*
X28410000Y-151760000D03*
X51500000Y-158130000D03*
X40300000Y-158200000D03*
X38300000Y-137080000D03*
X37800000Y-138150000D03*
X40610000Y-136010000D03*
X36890000Y-132950000D03*
X37850000Y-136070000D03*
X27310000Y-135960000D03*
X31090000Y-138100000D03*
X28130000Y-138510000D03*
X32230000Y-138810000D03*
M02*
