G04 #@! TF.FileFunction,Legend,Bot*
%FSLAX46Y46*%
G04 Gerber Fmt 4.6, Leading zero omitted, Abs format (unit mm)*
G04 Created by KiCad (PCBNEW 4.0.7) date 06/14/18 16:52:46*
%MOMM*%
%LPD*%
G01*
G04 APERTURE LIST*
%ADD10C,0.100000*%
%ADD11C,0.300000*%
%ADD12C,0.150000*%
%ADD13C,0.120000*%
%ADD14C,0.125000*%
G04 APERTURE END LIST*
D10*
D11*
X113927142Y-153878571D02*
X113569999Y-155378571D01*
X113284285Y-154307143D01*
X112998571Y-155378571D01*
X112641428Y-153878571D01*
X112069999Y-155378571D02*
X112069999Y-154378571D01*
X112069999Y-153878571D02*
X112141428Y-153950000D01*
X112069999Y-154021429D01*
X111998571Y-153950000D01*
X112069999Y-153878571D01*
X112069999Y-154021429D01*
X111141427Y-155378571D02*
X111284285Y-155307143D01*
X111355713Y-155164286D01*
X111355713Y-153878571D01*
X110784285Y-154378571D02*
X110212856Y-154378571D01*
X110569999Y-155378571D02*
X110569999Y-154092857D01*
X110498571Y-153950000D01*
X110355713Y-153878571D01*
X110212856Y-153878571D01*
X109712856Y-155378571D02*
X109712856Y-154378571D01*
X109712856Y-154664286D02*
X109641428Y-154521429D01*
X109569999Y-154450000D01*
X109427142Y-154378571D01*
X109284285Y-154378571D01*
X108212857Y-155307143D02*
X108355714Y-155378571D01*
X108641428Y-155378571D01*
X108784285Y-155307143D01*
X108855714Y-155164286D01*
X108855714Y-154592857D01*
X108784285Y-154450000D01*
X108641428Y-154378571D01*
X108355714Y-154378571D01*
X108212857Y-154450000D01*
X108141428Y-154592857D01*
X108141428Y-154735714D01*
X108855714Y-154878571D01*
X106855714Y-155378571D02*
X106855714Y-153878571D01*
X106855714Y-155307143D02*
X106998571Y-155378571D01*
X107284285Y-155378571D01*
X107427143Y-155307143D01*
X107498571Y-155235714D01*
X107570000Y-155092857D01*
X107570000Y-154664286D01*
X107498571Y-154521429D01*
X107427143Y-154450000D01*
X107284285Y-154378571D01*
X106998571Y-154378571D01*
X106855714Y-154450000D01*
X104284285Y-155378571D02*
X104998571Y-155378571D01*
X104998571Y-153878571D01*
X103569999Y-155378571D02*
X103712857Y-155307143D01*
X103784285Y-155235714D01*
X103855714Y-155092857D01*
X103855714Y-154664286D01*
X103784285Y-154521429D01*
X103712857Y-154450000D01*
X103569999Y-154378571D01*
X103355714Y-154378571D01*
X103212857Y-154450000D01*
X103141428Y-154521429D01*
X103069999Y-154664286D01*
X103069999Y-155092857D01*
X103141428Y-155235714D01*
X103212857Y-155307143D01*
X103355714Y-155378571D01*
X103569999Y-155378571D01*
X102427142Y-154378571D02*
X102427142Y-155878571D01*
X102427142Y-154450000D02*
X102284285Y-154378571D01*
X101998571Y-154378571D01*
X101855714Y-154450000D01*
X101784285Y-154521429D01*
X101712856Y-154664286D01*
X101712856Y-155092857D01*
X101784285Y-155235714D01*
X101855714Y-155307143D01*
X101998571Y-155378571D01*
X102284285Y-155378571D01*
X102427142Y-155307143D01*
X100498571Y-155307143D02*
X100641428Y-155378571D01*
X100927142Y-155378571D01*
X101069999Y-155307143D01*
X101141428Y-155164286D01*
X101141428Y-154592857D01*
X101069999Y-154450000D01*
X100927142Y-154378571D01*
X100641428Y-154378571D01*
X100498571Y-154450000D01*
X100427142Y-154592857D01*
X100427142Y-154735714D01*
X101141428Y-154878571D01*
X99855714Y-155307143D02*
X99712857Y-155378571D01*
X99427142Y-155378571D01*
X99284285Y-155307143D01*
X99212857Y-155164286D01*
X99212857Y-155092857D01*
X99284285Y-154950000D01*
X99427142Y-154878571D01*
X99641428Y-154878571D01*
X99784285Y-154807143D01*
X99855714Y-154664286D01*
X99855714Y-154592857D01*
X99784285Y-154450000D01*
X99641428Y-154378571D01*
X99427142Y-154378571D01*
X99284285Y-154450000D01*
X97427142Y-154807143D02*
X96284285Y-154807143D01*
X93712856Y-155378571D02*
X94427142Y-155378571D01*
X94427142Y-153878571D01*
X92641428Y-155307143D02*
X92784285Y-155378571D01*
X93069999Y-155378571D01*
X93212856Y-155307143D01*
X93284285Y-155164286D01*
X93284285Y-154592857D01*
X93212856Y-154450000D01*
X93069999Y-154378571D01*
X92784285Y-154378571D01*
X92641428Y-154450000D01*
X92569999Y-154592857D01*
X92569999Y-154735714D01*
X93284285Y-154878571D01*
X91927142Y-154378571D02*
X91927142Y-155378571D01*
X91927142Y-154521429D02*
X91855714Y-154450000D01*
X91712856Y-154378571D01*
X91498571Y-154378571D01*
X91355714Y-154450000D01*
X91284285Y-154592857D01*
X91284285Y-155378571D01*
X90569999Y-154378571D02*
X90569999Y-155378571D01*
X90569999Y-154521429D02*
X90498571Y-154450000D01*
X90355713Y-154378571D01*
X90141428Y-154378571D01*
X89998571Y-154450000D01*
X89927142Y-154592857D01*
X89927142Y-155378571D01*
X88569999Y-155378571D02*
X88569999Y-154592857D01*
X88641428Y-154450000D01*
X88784285Y-154378571D01*
X89069999Y-154378571D01*
X89212856Y-154450000D01*
X88569999Y-155307143D02*
X88712856Y-155378571D01*
X89069999Y-155378571D01*
X89212856Y-155307143D01*
X89284285Y-155164286D01*
X89284285Y-155021429D01*
X89212856Y-154878571D01*
X89069999Y-154807143D01*
X88712856Y-154807143D01*
X88569999Y-154735714D01*
X87855713Y-155378571D02*
X87855713Y-154378571D01*
X87855713Y-154664286D02*
X87784285Y-154521429D01*
X87712856Y-154450000D01*
X87569999Y-154378571D01*
X87427142Y-154378571D01*
X87141428Y-154378571D02*
X86569999Y-154378571D01*
X86927142Y-153878571D02*
X86927142Y-155164286D01*
X86855714Y-155307143D01*
X86712856Y-155378571D01*
X86569999Y-155378571D01*
X84284285Y-155378571D02*
X84284285Y-153878571D01*
X84284285Y-155307143D02*
X84427142Y-155378571D01*
X84712856Y-155378571D01*
X84855714Y-155307143D01*
X84927142Y-155235714D01*
X84998571Y-155092857D01*
X84998571Y-154664286D01*
X84927142Y-154521429D01*
X84855714Y-154450000D01*
X84712856Y-154378571D01*
X84427142Y-154378571D01*
X84284285Y-154450000D01*
X82998571Y-155307143D02*
X83141428Y-155378571D01*
X83427142Y-155378571D01*
X83569999Y-155307143D01*
X83641428Y-155164286D01*
X83641428Y-154592857D01*
X83569999Y-154450000D01*
X83427142Y-154378571D01*
X83141428Y-154378571D01*
X82998571Y-154450000D01*
X82927142Y-154592857D01*
X82927142Y-154735714D01*
X83641428Y-154878571D01*
X80712857Y-153878571D02*
X80712857Y-154950000D01*
X80784285Y-155164286D01*
X80927142Y-155307143D01*
X81141428Y-155378571D01*
X81284285Y-155378571D01*
X79784285Y-155378571D02*
X79927143Y-155307143D01*
X79998571Y-155235714D01*
X80070000Y-155092857D01*
X80070000Y-154664286D01*
X79998571Y-154521429D01*
X79927143Y-154450000D01*
X79784285Y-154378571D01*
X79570000Y-154378571D01*
X79427143Y-154450000D01*
X79355714Y-154521429D01*
X79284285Y-154664286D01*
X79284285Y-155092857D01*
X79355714Y-155235714D01*
X79427143Y-155307143D01*
X79570000Y-155378571D01*
X79784285Y-155378571D01*
X78641428Y-154378571D02*
X78641428Y-155378571D01*
X78641428Y-154521429D02*
X78570000Y-154450000D01*
X78427142Y-154378571D01*
X78212857Y-154378571D01*
X78070000Y-154450000D01*
X77998571Y-154592857D01*
X77998571Y-155378571D01*
X76641428Y-154378571D02*
X76641428Y-155592857D01*
X76712857Y-155735714D01*
X76784285Y-155807143D01*
X76927142Y-155878571D01*
X77141428Y-155878571D01*
X77284285Y-155807143D01*
X76641428Y-155307143D02*
X76784285Y-155378571D01*
X77069999Y-155378571D01*
X77212857Y-155307143D01*
X77284285Y-155235714D01*
X77355714Y-155092857D01*
X77355714Y-154664286D01*
X77284285Y-154521429D01*
X77212857Y-154450000D01*
X77069999Y-154378571D01*
X76784285Y-154378571D01*
X76641428Y-154450000D01*
X74784285Y-154807143D02*
X73641428Y-154807143D01*
X70927142Y-155235714D02*
X70998571Y-155307143D01*
X71212857Y-155378571D01*
X71355714Y-155378571D01*
X71569999Y-155307143D01*
X71712857Y-155164286D01*
X71784285Y-155021429D01*
X71855714Y-154735714D01*
X71855714Y-154521429D01*
X71784285Y-154235714D01*
X71712857Y-154092857D01*
X71569999Y-153950000D01*
X71355714Y-153878571D01*
X71212857Y-153878571D01*
X70998571Y-153950000D01*
X70927142Y-154021429D01*
X69641428Y-155378571D02*
X69641428Y-154592857D01*
X69712857Y-154450000D01*
X69855714Y-154378571D01*
X70141428Y-154378571D01*
X70284285Y-154450000D01*
X69641428Y-155307143D02*
X69784285Y-155378571D01*
X70141428Y-155378571D01*
X70284285Y-155307143D01*
X70355714Y-155164286D01*
X70355714Y-155021429D01*
X70284285Y-154878571D01*
X70141428Y-154807143D01*
X69784285Y-154807143D01*
X69641428Y-154735714D01*
X68712856Y-155378571D02*
X68855714Y-155307143D01*
X68927142Y-155164286D01*
X68927142Y-153878571D01*
X68284285Y-154378571D02*
X67927142Y-155378571D01*
X67570000Y-154378571D01*
X66998571Y-155378571D02*
X66998571Y-154378571D01*
X66998571Y-153878571D02*
X67070000Y-153950000D01*
X66998571Y-154021429D01*
X66927143Y-153950000D01*
X66998571Y-153878571D01*
X66998571Y-154021429D01*
X66284285Y-154378571D02*
X66284285Y-155378571D01*
X66284285Y-154521429D02*
X66212857Y-154450000D01*
X66069999Y-154378571D01*
X65855714Y-154378571D01*
X65712857Y-154450000D01*
X65641428Y-154592857D01*
X65641428Y-155378571D01*
X62927142Y-155378571D02*
X63427142Y-154664286D01*
X63784285Y-155378571D02*
X63784285Y-153878571D01*
X63212857Y-153878571D01*
X63069999Y-153950000D01*
X62998571Y-154021429D01*
X62927142Y-154164286D01*
X62927142Y-154378571D01*
X62998571Y-154521429D01*
X63069999Y-154592857D01*
X63212857Y-154664286D01*
X63784285Y-154664286D01*
X62284285Y-155378571D02*
X62284285Y-154378571D01*
X62284285Y-153878571D02*
X62355714Y-153950000D01*
X62284285Y-154021429D01*
X62212857Y-153950000D01*
X62284285Y-153878571D01*
X62284285Y-154021429D01*
X60998571Y-155307143D02*
X61141428Y-155378571D01*
X61427142Y-155378571D01*
X61569999Y-155307143D01*
X61641428Y-155164286D01*
X61641428Y-154592857D01*
X61569999Y-154450000D01*
X61427142Y-154378571D01*
X61141428Y-154378571D01*
X60998571Y-154450000D01*
X60927142Y-154592857D01*
X60927142Y-154735714D01*
X61641428Y-154878571D01*
X60284285Y-155378571D02*
X60284285Y-153878571D01*
X60141428Y-154807143D02*
X59712857Y-155378571D01*
X59712857Y-154378571D02*
X60284285Y-154950000D01*
X58498571Y-155307143D02*
X58641428Y-155378571D01*
X58927142Y-155378571D01*
X59069999Y-155307143D01*
X59141428Y-155164286D01*
X59141428Y-154592857D01*
X59069999Y-154450000D01*
X58927142Y-154378571D01*
X58641428Y-154378571D01*
X58498571Y-154450000D01*
X58427142Y-154592857D01*
X58427142Y-154735714D01*
X59141428Y-154878571D01*
X57784285Y-155378571D02*
X57784285Y-154378571D01*
X57784285Y-154664286D02*
X57712857Y-154521429D01*
X57641428Y-154450000D01*
X57498571Y-154378571D01*
X57355714Y-154378571D01*
X56855714Y-155378571D02*
X56855714Y-153878571D01*
X56712857Y-154807143D02*
X56284286Y-155378571D01*
X56284286Y-154378571D02*
X56855714Y-154950000D01*
X112927141Y-157142857D02*
X113427141Y-157142857D01*
X113427141Y-157928571D02*
X113427141Y-156428571D01*
X112712855Y-156428571D01*
X112141427Y-157928571D02*
X112141427Y-156928571D01*
X112141427Y-157214286D02*
X112069999Y-157071429D01*
X111998570Y-157000000D01*
X111855713Y-156928571D01*
X111712856Y-156928571D01*
X110569999Y-157928571D02*
X110569999Y-157142857D01*
X110641428Y-157000000D01*
X110784285Y-156928571D01*
X111069999Y-156928571D01*
X111212856Y-157000000D01*
X110569999Y-157857143D02*
X110712856Y-157928571D01*
X111069999Y-157928571D01*
X111212856Y-157857143D01*
X111284285Y-157714286D01*
X111284285Y-157571429D01*
X111212856Y-157428571D01*
X111069999Y-157357143D01*
X110712856Y-157357143D01*
X110569999Y-157285714D01*
X109855713Y-156928571D02*
X109855713Y-157928571D01*
X109855713Y-157071429D02*
X109784285Y-157000000D01*
X109641427Y-156928571D01*
X109427142Y-156928571D01*
X109284285Y-157000000D01*
X109212856Y-157142857D01*
X109212856Y-157928571D01*
X108498570Y-157928571D02*
X108498570Y-156428571D01*
X108355713Y-157357143D02*
X107927142Y-157928571D01*
X107927142Y-156928571D02*
X108498570Y-157500000D01*
X106284284Y-156928571D02*
X105927141Y-157928571D01*
X105569999Y-156928571D01*
X104355713Y-157928571D02*
X104355713Y-157142857D01*
X104427142Y-157000000D01*
X104569999Y-156928571D01*
X104855713Y-156928571D01*
X104998570Y-157000000D01*
X104355713Y-157857143D02*
X104498570Y-157928571D01*
X104855713Y-157928571D01*
X104998570Y-157857143D01*
X105069999Y-157714286D01*
X105069999Y-157571429D01*
X104998570Y-157428571D01*
X104855713Y-157357143D01*
X104498570Y-157357143D01*
X104355713Y-157285714D01*
X103641427Y-156928571D02*
X103641427Y-157928571D01*
X103641427Y-157071429D02*
X103569999Y-157000000D01*
X103427141Y-156928571D01*
X103212856Y-156928571D01*
X103069999Y-157000000D01*
X102998570Y-157142857D01*
X102998570Y-157928571D01*
X101355713Y-156428571D02*
X100855713Y-157928571D01*
X100355713Y-156428571D01*
X99284285Y-157857143D02*
X99427142Y-157928571D01*
X99712856Y-157928571D01*
X99855713Y-157857143D01*
X99927142Y-157714286D01*
X99927142Y-157142857D01*
X99855713Y-157000000D01*
X99712856Y-156928571D01*
X99427142Y-156928571D01*
X99284285Y-157000000D01*
X99212856Y-157142857D01*
X99212856Y-157285714D01*
X99927142Y-157428571D01*
X97998571Y-157857143D02*
X98141428Y-157928571D01*
X98427142Y-157928571D01*
X98569999Y-157857143D01*
X98641428Y-157714286D01*
X98641428Y-157142857D01*
X98569999Y-157000000D01*
X98427142Y-156928571D01*
X98141428Y-156928571D01*
X97998571Y-157000000D01*
X97927142Y-157142857D01*
X97927142Y-157285714D01*
X98641428Y-157428571D01*
X97069999Y-157928571D02*
X97212857Y-157857143D01*
X97284285Y-157714286D01*
X97284285Y-156428571D01*
X95927143Y-157857143D02*
X96070000Y-157928571D01*
X96355714Y-157928571D01*
X96498571Y-157857143D01*
X96570000Y-157714286D01*
X96570000Y-157142857D01*
X96498571Y-157000000D01*
X96355714Y-156928571D01*
X96070000Y-156928571D01*
X95927143Y-157000000D01*
X95855714Y-157142857D01*
X95855714Y-157285714D01*
X96570000Y-157428571D01*
X95212857Y-156928571D02*
X95212857Y-157928571D01*
X95212857Y-157071429D02*
X95141429Y-157000000D01*
X94998571Y-156928571D01*
X94784286Y-156928571D01*
X94641429Y-157000000D01*
X94570000Y-157142857D01*
X94570000Y-157928571D01*
X92712857Y-157357143D02*
X91570000Y-157357143D01*
X89927143Y-156428571D02*
X89070000Y-156428571D01*
X89498571Y-157928571D02*
X89498571Y-156428571D01*
X88570000Y-157928571D02*
X88570000Y-156428571D01*
X87927143Y-157928571D02*
X87927143Y-157142857D01*
X87998572Y-157000000D01*
X88141429Y-156928571D01*
X88355714Y-156928571D01*
X88498572Y-157000000D01*
X88570000Y-157071429D01*
X87212857Y-157928571D02*
X87212857Y-156928571D01*
X87212857Y-156428571D02*
X87284286Y-156500000D01*
X87212857Y-156571429D01*
X87141429Y-156500000D01*
X87212857Y-156428571D01*
X87212857Y-156571429D01*
X85927143Y-157857143D02*
X86070000Y-157928571D01*
X86355714Y-157928571D01*
X86498571Y-157857143D01*
X86570000Y-157714286D01*
X86570000Y-157142857D01*
X86498571Y-157000000D01*
X86355714Y-156928571D01*
X86070000Y-156928571D01*
X85927143Y-157000000D01*
X85855714Y-157142857D01*
X85855714Y-157285714D01*
X86570000Y-157428571D01*
X85284286Y-157857143D02*
X85141429Y-157928571D01*
X84855714Y-157928571D01*
X84712857Y-157857143D01*
X84641429Y-157714286D01*
X84641429Y-157642857D01*
X84712857Y-157500000D01*
X84855714Y-157428571D01*
X85070000Y-157428571D01*
X85212857Y-157357143D01*
X85284286Y-157214286D01*
X85284286Y-157142857D01*
X85212857Y-157000000D01*
X85070000Y-156928571D01*
X84855714Y-156928571D01*
X84712857Y-157000000D01*
X82212857Y-157928571D02*
X82212857Y-156428571D01*
X82212857Y-157857143D02*
X82355714Y-157928571D01*
X82641428Y-157928571D01*
X82784286Y-157857143D01*
X82855714Y-157785714D01*
X82927143Y-157642857D01*
X82927143Y-157214286D01*
X82855714Y-157071429D01*
X82784286Y-157000000D01*
X82641428Y-156928571D01*
X82355714Y-156928571D01*
X82212857Y-157000000D01*
X80927143Y-157857143D02*
X81070000Y-157928571D01*
X81355714Y-157928571D01*
X81498571Y-157857143D01*
X81570000Y-157714286D01*
X81570000Y-157142857D01*
X81498571Y-157000000D01*
X81355714Y-156928571D01*
X81070000Y-156928571D01*
X80927143Y-157000000D01*
X80855714Y-157142857D01*
X80855714Y-157285714D01*
X81570000Y-157428571D01*
X78570000Y-157142857D02*
X78355714Y-157214286D01*
X78284286Y-157285714D01*
X78212857Y-157428571D01*
X78212857Y-157642857D01*
X78284286Y-157785714D01*
X78355714Y-157857143D01*
X78498572Y-157928571D01*
X79070000Y-157928571D01*
X79070000Y-156428571D01*
X78570000Y-156428571D01*
X78427143Y-156500000D01*
X78355714Y-156571429D01*
X78284286Y-156714286D01*
X78284286Y-156857143D01*
X78355714Y-157000000D01*
X78427143Y-157071429D01*
X78570000Y-157142857D01*
X79070000Y-157142857D01*
X77355714Y-157928571D02*
X77498572Y-157857143D01*
X77570000Y-157785714D01*
X77641429Y-157642857D01*
X77641429Y-157214286D01*
X77570000Y-157071429D01*
X77498572Y-157000000D01*
X77355714Y-156928571D01*
X77141429Y-156928571D01*
X76998572Y-157000000D01*
X76927143Y-157071429D01*
X76855714Y-157214286D01*
X76855714Y-157642857D01*
X76927143Y-157785714D01*
X76998572Y-157857143D01*
X77141429Y-157928571D01*
X77355714Y-157928571D01*
X75641429Y-157857143D02*
X75784286Y-157928571D01*
X76070000Y-157928571D01*
X76212857Y-157857143D01*
X76284286Y-157714286D01*
X76284286Y-157142857D01*
X76212857Y-157000000D01*
X76070000Y-156928571D01*
X75784286Y-156928571D01*
X75641429Y-157000000D01*
X75570000Y-157142857D01*
X75570000Y-157285714D01*
X76284286Y-157428571D01*
X74927143Y-157928571D02*
X74927143Y-156928571D01*
X74927143Y-157214286D02*
X74855715Y-157071429D01*
X74784286Y-157000000D01*
X74641429Y-156928571D01*
X74498572Y-156928571D01*
X72855715Y-157357143D02*
X71712858Y-157357143D01*
X69855715Y-157928571D02*
X69855715Y-156428571D01*
X68998572Y-157928571D01*
X68998572Y-156428571D01*
X68284286Y-157928571D02*
X68284286Y-156928571D01*
X68284286Y-156428571D02*
X68355715Y-156500000D01*
X68284286Y-156571429D01*
X68212858Y-156500000D01*
X68284286Y-156428571D01*
X68284286Y-156571429D01*
X66998572Y-157857143D02*
X67141429Y-157928571D01*
X67427143Y-157928571D01*
X67570000Y-157857143D01*
X67641429Y-157714286D01*
X67641429Y-157142857D01*
X67570000Y-157000000D01*
X67427143Y-156928571D01*
X67141429Y-156928571D01*
X66998572Y-157000000D01*
X66927143Y-157142857D01*
X66927143Y-157285714D01*
X67641429Y-157428571D01*
X66070000Y-157928571D02*
X66212858Y-157857143D01*
X66284286Y-157714286D01*
X66284286Y-156428571D01*
X65570001Y-157857143D02*
X65427144Y-157928571D01*
X65141429Y-157928571D01*
X64998572Y-157857143D01*
X64927144Y-157714286D01*
X64927144Y-157642857D01*
X64998572Y-157500000D01*
X65141429Y-157428571D01*
X65355715Y-157428571D01*
X65498572Y-157357143D01*
X65570001Y-157214286D01*
X65570001Y-157142857D01*
X65498572Y-157000000D01*
X65355715Y-156928571D01*
X65141429Y-156928571D01*
X64998572Y-157000000D01*
X62641429Y-157142857D02*
X63141429Y-157142857D01*
X63141429Y-157928571D02*
X63141429Y-156428571D01*
X62427143Y-156428571D01*
X61212858Y-157928571D02*
X61212858Y-157142857D01*
X61284287Y-157000000D01*
X61427144Y-156928571D01*
X61712858Y-156928571D01*
X61855715Y-157000000D01*
X61212858Y-157857143D02*
X61355715Y-157928571D01*
X61712858Y-157928571D01*
X61855715Y-157857143D01*
X61927144Y-157714286D01*
X61927144Y-157571429D01*
X61855715Y-157428571D01*
X61712858Y-157357143D01*
X61355715Y-157357143D01*
X61212858Y-157285714D01*
X60498572Y-157928571D02*
X60498572Y-156428571D01*
X60355715Y-157357143D02*
X59927144Y-157928571D01*
X59927144Y-156928571D02*
X60498572Y-157500000D01*
X59284286Y-157928571D02*
X59284286Y-156428571D01*
X59141429Y-157357143D02*
X58712858Y-157928571D01*
X58712858Y-156928571D02*
X59284286Y-157500000D01*
X57498572Y-157857143D02*
X57641429Y-157928571D01*
X57927143Y-157928571D01*
X58070000Y-157857143D01*
X58141429Y-157714286D01*
X58141429Y-157142857D01*
X58070000Y-157000000D01*
X57927143Y-156928571D01*
X57641429Y-156928571D01*
X57498572Y-157000000D01*
X57427143Y-157142857D01*
X57427143Y-157285714D01*
X58141429Y-157428571D01*
X56570000Y-157928571D02*
X56712858Y-157857143D01*
X56784286Y-157714286D01*
X56784286Y-156428571D01*
X99891426Y-160478571D02*
X99891426Y-158978571D01*
X99319998Y-158978571D01*
X99177140Y-159050000D01*
X99105712Y-159121429D01*
X99034283Y-159264286D01*
X99034283Y-159478571D01*
X99105712Y-159621429D01*
X99177140Y-159692857D01*
X99319998Y-159764286D01*
X99891426Y-159764286D01*
X98391426Y-160478571D02*
X98391426Y-158978571D01*
X97891426Y-160050000D01*
X97391426Y-158978571D01*
X97391426Y-160478571D01*
X96748569Y-160407143D02*
X96534283Y-160478571D01*
X96177140Y-160478571D01*
X96034283Y-160407143D01*
X95962854Y-160335714D01*
X95891426Y-160192857D01*
X95891426Y-160050000D01*
X95962854Y-159907143D01*
X96034283Y-159835714D01*
X96177140Y-159764286D01*
X96462854Y-159692857D01*
X96605712Y-159621429D01*
X96677140Y-159550000D01*
X96748569Y-159407143D01*
X96748569Y-159264286D01*
X96677140Y-159121429D01*
X96605712Y-159050000D01*
X96462854Y-158978571D01*
X96105712Y-158978571D01*
X95891426Y-159050000D01*
X94319998Y-158978571D02*
X93819998Y-160478571D01*
X93319998Y-158978571D01*
X92248570Y-160407143D02*
X92391427Y-160478571D01*
X92677141Y-160478571D01*
X92819998Y-160407143D01*
X92891427Y-160264286D01*
X92891427Y-159692857D01*
X92819998Y-159550000D01*
X92677141Y-159478571D01*
X92391427Y-159478571D01*
X92248570Y-159550000D01*
X92177141Y-159692857D01*
X92177141Y-159835714D01*
X92891427Y-159978571D01*
X91534284Y-160478571D02*
X91534284Y-159478571D01*
X91534284Y-159764286D02*
X91462856Y-159621429D01*
X91391427Y-159550000D01*
X91248570Y-159478571D01*
X91105713Y-159478571D01*
X90677142Y-160407143D02*
X90534285Y-160478571D01*
X90248570Y-160478571D01*
X90105713Y-160407143D01*
X90034285Y-160264286D01*
X90034285Y-160192857D01*
X90105713Y-160050000D01*
X90248570Y-159978571D01*
X90462856Y-159978571D01*
X90605713Y-159907143D01*
X90677142Y-159764286D01*
X90677142Y-159692857D01*
X90605713Y-159550000D01*
X90462856Y-159478571D01*
X90248570Y-159478571D01*
X90105713Y-159550000D01*
X89391427Y-160478571D02*
X89391427Y-159478571D01*
X89391427Y-158978571D02*
X89462856Y-159050000D01*
X89391427Y-159121429D01*
X89319999Y-159050000D01*
X89391427Y-158978571D01*
X89391427Y-159121429D01*
X88105713Y-160407143D02*
X88248570Y-160478571D01*
X88534284Y-160478571D01*
X88677141Y-160407143D01*
X88748570Y-160264286D01*
X88748570Y-159692857D01*
X88677141Y-159550000D01*
X88534284Y-159478571D01*
X88248570Y-159478571D01*
X88105713Y-159550000D01*
X88034284Y-159692857D01*
X88034284Y-159835714D01*
X88748570Y-159978571D01*
X85462856Y-160478571D02*
X86319999Y-160478571D01*
X85891427Y-160478571D02*
X85891427Y-158978571D01*
X86034284Y-159192857D01*
X86177142Y-159335714D01*
X86319999Y-159407143D01*
X83677142Y-159907143D02*
X82534285Y-159907143D01*
X80177142Y-159692857D02*
X79962856Y-159764286D01*
X79891428Y-159835714D01*
X79819999Y-159978571D01*
X79819999Y-160192857D01*
X79891428Y-160335714D01*
X79962856Y-160407143D01*
X80105714Y-160478571D01*
X80677142Y-160478571D01*
X80677142Y-158978571D01*
X80177142Y-158978571D01*
X80034285Y-159050000D01*
X79962856Y-159121429D01*
X79891428Y-159264286D01*
X79891428Y-159407143D01*
X79962856Y-159550000D01*
X80034285Y-159621429D01*
X80177142Y-159692857D01*
X80677142Y-159692857D01*
X79248571Y-160050000D02*
X78534285Y-160050000D01*
X79391428Y-160478571D02*
X78891428Y-158978571D01*
X78391428Y-160478571D01*
X77891428Y-160478571D02*
X77891428Y-158978571D01*
X77320000Y-158978571D01*
X77177142Y-159050000D01*
X77105714Y-159121429D01*
X77034285Y-159264286D01*
X77034285Y-159478571D01*
X77105714Y-159621429D01*
X77177142Y-159692857D01*
X77320000Y-159764286D01*
X77891428Y-159764286D01*
X75320000Y-159121429D02*
X75248571Y-159050000D01*
X75105714Y-158978571D01*
X74748571Y-158978571D01*
X74605714Y-159050000D01*
X74534285Y-159121429D01*
X74462857Y-159264286D01*
X74462857Y-159407143D01*
X74534285Y-159621429D01*
X75391428Y-160478571D01*
X74462857Y-160478571D01*
X73534286Y-158978571D02*
X73391429Y-158978571D01*
X73248572Y-159050000D01*
X73177143Y-159121429D01*
X73105714Y-159264286D01*
X73034286Y-159550000D01*
X73034286Y-159907143D01*
X73105714Y-160192857D01*
X73177143Y-160335714D01*
X73248572Y-160407143D01*
X73391429Y-160478571D01*
X73534286Y-160478571D01*
X73677143Y-160407143D01*
X73748572Y-160335714D01*
X73820000Y-160192857D01*
X73891429Y-159907143D01*
X73891429Y-159550000D01*
X73820000Y-159264286D01*
X73748572Y-159121429D01*
X73677143Y-159050000D01*
X73534286Y-158978571D01*
X71605715Y-160478571D02*
X72462858Y-160478571D01*
X72034286Y-160478571D02*
X72034286Y-158978571D01*
X72177143Y-159192857D01*
X72320001Y-159335714D01*
X72462858Y-159407143D01*
X70748572Y-159621429D02*
X70891430Y-159550000D01*
X70962858Y-159478571D01*
X71034287Y-159335714D01*
X71034287Y-159264286D01*
X70962858Y-159121429D01*
X70891430Y-159050000D01*
X70748572Y-158978571D01*
X70462858Y-158978571D01*
X70320001Y-159050000D01*
X70248572Y-159121429D01*
X70177144Y-159264286D01*
X70177144Y-159335714D01*
X70248572Y-159478571D01*
X70320001Y-159550000D01*
X70462858Y-159621429D01*
X70748572Y-159621429D01*
X70891430Y-159692857D01*
X70962858Y-159764286D01*
X71034287Y-159907143D01*
X71034287Y-160192857D01*
X70962858Y-160335714D01*
X70891430Y-160407143D01*
X70748572Y-160478571D01*
X70462858Y-160478571D01*
X70320001Y-160407143D01*
X70248572Y-160335714D01*
X70177144Y-160192857D01*
X70177144Y-159907143D01*
X70248572Y-159764286D01*
X70320001Y-159692857D01*
X70462858Y-159621429D01*
D12*
X25000000Y-164000000D02*
X25000000Y-123000000D01*
X158000000Y-164000000D02*
X25000000Y-164000000D01*
X158000000Y-123000000D02*
X158000000Y-164000000D01*
X25000000Y-123000000D02*
X158000000Y-123000000D01*
D13*
X35060000Y-136460000D02*
X34360000Y-136460000D01*
X34360000Y-137660000D02*
X35060000Y-137660000D01*
X119750000Y-149810000D02*
X119250000Y-149810000D01*
X119250000Y-150610000D02*
X119750000Y-150610000D01*
X110330000Y-136300000D02*
X110330000Y-135300000D01*
X112030000Y-135300000D02*
X112030000Y-136300000D01*
X112130000Y-136300000D02*
X112130000Y-135300000D01*
X113830000Y-135300000D02*
X113830000Y-136300000D01*
X147140000Y-142810000D02*
X147140000Y-142310000D01*
X146340000Y-142310000D02*
X146340000Y-142810000D01*
D12*
X118285000Y-144825000D02*
X118510000Y-144825000D01*
X118285000Y-148175000D02*
X118585000Y-148175000D01*
X121635000Y-148175000D02*
X121335000Y-148175000D01*
X121635000Y-144825000D02*
X121335000Y-144825000D01*
X118285000Y-144825000D02*
X118285000Y-148175000D01*
X121635000Y-144825000D02*
X121635000Y-148175000D01*
X118510000Y-144825000D02*
X118510000Y-143600000D01*
X120905000Y-131725000D02*
X121130000Y-131725000D01*
X120905000Y-135075000D02*
X121205000Y-135075000D01*
X124255000Y-135075000D02*
X123955000Y-135075000D01*
X124255000Y-131725000D02*
X123955000Y-131725000D01*
X120905000Y-131725000D02*
X120905000Y-135075000D01*
X124255000Y-131725000D02*
X124255000Y-135075000D01*
X121130000Y-131725000D02*
X121130000Y-130500000D01*
X131195000Y-133135000D02*
X131420000Y-133135000D01*
X131195000Y-136485000D02*
X131495000Y-136485000D01*
X134545000Y-136485000D02*
X134245000Y-136485000D01*
X134545000Y-133135000D02*
X134245000Y-133135000D01*
X131195000Y-133135000D02*
X131195000Y-136485000D01*
X134545000Y-133135000D02*
X134545000Y-136485000D01*
X131420000Y-133135000D02*
X131420000Y-131910000D01*
D13*
X116890000Y-151190000D02*
X116890000Y-150950000D01*
X117770000Y-150950000D02*
X117770000Y-151190000D01*
X120890000Y-151410000D02*
X120890000Y-151170000D01*
X121770000Y-151170000D02*
X121770000Y-151410000D01*
X118450000Y-134600000D02*
X118450000Y-136600000D01*
X120590000Y-136600000D02*
X120590000Y-134600000D01*
X116190000Y-134600000D02*
X116190000Y-136600000D01*
X118330000Y-136600000D02*
X118330000Y-134600000D01*
X116080000Y-136330000D02*
X116080000Y-134330000D01*
X113940000Y-134330000D02*
X113940000Y-136330000D01*
X147220000Y-143500000D02*
X147220000Y-143740000D01*
X146340000Y-143740000D02*
X146340000Y-143500000D01*
X147470000Y-140100000D02*
X147470000Y-139860000D01*
X148350000Y-139860000D02*
X148350000Y-140100000D01*
D12*
X147385000Y-140675000D02*
X147160000Y-140675000D01*
X147385000Y-137325000D02*
X147085000Y-137325000D01*
X144035000Y-137325000D02*
X144335000Y-137325000D01*
X144035000Y-140675000D02*
X144335000Y-140675000D01*
X147385000Y-140675000D02*
X147385000Y-137325000D01*
X144035000Y-140675000D02*
X144035000Y-137325000D01*
X147160000Y-140675000D02*
X147160000Y-141900000D01*
D13*
X119630000Y-129060000D02*
X119630000Y-130760000D01*
X119630000Y-130760000D02*
X117080000Y-130760000D01*
X119630000Y-129060000D02*
X117080000Y-129060000D01*
X151170000Y-130450000D02*
X151170000Y-128750000D01*
X151170000Y-128750000D02*
X153720000Y-128750000D01*
X151170000Y-130450000D02*
X153720000Y-130450000D01*
X128680000Y-130570000D02*
X128680000Y-128870000D01*
X128680000Y-128870000D02*
X131230000Y-128870000D01*
X128680000Y-130570000D02*
X131230000Y-130570000D01*
X122280000Y-156060000D02*
X122280000Y-157760000D01*
X122280000Y-157760000D02*
X119730000Y-157760000D01*
X122280000Y-156060000D02*
X119730000Y-156060000D01*
D14*
X35031428Y-138738571D02*
X35055238Y-138762381D01*
X35126666Y-138786190D01*
X35174285Y-138786190D01*
X35245714Y-138762381D01*
X35293333Y-138714762D01*
X35317142Y-138667143D01*
X35340952Y-138571905D01*
X35340952Y-138500476D01*
X35317142Y-138405238D01*
X35293333Y-138357619D01*
X35245714Y-138310000D01*
X35174285Y-138286190D01*
X35126666Y-138286190D01*
X35055238Y-138310000D01*
X35031428Y-138333810D01*
X34602857Y-138286190D02*
X34698095Y-138286190D01*
X34745714Y-138310000D01*
X34769523Y-138333810D01*
X34817142Y-138405238D01*
X34840952Y-138500476D01*
X34840952Y-138690952D01*
X34817142Y-138738571D01*
X34793333Y-138762381D01*
X34745714Y-138786190D01*
X34650476Y-138786190D01*
X34602857Y-138762381D01*
X34579047Y-138738571D01*
X34555238Y-138690952D01*
X34555238Y-138571905D01*
X34579047Y-138524286D01*
X34602857Y-138500476D01*
X34650476Y-138476667D01*
X34745714Y-138476667D01*
X34793333Y-138500476D01*
X34817142Y-138524286D01*
X34840952Y-138571905D01*
X34364762Y-138333810D02*
X34340952Y-138310000D01*
X34293333Y-138286190D01*
X34174286Y-138286190D01*
X34126667Y-138310000D01*
X34102857Y-138333810D01*
X34079048Y-138381429D01*
X34079048Y-138429048D01*
X34102857Y-138500476D01*
X34388571Y-138786190D01*
X34079048Y-138786190D01*
X119821428Y-151658571D02*
X119845238Y-151682381D01*
X119916666Y-151706190D01*
X119964285Y-151706190D01*
X120035714Y-151682381D01*
X120083333Y-151634762D01*
X120107142Y-151587143D01*
X120130952Y-151491905D01*
X120130952Y-151420476D01*
X120107142Y-151325238D01*
X120083333Y-151277619D01*
X120035714Y-151230000D01*
X119964285Y-151206190D01*
X119916666Y-151206190D01*
X119845238Y-151230000D01*
X119821428Y-151253810D01*
X119630952Y-151253810D02*
X119607142Y-151230000D01*
X119559523Y-151206190D01*
X119440476Y-151206190D01*
X119392857Y-151230000D01*
X119369047Y-151253810D01*
X119345238Y-151301429D01*
X119345238Y-151349048D01*
X119369047Y-151420476D01*
X119654761Y-151706190D01*
X119345238Y-151706190D01*
X118916667Y-151372857D02*
X118916667Y-151706190D01*
X119035714Y-151182381D02*
X119154762Y-151539524D01*
X118845238Y-151539524D01*
X109858571Y-135478572D02*
X109882381Y-135454762D01*
X109906190Y-135383334D01*
X109906190Y-135335715D01*
X109882381Y-135264286D01*
X109834762Y-135216667D01*
X109787143Y-135192858D01*
X109691905Y-135169048D01*
X109620476Y-135169048D01*
X109525238Y-135192858D01*
X109477619Y-135216667D01*
X109430000Y-135264286D01*
X109406190Y-135335715D01*
X109406190Y-135383334D01*
X109430000Y-135454762D01*
X109453810Y-135478572D01*
X109572857Y-135907143D02*
X109906190Y-135907143D01*
X109382381Y-135788096D02*
X109739524Y-135669048D01*
X109739524Y-135978572D01*
X109406190Y-136121429D02*
X109406190Y-136430952D01*
X109596667Y-136264286D01*
X109596667Y-136335714D01*
X109620476Y-136383333D01*
X109644286Y-136407143D01*
X109691905Y-136430952D01*
X109810952Y-136430952D01*
X109858571Y-136407143D01*
X109882381Y-136383333D01*
X109906190Y-136335714D01*
X109906190Y-136192857D01*
X109882381Y-136145238D01*
X109858571Y-136121429D01*
X111658571Y-135478572D02*
X111682381Y-135454762D01*
X111706190Y-135383334D01*
X111706190Y-135335715D01*
X111682381Y-135264286D01*
X111634762Y-135216667D01*
X111587143Y-135192858D01*
X111491905Y-135169048D01*
X111420476Y-135169048D01*
X111325238Y-135192858D01*
X111277619Y-135216667D01*
X111230000Y-135264286D01*
X111206190Y-135335715D01*
X111206190Y-135383334D01*
X111230000Y-135454762D01*
X111253810Y-135478572D01*
X111372857Y-135907143D02*
X111706190Y-135907143D01*
X111182381Y-135788096D02*
X111539524Y-135669048D01*
X111539524Y-135978572D01*
X111206190Y-136407143D02*
X111206190Y-136169048D01*
X111444286Y-136145238D01*
X111420476Y-136169048D01*
X111396667Y-136216667D01*
X111396667Y-136335714D01*
X111420476Y-136383333D01*
X111444286Y-136407143D01*
X111491905Y-136430952D01*
X111610952Y-136430952D01*
X111658571Y-136407143D01*
X111682381Y-136383333D01*
X111706190Y-136335714D01*
X111706190Y-136216667D01*
X111682381Y-136169048D01*
X111658571Y-136145238D01*
X145648571Y-142238572D02*
X145672381Y-142214762D01*
X145696190Y-142143334D01*
X145696190Y-142095715D01*
X145672381Y-142024286D01*
X145624762Y-141976667D01*
X145577143Y-141952858D01*
X145481905Y-141929048D01*
X145410476Y-141929048D01*
X145315238Y-141952858D01*
X145267619Y-141976667D01*
X145220000Y-142024286D01*
X145196190Y-142095715D01*
X145196190Y-142143334D01*
X145220000Y-142214762D01*
X145243810Y-142238572D01*
X145196190Y-142690953D02*
X145196190Y-142452858D01*
X145434286Y-142429048D01*
X145410476Y-142452858D01*
X145386667Y-142500477D01*
X145386667Y-142619524D01*
X145410476Y-142667143D01*
X145434286Y-142690953D01*
X145481905Y-142714762D01*
X145600952Y-142714762D01*
X145648571Y-142690953D01*
X145672381Y-142667143D01*
X145696190Y-142619524D01*
X145696190Y-142500477D01*
X145672381Y-142452858D01*
X145648571Y-142429048D01*
X145362857Y-143143333D02*
X145696190Y-143143333D01*
X145172381Y-143024286D02*
X145529524Y-142905238D01*
X145529524Y-143214762D01*
X117586190Y-145785715D02*
X117086190Y-145785715D01*
X117586190Y-146023810D02*
X117086190Y-146023810D01*
X117586190Y-146309524D01*
X117086190Y-146309524D01*
X117443333Y-146523810D02*
X117443333Y-146761905D01*
X117586190Y-146476191D02*
X117086190Y-146642858D01*
X117586190Y-146809524D01*
X117133810Y-146952381D02*
X117110000Y-146976191D01*
X117086190Y-147023810D01*
X117086190Y-147142857D01*
X117110000Y-147190476D01*
X117133810Y-147214286D01*
X117181429Y-147238095D01*
X117229048Y-147238095D01*
X117300476Y-147214286D01*
X117586190Y-146928572D01*
X117586190Y-147238095D01*
X120206190Y-132685715D02*
X119706190Y-132685715D01*
X120206190Y-132923810D02*
X119706190Y-132923810D01*
X120206190Y-133209524D01*
X119706190Y-133209524D01*
X120063333Y-133423810D02*
X120063333Y-133661905D01*
X120206190Y-133376191D02*
X119706190Y-133542858D01*
X120206190Y-133709524D01*
X119706190Y-133828572D02*
X119706190Y-134138095D01*
X119896667Y-133971429D01*
X119896667Y-134042857D01*
X119920476Y-134090476D01*
X119944286Y-134114286D01*
X119991905Y-134138095D01*
X120110952Y-134138095D01*
X120158571Y-134114286D01*
X120182381Y-134090476D01*
X120206190Y-134042857D01*
X120206190Y-133900000D01*
X120182381Y-133852381D01*
X120158571Y-133828572D01*
X130496190Y-134095715D02*
X129996190Y-134095715D01*
X130496190Y-134333810D02*
X129996190Y-134333810D01*
X130496190Y-134619524D01*
X129996190Y-134619524D01*
X130353333Y-134833810D02*
X130353333Y-135071905D01*
X130496190Y-134786191D02*
X129996190Y-134952858D01*
X130496190Y-135119524D01*
X130162857Y-135500476D02*
X130496190Y-135500476D01*
X129972381Y-135381429D02*
X130329524Y-135262381D01*
X130329524Y-135571905D01*
X116306190Y-150748572D02*
X116068095Y-150581905D01*
X116306190Y-150462858D02*
X115806190Y-150462858D01*
X115806190Y-150653334D01*
X115830000Y-150700953D01*
X115853810Y-150724762D01*
X115901429Y-150748572D01*
X115972857Y-150748572D01*
X116020476Y-150724762D01*
X116044286Y-150700953D01*
X116068095Y-150653334D01*
X116068095Y-150462858D01*
X116306190Y-151224762D02*
X116306190Y-150939048D01*
X116306190Y-151081905D02*
X115806190Y-151081905D01*
X115877619Y-151034286D01*
X115925238Y-150986667D01*
X115949048Y-150939048D01*
X116020476Y-151510476D02*
X115996667Y-151462857D01*
X115972857Y-151439048D01*
X115925238Y-151415238D01*
X115901429Y-151415238D01*
X115853810Y-151439048D01*
X115830000Y-151462857D01*
X115806190Y-151510476D01*
X115806190Y-151605714D01*
X115830000Y-151653333D01*
X115853810Y-151677143D01*
X115901429Y-151700952D01*
X115925238Y-151700952D01*
X115972857Y-151677143D01*
X115996667Y-151653333D01*
X116020476Y-151605714D01*
X116020476Y-151510476D01*
X116044286Y-151462857D01*
X116068095Y-151439048D01*
X116115714Y-151415238D01*
X116210952Y-151415238D01*
X116258571Y-151439048D01*
X116282381Y-151462857D01*
X116306190Y-151510476D01*
X116306190Y-151605714D01*
X116282381Y-151653333D01*
X116258571Y-151677143D01*
X116210952Y-151700952D01*
X116115714Y-151700952D01*
X116068095Y-151677143D01*
X116044286Y-151653333D01*
X116020476Y-151605714D01*
X120306190Y-150968572D02*
X120068095Y-150801905D01*
X120306190Y-150682858D02*
X119806190Y-150682858D01*
X119806190Y-150873334D01*
X119830000Y-150920953D01*
X119853810Y-150944762D01*
X119901429Y-150968572D01*
X119972857Y-150968572D01*
X120020476Y-150944762D01*
X120044286Y-150920953D01*
X120068095Y-150873334D01*
X120068095Y-150682858D01*
X119853810Y-151159048D02*
X119830000Y-151182858D01*
X119806190Y-151230477D01*
X119806190Y-151349524D01*
X119830000Y-151397143D01*
X119853810Y-151420953D01*
X119901429Y-151444762D01*
X119949048Y-151444762D01*
X120020476Y-151420953D01*
X120306190Y-151135239D01*
X120306190Y-151444762D01*
X119806190Y-151754286D02*
X119806190Y-151801905D01*
X119830000Y-151849524D01*
X119853810Y-151873333D01*
X119901429Y-151897143D01*
X119996667Y-151920952D01*
X120115714Y-151920952D01*
X120210952Y-151897143D01*
X120258571Y-151873333D01*
X120282381Y-151849524D01*
X120306190Y-151801905D01*
X120306190Y-151754286D01*
X120282381Y-151706667D01*
X120258571Y-151682857D01*
X120210952Y-151659048D01*
X120115714Y-151635238D01*
X119996667Y-151635238D01*
X119901429Y-151659048D01*
X119853810Y-151682857D01*
X119830000Y-151706667D01*
X119806190Y-151754286D01*
X121596190Y-135278572D02*
X121358095Y-135111905D01*
X121596190Y-134992858D02*
X121096190Y-134992858D01*
X121096190Y-135183334D01*
X121120000Y-135230953D01*
X121143810Y-135254762D01*
X121191429Y-135278572D01*
X121262857Y-135278572D01*
X121310476Y-135254762D01*
X121334286Y-135230953D01*
X121358095Y-135183334D01*
X121358095Y-134992858D01*
X121096190Y-135445239D02*
X121096190Y-135754762D01*
X121286667Y-135588096D01*
X121286667Y-135659524D01*
X121310476Y-135707143D01*
X121334286Y-135730953D01*
X121381905Y-135754762D01*
X121500952Y-135754762D01*
X121548571Y-135730953D01*
X121572381Y-135707143D01*
X121596190Y-135659524D01*
X121596190Y-135516667D01*
X121572381Y-135469048D01*
X121548571Y-135445239D01*
X121143810Y-135945238D02*
X121120000Y-135969048D01*
X121096190Y-136016667D01*
X121096190Y-136135714D01*
X121120000Y-136183333D01*
X121143810Y-136207143D01*
X121191429Y-136230952D01*
X121239048Y-136230952D01*
X121310476Y-136207143D01*
X121596190Y-135921429D01*
X121596190Y-136230952D01*
X119336190Y-135278572D02*
X119098095Y-135111905D01*
X119336190Y-134992858D02*
X118836190Y-134992858D01*
X118836190Y-135183334D01*
X118860000Y-135230953D01*
X118883810Y-135254762D01*
X118931429Y-135278572D01*
X119002857Y-135278572D01*
X119050476Y-135254762D01*
X119074286Y-135230953D01*
X119098095Y-135183334D01*
X119098095Y-134992858D01*
X118836190Y-135445239D02*
X118836190Y-135754762D01*
X119026667Y-135588096D01*
X119026667Y-135659524D01*
X119050476Y-135707143D01*
X119074286Y-135730953D01*
X119121905Y-135754762D01*
X119240952Y-135754762D01*
X119288571Y-135730953D01*
X119312381Y-135707143D01*
X119336190Y-135659524D01*
X119336190Y-135516667D01*
X119312381Y-135469048D01*
X119288571Y-135445239D01*
X118836190Y-135921429D02*
X118836190Y-136230952D01*
X119026667Y-136064286D01*
X119026667Y-136135714D01*
X119050476Y-136183333D01*
X119074286Y-136207143D01*
X119121905Y-136230952D01*
X119240952Y-136230952D01*
X119288571Y-136207143D01*
X119312381Y-136183333D01*
X119336190Y-136135714D01*
X119336190Y-135992857D01*
X119312381Y-135945238D01*
X119288571Y-135921429D01*
X113386190Y-135008572D02*
X113148095Y-134841905D01*
X113386190Y-134722858D02*
X112886190Y-134722858D01*
X112886190Y-134913334D01*
X112910000Y-134960953D01*
X112933810Y-134984762D01*
X112981429Y-135008572D01*
X113052857Y-135008572D01*
X113100476Y-134984762D01*
X113124286Y-134960953D01*
X113148095Y-134913334D01*
X113148095Y-134722858D01*
X112886190Y-135175239D02*
X112886190Y-135484762D01*
X113076667Y-135318096D01*
X113076667Y-135389524D01*
X113100476Y-135437143D01*
X113124286Y-135460953D01*
X113171905Y-135484762D01*
X113290952Y-135484762D01*
X113338571Y-135460953D01*
X113362381Y-135437143D01*
X113386190Y-135389524D01*
X113386190Y-135246667D01*
X113362381Y-135199048D01*
X113338571Y-135175239D01*
X113052857Y-135913333D02*
X113386190Y-135913333D01*
X112862381Y-135794286D02*
X113219524Y-135675238D01*
X113219524Y-135984762D01*
X148256190Y-143298572D02*
X148018095Y-143131905D01*
X148256190Y-143012858D02*
X147756190Y-143012858D01*
X147756190Y-143203334D01*
X147780000Y-143250953D01*
X147803810Y-143274762D01*
X147851429Y-143298572D01*
X147922857Y-143298572D01*
X147970476Y-143274762D01*
X147994286Y-143250953D01*
X148018095Y-143203334D01*
X148018095Y-143012858D01*
X147756190Y-143465239D02*
X147756190Y-143774762D01*
X147946667Y-143608096D01*
X147946667Y-143679524D01*
X147970476Y-143727143D01*
X147994286Y-143750953D01*
X148041905Y-143774762D01*
X148160952Y-143774762D01*
X148208571Y-143750953D01*
X148232381Y-143727143D01*
X148256190Y-143679524D01*
X148256190Y-143536667D01*
X148232381Y-143489048D01*
X148208571Y-143465239D01*
X147756190Y-144203333D02*
X147756190Y-144108095D01*
X147780000Y-144060476D01*
X147803810Y-144036667D01*
X147875238Y-143989048D01*
X147970476Y-143965238D01*
X148160952Y-143965238D01*
X148208571Y-143989048D01*
X148232381Y-144012857D01*
X148256190Y-144060476D01*
X148256190Y-144155714D01*
X148232381Y-144203333D01*
X148208571Y-144227143D01*
X148160952Y-144250952D01*
X148041905Y-144250952D01*
X147994286Y-144227143D01*
X147970476Y-144203333D01*
X147946667Y-144155714D01*
X147946667Y-144060476D01*
X147970476Y-144012857D01*
X147994286Y-143989048D01*
X148041905Y-143965238D01*
X146886190Y-139658572D02*
X146648095Y-139491905D01*
X146886190Y-139372858D02*
X146386190Y-139372858D01*
X146386190Y-139563334D01*
X146410000Y-139610953D01*
X146433810Y-139634762D01*
X146481429Y-139658572D01*
X146552857Y-139658572D01*
X146600476Y-139634762D01*
X146624286Y-139610953D01*
X146648095Y-139563334D01*
X146648095Y-139372858D01*
X146386190Y-139825239D02*
X146386190Y-140134762D01*
X146576667Y-139968096D01*
X146576667Y-140039524D01*
X146600476Y-140087143D01*
X146624286Y-140110953D01*
X146671905Y-140134762D01*
X146790952Y-140134762D01*
X146838571Y-140110953D01*
X146862381Y-140087143D01*
X146886190Y-140039524D01*
X146886190Y-139896667D01*
X146862381Y-139849048D01*
X146838571Y-139825239D01*
X146386190Y-140301429D02*
X146386190Y-140634762D01*
X146886190Y-140420476D01*
X148036190Y-138380953D02*
X148440952Y-138380953D01*
X148488571Y-138404762D01*
X148512381Y-138428572D01*
X148536190Y-138476191D01*
X148536190Y-138571429D01*
X148512381Y-138619048D01*
X148488571Y-138642857D01*
X148440952Y-138666667D01*
X148036190Y-138666667D01*
X148536190Y-139166667D02*
X148536190Y-138880953D01*
X148536190Y-139023810D02*
X148036190Y-139023810D01*
X148107619Y-138976191D01*
X148155238Y-138928572D01*
X148179048Y-138880953D01*
X148536190Y-139642857D02*
X148536190Y-139357143D01*
X148536190Y-139500000D02*
X148036190Y-139500000D01*
X148107619Y-139452381D01*
X148155238Y-139404762D01*
X148179048Y-139357143D01*
X118737142Y-128286190D02*
X118737142Y-127786190D01*
X118618095Y-127786190D01*
X118546666Y-127810000D01*
X118499047Y-127857619D01*
X118475238Y-127905238D01*
X118451428Y-128000476D01*
X118451428Y-128071905D01*
X118475238Y-128167143D01*
X118499047Y-128214762D01*
X118546666Y-128262381D01*
X118618095Y-128286190D01*
X118737142Y-128286190D01*
X117975238Y-128286190D02*
X118260952Y-128286190D01*
X118118095Y-128286190D02*
X118118095Y-127786190D01*
X118165714Y-127857619D01*
X118213333Y-127905238D01*
X118260952Y-127929048D01*
X117689524Y-128000476D02*
X117737143Y-127976667D01*
X117760952Y-127952857D01*
X117784762Y-127905238D01*
X117784762Y-127881429D01*
X117760952Y-127833810D01*
X117737143Y-127810000D01*
X117689524Y-127786190D01*
X117594286Y-127786190D01*
X117546667Y-127810000D01*
X117522857Y-127833810D01*
X117499048Y-127881429D01*
X117499048Y-127905238D01*
X117522857Y-127952857D01*
X117546667Y-127976667D01*
X117594286Y-128000476D01*
X117689524Y-128000476D01*
X117737143Y-128024286D01*
X117760952Y-128048095D01*
X117784762Y-128095714D01*
X117784762Y-128190952D01*
X117760952Y-128238571D01*
X117737143Y-128262381D01*
X117689524Y-128286190D01*
X117594286Y-128286190D01*
X117546667Y-128262381D01*
X117522857Y-128238571D01*
X117499048Y-128190952D01*
X117499048Y-128095714D01*
X117522857Y-128048095D01*
X117546667Y-128024286D01*
X117594286Y-128000476D01*
X153277142Y-131676190D02*
X153277142Y-131176190D01*
X153158095Y-131176190D01*
X153086666Y-131200000D01*
X153039047Y-131247619D01*
X153015238Y-131295238D01*
X152991428Y-131390476D01*
X152991428Y-131461905D01*
X153015238Y-131557143D01*
X153039047Y-131604762D01*
X153086666Y-131652381D01*
X153158095Y-131676190D01*
X153277142Y-131676190D01*
X152515238Y-131676190D02*
X152800952Y-131676190D01*
X152658095Y-131676190D02*
X152658095Y-131176190D01*
X152705714Y-131247619D01*
X152753333Y-131295238D01*
X152800952Y-131319048D01*
X152277143Y-131676190D02*
X152181905Y-131676190D01*
X152134286Y-131652381D01*
X152110476Y-131628571D01*
X152062857Y-131557143D01*
X152039048Y-131461905D01*
X152039048Y-131271429D01*
X152062857Y-131223810D01*
X152086667Y-131200000D01*
X152134286Y-131176190D01*
X152229524Y-131176190D01*
X152277143Y-131200000D01*
X152300952Y-131223810D01*
X152324762Y-131271429D01*
X152324762Y-131390476D01*
X152300952Y-131438095D01*
X152277143Y-131461905D01*
X152229524Y-131485714D01*
X152134286Y-131485714D01*
X152086667Y-131461905D01*
X152062857Y-131438095D01*
X152039048Y-131390476D01*
X130787142Y-131796190D02*
X130787142Y-131296190D01*
X130668095Y-131296190D01*
X130596666Y-131320000D01*
X130549047Y-131367619D01*
X130525238Y-131415238D01*
X130501428Y-131510476D01*
X130501428Y-131581905D01*
X130525238Y-131677143D01*
X130549047Y-131724762D01*
X130596666Y-131772381D01*
X130668095Y-131796190D01*
X130787142Y-131796190D01*
X130310952Y-131343810D02*
X130287142Y-131320000D01*
X130239523Y-131296190D01*
X130120476Y-131296190D01*
X130072857Y-131320000D01*
X130049047Y-131343810D01*
X130025238Y-131391429D01*
X130025238Y-131439048D01*
X130049047Y-131510476D01*
X130334761Y-131796190D01*
X130025238Y-131796190D01*
X129715714Y-131296190D02*
X129668095Y-131296190D01*
X129620476Y-131320000D01*
X129596667Y-131343810D01*
X129572857Y-131391429D01*
X129549048Y-131486667D01*
X129549048Y-131605714D01*
X129572857Y-131700952D01*
X129596667Y-131748571D01*
X129620476Y-131772381D01*
X129668095Y-131796190D01*
X129715714Y-131796190D01*
X129763333Y-131772381D01*
X129787143Y-131748571D01*
X129810952Y-131700952D01*
X129834762Y-131605714D01*
X129834762Y-131486667D01*
X129810952Y-131391429D01*
X129787143Y-131343810D01*
X129763333Y-131320000D01*
X129715714Y-131296190D01*
X121387142Y-155286190D02*
X121387142Y-154786190D01*
X121268095Y-154786190D01*
X121196666Y-154810000D01*
X121149047Y-154857619D01*
X121125238Y-154905238D01*
X121101428Y-155000476D01*
X121101428Y-155071905D01*
X121125238Y-155167143D01*
X121149047Y-155214762D01*
X121196666Y-155262381D01*
X121268095Y-155286190D01*
X121387142Y-155286190D01*
X120910952Y-154833810D02*
X120887142Y-154810000D01*
X120839523Y-154786190D01*
X120720476Y-154786190D01*
X120672857Y-154810000D01*
X120649047Y-154833810D01*
X120625238Y-154881429D01*
X120625238Y-154929048D01*
X120649047Y-155000476D01*
X120934761Y-155286190D01*
X120625238Y-155286190D01*
X120458571Y-154786190D02*
X120149048Y-154786190D01*
X120315714Y-154976667D01*
X120244286Y-154976667D01*
X120196667Y-155000476D01*
X120172857Y-155024286D01*
X120149048Y-155071905D01*
X120149048Y-155190952D01*
X120172857Y-155238571D01*
X120196667Y-155262381D01*
X120244286Y-155286190D01*
X120387143Y-155286190D01*
X120434762Y-155262381D01*
X120458571Y-155238571D01*
M02*
