M48
;DRILL file {KiCad 4.0.7} date 06/14/18 16:54:48
;FORMAT={-:-/ absolute / metric / decimal}
FMAT,2
METRIC,TZ
T1C0.100
T2C0.200
T3C0.300
T4C0.400
T5C0.650
T6C0.762
T7C0.800
T8C0.838
T9C1.000
T10C1.200
T11C1.300
T12C1.650
T13C3.500
%
G90
G05
M71
T1
X25.65Y-131.58
X51.85Y-162.77
T2
X112.81Y-138.01
T3
X97.595Y-128.835
X97.595Y-129.685
X97.595Y-130.535
X97.595Y-131.385
X98.651Y-128.835
X98.651Y-129.685
X98.651Y-130.535
X98.651Y-131.385
X99.707Y-128.835
X99.707Y-129.685
X99.707Y-130.535
X99.707Y-131.385
X100.764Y-128.835
X100.764Y-129.685
X100.764Y-130.535
X100.764Y-131.385
X101.82Y-128.835
X101.82Y-129.685
X101.82Y-130.535
X101.82Y-131.385
X102.876Y-128.835
X102.876Y-129.685
X102.876Y-130.535
X102.876Y-131.385
X103.932Y-128.835
X103.932Y-129.685
X103.932Y-130.535
X103.932Y-131.385
X104.989Y-128.835
X104.989Y-129.685
X104.989Y-130.535
X104.989Y-131.385
X106.045Y-128.835
X106.045Y-129.685
X106.045Y-130.535
X106.045Y-131.385
T4
X25.83Y-137.45
X25.98Y-132.86
X27.1Y-150.5
X27.13Y-137.13
X27.31Y-135.96
X27.66Y-133.81
X27.98Y-139.44
X28.13Y-138.51
X28.41Y-151.76
X28.77Y-135.34
X28.91Y-134.47
X29.21Y-133.28
X30.17Y-138.38
X30.85Y-134.17
X30.87Y-133.18
X31.09Y-138.1
X31.33Y-137.16
X31.37Y-153.03
X32.23Y-138.81
X32.49Y-132.47
X32.76Y-141.9
X33.Y-133.36
X33.72Y-135.55
X33.82Y-141.94
X33.83Y-140.2
X35.41Y-140.77
X35.42Y-132.9
X36.17Y-133.03
X36.68Y-146.6
X36.89Y-132.95
X37.54Y-149.42
X37.8Y-138.15
X37.85Y-136.07
X38.07Y-135.35
X38.3Y-137.08
X38.34Y-139.1
X38.75Y-146.27
X39.15Y-145.32
X39.88Y-132.24
X40.Y-154.1
X40.3Y-158.2
X40.33Y-162.61
X40.4Y-134.75
X40.61Y-136.01
X41.08Y-155.4
X41.44Y-129.15
X41.54Y-131.45
X41.79Y-137.36
X41.94Y-133.86
X43.48Y-143.63
X43.52Y-144.45
X44.77Y-134.02
X44.85Y-155.54
X45.48Y-146.27
X45.54Y-132.34
X45.9Y-141.17
X46.42Y-133.99
X46.42Y-139.17
X46.78Y-153.15
X47.Y-148.01
X48.49Y-144.44
X49.76Y-132.62
X50.99Y-142.08
X51.5Y-158.13
X53.46Y-144.33
X54.57Y-138.93
X55.314Y-148.66
X55.7Y-146.19
X56.4Y-141.83
X57.46Y-145.63
X57.57Y-138.88
X59.2Y-147.4
X60.1Y-148.11
X61.23Y-147.64
X61.32Y-162.1
X61.93Y-159.85
X62.19Y-142.14
X62.32Y-130.
X62.35Y-129.2
X64.34Y-127.34
X64.9Y-133.21
X65.21Y-137.59
X65.97Y-136.42
X66.01Y-135.53
X66.051Y-134.801
X66.09Y-140.
X66.15Y-126.27
X66.89Y-128.8
X66.92Y-137.61
X67.04Y-125.53
X67.29Y-140.93
X67.73Y-140.16
X68.54Y-130.39
X68.68Y-134.01
X69.34Y-130.38
X69.34Y-140.13
X69.67Y-124.34
X69.85Y-137.01
X70.16Y-129.87
X70.91Y-125.61
X70.95Y-129.88
X71.2Y-140.74
X71.74Y-137.67
X71.774Y-129.88
X72.8Y-123.48
X72.876Y-141.51
X72.92Y-160.59
X73.33Y-128.76
X73.78Y-131.59
X73.788Y-140.13
X74.01Y-147.28
X74.02Y-125.49
X76.4Y-128.7
X76.41Y-129.43
X76.54Y-131.49
X77.66Y-124.48
X81.66Y-124.89
X81.95Y-133.63
X83.1Y-134.21
X84.67Y-141.05
X85.3Y-136.79
X86.657Y-131.533
X87.156Y-132.024
X87.68Y-133.9
X87.77Y-132.36
X90.14Y-137.48
X90.9Y-139.71
X91.01Y-140.5
X91.97Y-129.57
X93.24Y-124.76
X94.6Y-140.89
X94.67Y-142.55
X94.73Y-136.33
X95.63Y-141.14
X95.74Y-155.63
X95.96Y-124.43
X96.16Y-132.1
X96.17Y-130.03
X96.24Y-132.89
X96.75Y-125.33
X97.74Y-134.57
X98.21Y-126.21
X98.6Y-134.52
X99.62Y-126.16
X100.82Y-133.95
X101.83Y-126.14
X102.16Y-133.97
X102.72Y-137.76
X102.8Y-126.03
X102.96Y-133.98
X103.51Y-126.22
X103.86Y-136.35
X104.08Y-133.98
X104.1Y-125.75
X104.47Y-138.69
X104.73Y-126.19
X104.81Y-133.99
X104.82Y-137.29
X106.48Y-124.22
X106.5Y-140.69
X106.82Y-133.06
X108.25Y-156.24
X109.1Y-126.79
X109.68Y-142.68
X110.11Y-135.86
X111.15Y-139.56
X112.09Y-139.53
X113.45Y-130.84
X116.28Y-130.85
X117.33Y-134.45
X118.45Y-142.9
X118.55Y-152.93
X118.62Y-157.05
X118.71Y-130.89
X118.839Y-139.469
X119.005Y-131.525
X119.24Y-140.77
X119.25Y-142.65
X119.76Y-131.9
X120.85Y-134.4
X121.2Y-131.25
X122.19Y-136.79
X122.41Y-148.98
X122.94Y-156.88
X123.02Y-136.64
X123.19Y-147.73
X123.2Y-148.56
X123.23Y-139.53
X123.64Y-133.96
X123.76Y-136.8
X123.975Y-135.79
X124.66Y-138.72
X124.74Y-133.45
X125.52Y-140.47
X126.249Y-131.521
X126.75Y-129.14
X126.76Y-130.69
X126.9Y-151.29
X127.11Y-133.16
X127.67Y-136.78
X127.74Y-138.86
X127.928Y-135.626
X128.05Y-133.1
X128.66Y-140.55
X129.48Y-133.06
X130.07Y-131.8
X130.22Y-135.
X130.88Y-133.09
X130.93Y-128.98
X130.93Y-131.95
X130.96Y-134.01
X131.06Y-136.765
X131.85Y-135.33
X132.72Y-135.37
X133.38Y-133.92
X133.83Y-135.95
X134.11Y-133.86
X134.48Y-137.07
X134.5Y-144.03
X135.32Y-139.31
X136.54Y-151.78
X136.73Y-142.02
X137.06Y-130.85
X137.63Y-149.59
X139.76Y-130.85
X140.12Y-142.45
X140.16Y-143.71
X140.91Y-140.3
X141.58Y-131.91
X142.52Y-131.67
X142.692Y-139.048
X143.06Y-141.16
X143.11Y-140.43
X143.19Y-139.64
X143.25Y-141.86
X143.876Y-143.974
X143.96Y-136.82
X144.05Y-149.06
X145.04Y-144.67
X145.39Y-156.73
X145.92Y-143.94
X146.71Y-138.05
X146.74Y-139.24
X146.78Y-144.56
X147.12Y-130.82
X147.69Y-160.54
X148.69Y-139.78
X152.3Y-129.86
X152.51Y-146.89
X154.Y-130.89
X154.81Y-131.92
X156.02Y-129.6
T5
X59.09Y-124.25
X59.09Y-125.52
X59.09Y-126.79
T6
X84.69Y-126.48
X84.69Y-129.02
X87.23Y-126.48
X87.23Y-129.02
X89.77Y-126.48
X89.77Y-129.02
T7
X34.1Y-127.45
X37.6Y-127.45
X45.2Y-127.45
X48.7Y-127.45
T8
X49.724Y-147.6
X49.724Y-150.14
X49.724Y-152.68
X49.724Y-155.22
X53.915Y-148.87
X53.915Y-151.41
X53.915Y-153.95
T9
X53.15Y-124.87
X53.15Y-127.41
X53.15Y-129.95
X55.69Y-124.87
X55.69Y-127.41
X55.69Y-129.95
T10
X27.Y-159.2
X27.01Y-126.6
X29.55Y-126.6
X30.5Y-159.2
X66.33Y-148.1
X66.33Y-150.64
X114.08Y-126.65
X116.62Y-126.65
X119.16Y-126.65
X121.7Y-126.65
X125.52Y-126.65
X127.33Y-160.35
X128.06Y-126.65
X129.87Y-160.35
X130.6Y-126.65
X132.41Y-160.35
X133.14Y-126.65
X134.95Y-160.35
X136.95Y-126.65
X139.49Y-126.65
X142.03Y-126.65
X144.57Y-126.65
X148.4Y-126.65
X150.94Y-126.65
X153.48Y-126.65
X156.02Y-126.65
T11
X108.49Y-147.11
X108.49Y-162.35
T12
X118.99Y-159.7
X122.95Y-159.7
T13
X29.Y-143.5
X154.01Y-140.81
T0
M30
