G04 #@! TF.FileFunction,Soldermask,Bot*
%FSLAX46Y46*%
G04 Gerber Fmt 4.6, Leading zero omitted, Abs format (unit mm)*
G04 Created by KiCad (PCBNEW 4.0.7) date 06/06/18 14:30:25*
%MOMM*%
%LPD*%
G01*
G04 APERTURE LIST*
%ADD10C,0.100000*%
%ADD11C,0.150000*%
%ADD12R,2.000000X2.000000*%
%ADD13C,2.000000*%
%ADD14R,0.700000X0.750000*%
%ADD15R,1.650000X1.400000*%
%ADD16R,0.750000X0.700000*%
%ADD17R,3.000000X3.000000*%
%ADD18O,3.000000X3.000000*%
%ADD19R,0.700000X1.850000*%
%ADD20C,7.400000*%
%ADD21R,2.100000X2.100000*%
%ADD22O,2.100000X2.100000*%
%ADD23R,1.400000X1.400000*%
%ADD24O,1.400000X1.400000*%
%ADD25R,2.750000X3.400000*%
%ADD26O,2.750000X3.400000*%
%ADD27C,1.670000*%
%ADD28R,1.670000X1.670000*%
%ADD29R,2.400000X3.000000*%
%ADD30O,2.400000X3.000000*%
%ADD31R,0.830000X0.680000*%
%ADD32R,2.100000X1.300000*%
%ADD33R,1.797000X1.797000*%
%ADD34C,1.797000*%
%ADD35R,1.500000X1.290000*%
%ADD36R,3.000000X2.400000*%
%ADD37O,3.000000X2.400000*%
%ADD38C,2.800000*%
%ADD39R,2.800000X2.800000*%
%ADD40R,1.000000X0.850000*%
%ADD41C,1.000000*%
%ADD42C,0.700000*%
%ADD43C,0.600000*%
G04 APERTURE END LIST*
D10*
D11*
X25000000Y-164000000D02*
X25000000Y-123000000D01*
X158000000Y-164000000D02*
X25000000Y-164000000D01*
X158000000Y-123000000D02*
X158000000Y-164000000D01*
X25000000Y-123000000D02*
X158000000Y-123000000D01*
D12*
X45200000Y-127450000D03*
D13*
X48700000Y-127450000D03*
D14*
X119220000Y-150210000D03*
X119780000Y-150210000D03*
D12*
X34100000Y-127450000D03*
D13*
X37600000Y-127450000D03*
D15*
X111180000Y-134800000D03*
X111180000Y-136800000D03*
X112980000Y-134800000D03*
X112980000Y-136800000D03*
D16*
X146740000Y-142280000D03*
X146740000Y-142840000D03*
D17*
X108490000Y-162350000D03*
D18*
X108490000Y-147110000D03*
D19*
X118960000Y-144300000D03*
X119460000Y-144300000D03*
X119960000Y-144300000D03*
X120460000Y-144300000D03*
X120960000Y-144300000D03*
X120960000Y-148700000D03*
X120460000Y-148700000D03*
X119960000Y-148700000D03*
X119460000Y-148700000D03*
X118960000Y-148700000D03*
X121580000Y-131200000D03*
X122080000Y-131200000D03*
X122580000Y-131200000D03*
X123080000Y-131200000D03*
X123580000Y-131200000D03*
X123580000Y-135600000D03*
X123080000Y-135600000D03*
X122580000Y-135600000D03*
X122080000Y-135600000D03*
X121580000Y-135600000D03*
X131870000Y-132610000D03*
X132370000Y-132610000D03*
X132870000Y-132610000D03*
X133370000Y-132610000D03*
X133870000Y-132610000D03*
X133870000Y-137010000D03*
X133370000Y-137010000D03*
X132870000Y-137010000D03*
X132370000Y-137010000D03*
X131870000Y-137010000D03*
D20*
X154010000Y-140810000D03*
D21*
X55690000Y-129950000D03*
D22*
X53150000Y-129950000D03*
X55690000Y-127410000D03*
X53150000Y-127410000D03*
X55690000Y-124870000D03*
X53150000Y-124870000D03*
D23*
X59090000Y-124250000D03*
D24*
X59090000Y-125520000D03*
X59090000Y-126790000D03*
D25*
X122950000Y-159700000D03*
D26*
X118990000Y-159700000D03*
D27*
X84690000Y-126480000D03*
X87230000Y-126480000D03*
X89770000Y-126480000D03*
D28*
X84690000Y-129020000D03*
D27*
X87230000Y-129020000D03*
X89770000Y-129020000D03*
D29*
X125520000Y-126650000D03*
D30*
X128060000Y-126650000D03*
X130600000Y-126650000D03*
X133140000Y-126650000D03*
D29*
X114080000Y-126650000D03*
D30*
X116620000Y-126650000D03*
X119160000Y-126650000D03*
X121700000Y-126650000D03*
D29*
X136950000Y-126650000D03*
D30*
X139490000Y-126650000D03*
X142030000Y-126650000D03*
X144570000Y-126650000D03*
D29*
X148400000Y-126650000D03*
D30*
X150940000Y-126650000D03*
X153480000Y-126650000D03*
X156020000Y-126650000D03*
D31*
X117330000Y-150810000D03*
X117330000Y-151330000D03*
X121330000Y-151030000D03*
X121330000Y-151550000D03*
D32*
X119520000Y-137050000D03*
X119520000Y-134150000D03*
X117260000Y-137050000D03*
X117260000Y-134150000D03*
X115010000Y-133880000D03*
X115010000Y-136780000D03*
D31*
X146780000Y-143880000D03*
X146780000Y-143360000D03*
X147910000Y-139720000D03*
X147910000Y-140240000D03*
D33*
X49724000Y-155220000D03*
D34*
X53915000Y-153950000D03*
X49724000Y-152680000D03*
X53915000Y-151410000D03*
X49724000Y-150140000D03*
X53915000Y-148870000D03*
X49724000Y-147600000D03*
D35*
X106045000Y-131385000D03*
X106045000Y-130535000D03*
X106045000Y-128835000D03*
X106045000Y-129685000D03*
X104988750Y-129685000D03*
X104988750Y-128835000D03*
X104988750Y-130535000D03*
X104988750Y-131385000D03*
X103932500Y-131385000D03*
X103932500Y-130535000D03*
X103932500Y-128835000D03*
X103932500Y-129685000D03*
X102876250Y-129685000D03*
X102876250Y-128835000D03*
X102876250Y-130535000D03*
X102876250Y-131385000D03*
X101820000Y-131385000D03*
X101820000Y-130535000D03*
X101820000Y-128835000D03*
X101820000Y-129685000D03*
X100763750Y-129685000D03*
X100763750Y-128835000D03*
X100763750Y-130535000D03*
X100763750Y-131385000D03*
X99707500Y-131385000D03*
X99707500Y-130535000D03*
X99707500Y-128835000D03*
X99707500Y-129685000D03*
X98651250Y-129685000D03*
X98651250Y-128835000D03*
X98651250Y-130535000D03*
X98651250Y-131385000D03*
X97595000Y-131385000D03*
X97595000Y-130535000D03*
X97595000Y-128835000D03*
X97595000Y-129685000D03*
D19*
X146710000Y-141200000D03*
X146210000Y-141200000D03*
X145710000Y-141200000D03*
X145210000Y-141200000D03*
X144710000Y-141200000D03*
X144710000Y-136800000D03*
X145210000Y-136800000D03*
X145710000Y-136800000D03*
X146210000Y-136800000D03*
X146710000Y-136800000D03*
D20*
X29000000Y-143500000D03*
D36*
X66330000Y-148100000D03*
D37*
X66330000Y-150640000D03*
D29*
X29550000Y-126600000D03*
D30*
X27010000Y-126600000D03*
D38*
X30500000Y-159200000D03*
D39*
X27000000Y-159200000D03*
D40*
X119180000Y-129910000D03*
X117080000Y-129910000D03*
X151620000Y-129600000D03*
X153720000Y-129600000D03*
X129130000Y-129720000D03*
X131230000Y-129720000D03*
X121830000Y-156910000D03*
X119730000Y-156910000D03*
D29*
X134950000Y-160350000D03*
D30*
X132410000Y-160350000D03*
X129870000Y-160350000D03*
X127330000Y-160350000D03*
D41*
X117260000Y-134399999D03*
D42*
X120960000Y-148610000D03*
D41*
X87680000Y-133900000D03*
X94670000Y-142550000D03*
X126248909Y-131521091D03*
X123975028Y-135790010D03*
X134480000Y-137070000D03*
X146740000Y-139240000D03*
X143876446Y-143973554D03*
X140120000Y-142450000D03*
X133830000Y-135950000D03*
X130070000Y-131800000D03*
X36680000Y-146600000D03*
X43520000Y-144450000D03*
X57460000Y-145630000D03*
X61230000Y-147640000D03*
X71200000Y-140740000D03*
X72875860Y-141510000D03*
X73788316Y-140129999D03*
X83100000Y-134210000D03*
X74020000Y-125490000D03*
X69670000Y-124340000D03*
X67040000Y-125530000D03*
X119004779Y-131524908D03*
X109680000Y-142680000D03*
X112825002Y-138050000D03*
X111250000Y-144743658D03*
D42*
X120460000Y-148700000D03*
X119460000Y-144300000D03*
D41*
X123020000Y-136640000D03*
X121200000Y-131250000D03*
X129480000Y-133059999D03*
X146710000Y-138050000D03*
X145040000Y-144670000D03*
X143960000Y-136820000D03*
X147120000Y-130820000D03*
X154000000Y-130890000D03*
X142520000Y-131670000D03*
X76450000Y-132380000D03*
X77460000Y-133930000D03*
X71740000Y-137670000D03*
X73780000Y-131590000D03*
X66890000Y-128800000D03*
X70910000Y-125610000D03*
X64900000Y-133210000D03*
X72800000Y-123480000D03*
X61930000Y-159850000D03*
X72920000Y-160590000D03*
X99341728Y-141509990D03*
X55700000Y-146190000D03*
X118620000Y-157050000D03*
X90140000Y-137480000D03*
X119890000Y-152200000D03*
X122940000Y-156880000D03*
D43*
X31480000Y-134910000D03*
X25650000Y-131580000D03*
D41*
X44850000Y-155540000D03*
D43*
X51850000Y-162770000D03*
X36110000Y-136300000D03*
X33060000Y-136100000D03*
X32270000Y-134900000D03*
D41*
X119250000Y-142650000D03*
X121030000Y-137480000D03*
X123230000Y-139530000D03*
X156020000Y-129600000D03*
X145390000Y-156730000D03*
X123760000Y-136800000D03*
X123180000Y-147610000D03*
X96170000Y-130030000D03*
X134500000Y-144030000D03*
X123640000Y-133960000D03*
X104100000Y-125750000D03*
X95960000Y-124430000D03*
X96750000Y-125330000D03*
X106480000Y-124220000D03*
X102800000Y-126030000D03*
X106820000Y-133060000D03*
X102960000Y-133980000D03*
X103860000Y-136350000D03*
X98600000Y-134520000D03*
X104820000Y-137290000D03*
X104810000Y-133990000D03*
X152510000Y-146890000D03*
X144050000Y-149060000D03*
X146780000Y-144560000D03*
X102160000Y-133970000D03*
X102720000Y-137760000D03*
X46420000Y-139170000D03*
X27100000Y-150500000D03*
X154810000Y-131920000D03*
X130880000Y-133090000D03*
X87770000Y-132360000D03*
X65970000Y-136420000D03*
X87155891Y-132024014D03*
X141580000Y-131910000D03*
X130930000Y-131950000D03*
X66010000Y-135530000D03*
X86656890Y-131533081D03*
X118710000Y-130890000D03*
X66050686Y-134800686D03*
X113450000Y-130840000D03*
X116280000Y-130850000D03*
X123250000Y-151540000D03*
X108250000Y-156240000D03*
X118550000Y-152930000D03*
X95740000Y-155630000D03*
X152300000Y-129860000D03*
X119250001Y-141850000D03*
X134110000Y-133860000D03*
X143190000Y-139640000D03*
X126750000Y-130360000D03*
X126750000Y-129140000D03*
X94600000Y-140890000D03*
X68540000Y-130390000D03*
X60100000Y-148110000D03*
X39150000Y-145320000D03*
D43*
X32660000Y-138110000D03*
D41*
X98210000Y-126210000D03*
X123770000Y-148190000D03*
X128660000Y-140550000D03*
X140160000Y-143710000D03*
X125520000Y-140470000D03*
X99620000Y-126160000D03*
X127110000Y-133160000D03*
X103510000Y-126220000D03*
X137630000Y-149590000D03*
X101830000Y-126140000D03*
X136730000Y-142020000D03*
X46840000Y-156200000D03*
X31180000Y-150420000D03*
X41080000Y-155400000D03*
X40330000Y-162610000D03*
X135320000Y-139310000D03*
X104080000Y-133980000D03*
X104470000Y-138690000D03*
X109100000Y-126790000D03*
X104730000Y-126190000D03*
X100820000Y-133950000D03*
X97740000Y-134570000D03*
X143060000Y-141160000D03*
X96240000Y-132890000D03*
X66920000Y-137610000D03*
X84670000Y-141050000D03*
X91010000Y-140500000D03*
X89180000Y-154610000D03*
X89210000Y-157520000D03*
X119710000Y-145570000D03*
D43*
X33070000Y-134900000D03*
X33420000Y-132650000D03*
X31260000Y-137900000D03*
X30450000Y-131200000D03*
X28590000Y-133280000D03*
X28580000Y-133900000D03*
X33270000Y-137870000D03*
X28330000Y-133280000D03*
X28330000Y-133920000D03*
X29600000Y-131220000D03*
X28750000Y-131200000D03*
X29390000Y-134110000D03*
D41*
X124660000Y-138720000D03*
X124740000Y-133450000D03*
X106500000Y-140690000D03*
X131850000Y-135330000D03*
X120850000Y-134400000D03*
X122190000Y-136790000D03*
X132720000Y-135370000D03*
X71773646Y-129879990D03*
D43*
X27580000Y-137650000D03*
X31460000Y-137300000D03*
X33340000Y-140970000D03*
X33060000Y-137290000D03*
X31470000Y-136910000D03*
X27320000Y-135650000D03*
X38540000Y-138840000D03*
X33060000Y-136890000D03*
X31870000Y-136900000D03*
X37070000Y-133820000D03*
X32260000Y-134500000D03*
X35610000Y-133840000D03*
X38520000Y-133840000D03*
X32270000Y-137300000D03*
D41*
X111150000Y-139560000D03*
X112090000Y-139530000D03*
X148690000Y-139780000D03*
X81950000Y-133630000D03*
X137050000Y-130840000D03*
X139760000Y-130850000D03*
X118450002Y-142900000D03*
X67730000Y-140160000D03*
X65210000Y-137590000D03*
X119760000Y-131900000D03*
X130960000Y-134010000D03*
X66090000Y-140000000D03*
X62350000Y-129200000D03*
X70950000Y-129880000D03*
X62320000Y-130000000D03*
X70160000Y-129870000D03*
X73330000Y-128760000D03*
X130360000Y-134990000D03*
X76410000Y-129430000D03*
X127928312Y-135626131D03*
X76540000Y-131490000D03*
X100270000Y-139560001D03*
X90740000Y-136830000D03*
X76240000Y-136390000D03*
X145920000Y-143940000D03*
X140910000Y-140300000D03*
X64340000Y-127340000D03*
X43480000Y-143630000D03*
X142692460Y-139047540D03*
X66150000Y-126270000D03*
X29810000Y-136100000D03*
D43*
X32270000Y-136490000D03*
D41*
X67290000Y-140930000D03*
X31370000Y-153030000D03*
X69340000Y-140130000D03*
X143110000Y-140430000D03*
X76400000Y-128700000D03*
X96160000Y-132100000D03*
X110110000Y-135860000D03*
X126900000Y-151290000D03*
X147690000Y-160540000D03*
X136540000Y-151780000D03*
X55313511Y-148660000D03*
D43*
X30041778Y-138308222D03*
X30360000Y-136390000D03*
X30950000Y-139220000D03*
X33080000Y-136510000D03*
X31870000Y-137280000D03*
X31870000Y-136500000D03*
D41*
X97480000Y-151080000D03*
X84180000Y-151660000D03*
X59930000Y-156070000D03*
X118407773Y-144078886D03*
X133380000Y-133920000D03*
X143250000Y-141860000D03*
X95630000Y-141140000D03*
X69340000Y-130380000D03*
X59200000Y-147400000D03*
X39060000Y-146270000D03*
D43*
X32660000Y-137310000D03*
D41*
X118838554Y-139468554D03*
X127660000Y-138830000D03*
X131060002Y-136765002D03*
X127670000Y-136780000D03*
X128000000Y-133160001D03*
X130930000Y-128980000D03*
X85300000Y-136790000D03*
X94730000Y-136330000D03*
X90900000Y-139710000D03*
D43*
X33890000Y-135900000D03*
X35540000Y-138940000D03*
D41*
X28410000Y-151760000D03*
X60830000Y-162600000D03*
X51500000Y-158130000D03*
X40300000Y-158200000D03*
M02*
