G04 #@! TF.FileFunction,Paste,Bot*
%FSLAX46Y46*%
G04 Gerber Fmt 4.6, Leading zero omitted, Abs format (unit mm)*
G04 Created by KiCad (PCBNEW 4.0.7) date 06/15/18 17:29:42*
%MOMM*%
%LPD*%
G01*
G04 APERTURE LIST*
%ADD10C,0.100000*%
%ADD11C,0.150000*%
%ADD12R,0.800000X0.750000*%
%ADD13R,0.300000X0.350000*%
%ADD14R,1.250000X1.000000*%
%ADD15R,0.350000X0.300000*%
%ADD16R,0.300000X1.450000*%
%ADD17R,0.430000X0.280000*%
%ADD18R,0.500000X0.900000*%
%ADD19R,1.700000X0.900000*%
%ADD20R,0.400000X0.600000*%
%ADD21R,0.600000X0.450000*%
%ADD22R,0.750000X0.800000*%
%ADD23R,0.900000X0.500000*%
G04 APERTURE END LIST*
D10*
D11*
X25000000Y-164000000D02*
X25000000Y-123000000D01*
X158000000Y-164000000D02*
X25000000Y-164000000D01*
X158000000Y-123000000D02*
X158000000Y-164000000D01*
X25000000Y-123000000D02*
X158000000Y-123000000D01*
D12*
X35460000Y-137060000D03*
X33960000Y-137060000D03*
D13*
X119220000Y-150210000D03*
X119780000Y-150210000D03*
D14*
X111180000Y-134800000D03*
X111180000Y-136800000D03*
X112980000Y-134800000D03*
X112980000Y-136800000D03*
D15*
X146740000Y-142280000D03*
X146740000Y-142840000D03*
D13*
X154690000Y-145190000D03*
X155250000Y-145190000D03*
D12*
X104290000Y-124770000D03*
X102790000Y-124770000D03*
D16*
X118960000Y-144300000D03*
X119460000Y-144300000D03*
X119960000Y-144300000D03*
X120460000Y-144300000D03*
X120960000Y-144300000D03*
X120960000Y-148700000D03*
X120460000Y-148700000D03*
X119960000Y-148700000D03*
X119460000Y-148700000D03*
X118960000Y-148700000D03*
X121580000Y-131200000D03*
X122080000Y-131200000D03*
X122580000Y-131200000D03*
X123080000Y-131200000D03*
X123580000Y-131200000D03*
X123580000Y-135600000D03*
X123080000Y-135600000D03*
X122580000Y-135600000D03*
X122080000Y-135600000D03*
X121580000Y-135600000D03*
X134400000Y-132980000D03*
X134900000Y-132980000D03*
X135400000Y-132980000D03*
X135900000Y-132980000D03*
X136400000Y-132980000D03*
X136400000Y-137380000D03*
X135900000Y-137380000D03*
X135400000Y-137380000D03*
X134900000Y-137380000D03*
X134400000Y-137380000D03*
D17*
X117330000Y-150810000D03*
X117330000Y-151330000D03*
X121330000Y-151030000D03*
X121330000Y-151550000D03*
D18*
X154890000Y-146270000D03*
X156390000Y-146270000D03*
D19*
X119520000Y-137050000D03*
X119520000Y-134150000D03*
X117260000Y-137050000D03*
X117260000Y-134150000D03*
X115010000Y-133880000D03*
X115010000Y-136780000D03*
D17*
X146780000Y-143880000D03*
X146780000Y-143360000D03*
X147910000Y-139720000D03*
X147910000Y-140240000D03*
D20*
X100910000Y-135040000D03*
X100010000Y-135040000D03*
D16*
X146710000Y-141200000D03*
X146210000Y-141200000D03*
X145710000Y-141200000D03*
X145210000Y-141200000D03*
X144710000Y-141200000D03*
X144710000Y-136800000D03*
X145210000Y-136800000D03*
X145710000Y-136800000D03*
X146210000Y-136800000D03*
X146710000Y-136800000D03*
D13*
X27610000Y-147590000D03*
X28170000Y-147590000D03*
D18*
X26470000Y-148670000D03*
X27970000Y-148670000D03*
D21*
X119180000Y-129910000D03*
X117080000Y-129910000D03*
X151620000Y-129600000D03*
X153720000Y-129600000D03*
X129130000Y-129720000D03*
X131230000Y-129720000D03*
X121830000Y-156910000D03*
X119730000Y-156910000D03*
D12*
X95670000Y-144350000D03*
X94170000Y-144350000D03*
D22*
X115990000Y-146650000D03*
X115990000Y-148150000D03*
D12*
X137530000Y-135670000D03*
X139030000Y-135670000D03*
D22*
X125680000Y-136350000D03*
X125680000Y-134850000D03*
D12*
X144790000Y-144350000D03*
X143290000Y-144350000D03*
D23*
X117070000Y-148150000D03*
X117070000Y-146650000D03*
X124790000Y-133930000D03*
X124790000Y-132430000D03*
D18*
X138880000Y-134580000D03*
X137380000Y-134580000D03*
X143480000Y-142870000D03*
X144980000Y-142870000D03*
M02*
