G04 #@! TF.FileFunction,Copper,L3,Inr,Signal*
%FSLAX46Y46*%
G04 Gerber Fmt 4.6, Leading zero omitted, Abs format (unit mm)*
G04 Created by KiCad (PCBNEW 4.0.7) date 06/15/18 17:29:42*
%MOMM*%
%LPD*%
G01*
G04 APERTURE LIST*
%ADD10C,0.100000*%
%ADD11C,0.150000*%
%ADD12R,1.600000X1.600000*%
%ADD13C,1.600000*%
%ADD14R,2.600000X2.600000*%
%ADD15O,2.600000X2.600000*%
%ADD16C,7.000000*%
%ADD17R,1.700000X1.700000*%
%ADD18O,1.700000X1.700000*%
%ADD19R,1.000000X1.000000*%
%ADD20O,1.000000X1.000000*%
%ADD21R,2.350000X3.000000*%
%ADD22O,2.350000X3.000000*%
%ADD23C,1.270000*%
%ADD24R,1.270000X1.270000*%
%ADD25R,2.000000X2.600000*%
%ADD26O,2.000000X2.600000*%
%ADD27R,1.397000X1.397000*%
%ADD28C,1.397000*%
%ADD29R,1.100000X0.890000*%
%ADD30R,2.600000X2.000000*%
%ADD31O,2.600000X2.000000*%
%ADD32C,2.400000*%
%ADD33R,2.400000X2.400000*%
%ADD34C,0.600000*%
%ADD35C,0.159000*%
%ADD36C,0.200000*%
%ADD37C,0.125000*%
%ADD38C,1.570000*%
%ADD39C,2.000000*%
%ADD40C,3.200000*%
%ADD41C,2.400000*%
%ADD42C,0.415000*%
%ADD43C,0.500000*%
%ADD44C,0.300000*%
%ADD45C,0.555000*%
G04 APERTURE END LIST*
D10*
D11*
X25000000Y-164000000D02*
X25000000Y-123000000D01*
X158000000Y-164000000D02*
X25000000Y-164000000D01*
X158000000Y-123000000D02*
X158000000Y-164000000D01*
X25000000Y-123000000D02*
X158000000Y-123000000D01*
D12*
X45200000Y-127450000D03*
D13*
X48700000Y-127450000D03*
D12*
X34100000Y-127450000D03*
D13*
X37600000Y-127450000D03*
D14*
X108490000Y-162350000D03*
D15*
X108490000Y-147110000D03*
D16*
X154010000Y-140810000D03*
D17*
X55690000Y-129950000D03*
D18*
X53150000Y-129950000D03*
X55690000Y-127410000D03*
X53150000Y-127410000D03*
X55690000Y-124870000D03*
X53150000Y-124870000D03*
D19*
X59090000Y-124250000D03*
D20*
X59090000Y-125520000D03*
X59090000Y-126790000D03*
D21*
X122950000Y-159700000D03*
D22*
X118990000Y-159700000D03*
D23*
X84690000Y-126480000D03*
X87230000Y-126480000D03*
X89770000Y-126480000D03*
D24*
X84690000Y-129020000D03*
D23*
X87230000Y-129020000D03*
X89770000Y-129020000D03*
D25*
X125520000Y-126650000D03*
D26*
X128060000Y-126650000D03*
X130600000Y-126650000D03*
X133140000Y-126650000D03*
D25*
X114080000Y-126650000D03*
D26*
X116620000Y-126650000D03*
X119160000Y-126650000D03*
X121700000Y-126650000D03*
D25*
X136950000Y-126650000D03*
D26*
X139490000Y-126650000D03*
X142030000Y-126650000D03*
X144570000Y-126650000D03*
D25*
X148400000Y-126650000D03*
D26*
X150940000Y-126650000D03*
X153480000Y-126650000D03*
X156020000Y-126650000D03*
D27*
X49734000Y-154120000D03*
D28*
X53925000Y-152850000D03*
X49734000Y-151580000D03*
X53925000Y-150310000D03*
X49734000Y-149040000D03*
X53925000Y-147770000D03*
X49734000Y-146500000D03*
D29*
X106045000Y-131385000D03*
X106045000Y-130535000D03*
X106045000Y-128835000D03*
X106045000Y-129685000D03*
X104988750Y-129685000D03*
X104988750Y-128835000D03*
X104988750Y-130535000D03*
X104988750Y-131385000D03*
X103932500Y-131385000D03*
X103932500Y-130535000D03*
X103932500Y-128835000D03*
X103932500Y-129685000D03*
X102876250Y-129685000D03*
X102876250Y-128835000D03*
X102876250Y-130535000D03*
X102876250Y-131385000D03*
X101820000Y-131385000D03*
X101820000Y-130535000D03*
X101820000Y-128835000D03*
X101820000Y-129685000D03*
X100763750Y-129685000D03*
X100763750Y-128835000D03*
X100763750Y-130535000D03*
X100763750Y-131385000D03*
X99707500Y-131385000D03*
X99707500Y-130535000D03*
X99707500Y-128835000D03*
X99707500Y-129685000D03*
X98651250Y-129685000D03*
X98651250Y-128835000D03*
X98651250Y-130535000D03*
X98651250Y-131385000D03*
X97595000Y-131385000D03*
X97595000Y-130535000D03*
X97595000Y-128835000D03*
X97595000Y-129685000D03*
D16*
X29000000Y-143500000D03*
D30*
X66330000Y-147920000D03*
D31*
X66330000Y-150460000D03*
D25*
X29550000Y-126600000D03*
D26*
X27010000Y-126600000D03*
D32*
X30500000Y-159200000D03*
D33*
X27000000Y-159200000D03*
D25*
X134950000Y-160350000D03*
D26*
X132410000Y-160350000D03*
X129870000Y-160350000D03*
X127330000Y-160350000D03*
D34*
X110760000Y-144490000D03*
X46040000Y-134840000D03*
X36980000Y-143930000D03*
X94020000Y-133140000D03*
X98530000Y-136130000D03*
X70910000Y-140970000D03*
X135390000Y-146570000D03*
X91040000Y-136500000D03*
X94190000Y-143200000D03*
X132850000Y-137600000D03*
X117540000Y-134510000D03*
X123760000Y-134520000D03*
X145920000Y-135330000D03*
X137400000Y-137480000D03*
X150540000Y-138580000D03*
X146940000Y-144780000D03*
X83850000Y-133810000D03*
X73530000Y-130850000D03*
X73400000Y-132350000D03*
X67510000Y-126300000D03*
X73910000Y-126390000D03*
X72890000Y-141450000D03*
X71720000Y-140270000D03*
X73850000Y-140310000D03*
X46030000Y-142350000D03*
X56290000Y-146460000D03*
X61410000Y-145950000D03*
X59090000Y-146420000D03*
X41940000Y-136300000D03*
X41610000Y-137770000D03*
X47340000Y-124500000D03*
X49070000Y-124570000D03*
X95560000Y-145290000D03*
X60470000Y-128630000D03*
X123920000Y-147470000D03*
X114040000Y-129570000D03*
X125460000Y-129950000D03*
X111180000Y-136800000D03*
X39660000Y-137980000D03*
X113240000Y-139490000D03*
X113410000Y-144430000D03*
X118330000Y-144360000D03*
X59220000Y-152510000D03*
X59780000Y-145720000D03*
X146320000Y-145300000D03*
X132850000Y-133510000D03*
X126580000Y-135430000D03*
X121980000Y-137340000D03*
X100410000Y-137720000D03*
X100195000Y-134575000D03*
X120960000Y-131070000D03*
X112290000Y-144090000D03*
X64600000Y-124750000D03*
X67760000Y-128390000D03*
X31500000Y-129920000D03*
X33430000Y-129850000D03*
X34890000Y-131880000D03*
X25830000Y-138540000D03*
X25890000Y-139460000D03*
X134750000Y-138640000D03*
X137260000Y-136680000D03*
X89580000Y-133900000D03*
X49880000Y-133910000D03*
X35032340Y-145312460D03*
X42550000Y-148990000D03*
X34380000Y-148110000D03*
X26880000Y-148730000D03*
X26040000Y-151750000D03*
X40767660Y-142777540D03*
X150570000Y-142960000D03*
X149380000Y-142540000D03*
X144340000Y-137130000D03*
X152640000Y-153450000D03*
X139960000Y-130840000D03*
X146290000Y-130840000D03*
X152790000Y-130960000D03*
X66730000Y-126420000D03*
X67030000Y-124260000D03*
X66610000Y-133190000D03*
X72530000Y-125910000D03*
X64530000Y-157030000D03*
X71400000Y-153170000D03*
X70330000Y-153170000D03*
X98350000Y-139900000D03*
X108380000Y-154140000D03*
X54740000Y-145730000D03*
X92065000Y-150050000D03*
X88470000Y-137210000D03*
X92060000Y-148620000D03*
X89630000Y-137190000D03*
X109870000Y-153110000D03*
X110610000Y-153090000D03*
X97270000Y-151120000D03*
X96530000Y-151140000D03*
X123880000Y-148970000D03*
X34180000Y-133140000D03*
X34180000Y-130700000D03*
X47050000Y-160360000D03*
X47010000Y-155250000D03*
X28770000Y-138240000D03*
X32020000Y-140650000D03*
X121050000Y-142650000D03*
X119180000Y-142650000D03*
X131300000Y-151700000D03*
X131830000Y-152220000D03*
X121100000Y-139390000D03*
X119180000Y-139390000D03*
X144480000Y-158710000D03*
X144480000Y-157360000D03*
X123790000Y-136760000D03*
X97880000Y-137540000D03*
X109060000Y-151010000D03*
X133620000Y-146010000D03*
X140790000Y-146430000D03*
X106650000Y-147900000D03*
X110220000Y-150430000D03*
X95110000Y-130220000D03*
X96500000Y-136900000D03*
X104100000Y-126160000D03*
X106740000Y-124730000D03*
X102790000Y-126160000D03*
X107900000Y-134250000D03*
X103010000Y-134090000D03*
X101240000Y-136390000D03*
X98240000Y-133950000D03*
X110750000Y-149790000D03*
X140790000Y-153280000D03*
X110460000Y-146860000D03*
X104120000Y-138950000D03*
X103090000Y-138930000D03*
X148660000Y-143750000D03*
X102160000Y-137330000D03*
X102280000Y-133950000D03*
X64940000Y-137190000D03*
X27110000Y-150630000D03*
X146470000Y-131860000D03*
X149970000Y-131870000D03*
X154000000Y-130950000D03*
X64930000Y-136390000D03*
X64930000Y-135600000D03*
X141630000Y-130910000D03*
X119450000Y-130900000D03*
X121980000Y-128800000D03*
X117990000Y-132610000D03*
X64950000Y-134780000D03*
X118960000Y-152830000D03*
X118220000Y-152850000D03*
X96990000Y-155630000D03*
X97770000Y-155620000D03*
X97760000Y-162690000D03*
X97000000Y-162710000D03*
X71810000Y-123870000D03*
X68470000Y-129390000D03*
X60060000Y-137780000D03*
X35370000Y-132930000D03*
X39090000Y-145280000D03*
X94550000Y-138760000D03*
X143230000Y-137700000D03*
X68250000Y-125260000D03*
X124580000Y-147980000D03*
X131560000Y-145980000D03*
X98220000Y-125960000D03*
X108810000Y-125370000D03*
X142710000Y-141180000D03*
X142720000Y-142140000D03*
X129960000Y-141110000D03*
X130700000Y-141110000D03*
X125000000Y-140600000D03*
X99540000Y-126070000D03*
X130930000Y-132050000D03*
X130450000Y-133790000D03*
X134570000Y-143180000D03*
X133370000Y-130050000D03*
X133340000Y-132050000D03*
X103450000Y-125800000D03*
X128600000Y-131730000D03*
X138890000Y-142930000D03*
X133410000Y-138720000D03*
X102040000Y-126210000D03*
X137350000Y-138260000D03*
X100850000Y-133930000D03*
X131380000Y-139350000D03*
X66940000Y-140230000D03*
X97330000Y-133950000D03*
X84960000Y-139260000D03*
X89930000Y-139920000D03*
X122770000Y-145530000D03*
X123520000Y-145550000D03*
X25960000Y-136020000D03*
X35830000Y-131890000D03*
X31020000Y-137140000D03*
X124770000Y-134780000D03*
X124440000Y-137630000D03*
X109790000Y-137470000D03*
X131310000Y-134460000D03*
X147840000Y-142820000D03*
X147280000Y-141230000D03*
X122580000Y-134450000D03*
X135870000Y-135530000D03*
X35410000Y-139510000D03*
X71730000Y-129370000D03*
X111160000Y-139760000D03*
X112100000Y-139770000D03*
X148740000Y-138890000D03*
X78550000Y-141660000D03*
X78560000Y-142640000D03*
X67730000Y-137590000D03*
X95770000Y-142050000D03*
X122550000Y-130190000D03*
X120380000Y-128690000D03*
X94130000Y-123820000D03*
X67720000Y-134290000D03*
X129540000Y-132230000D03*
X66130000Y-137600000D03*
X93190000Y-134250000D03*
X71290000Y-125930000D03*
X70550000Y-125920000D03*
X73350000Y-128600000D03*
X64500000Y-127720000D03*
X63790000Y-127020000D03*
X76540000Y-129990000D03*
X94950000Y-127380000D03*
X96530000Y-125820000D03*
X131110000Y-135310000D03*
X123380000Y-133810000D03*
X94910000Y-124870000D03*
X93200000Y-130690000D03*
X76500000Y-130790000D03*
X97790000Y-141780000D03*
X76340000Y-136490000D03*
X140920000Y-139680000D03*
X146290000Y-144350000D03*
X59080000Y-137750000D03*
X65390000Y-129440000D03*
X64930000Y-125860000D03*
X77260000Y-124770000D03*
X78900000Y-124740000D03*
X105780000Y-123860000D03*
X143740000Y-139470000D03*
X142540000Y-139590000D03*
X68540000Y-140230000D03*
X44870000Y-140220000D03*
X40900000Y-136660000D03*
X29760000Y-134600000D03*
X30850000Y-134560000D03*
X69500000Y-140150000D03*
X42930000Y-141360000D03*
X31430000Y-153050000D03*
X132250000Y-139230000D03*
X95410000Y-125460000D03*
X76520000Y-129190000D03*
X94180000Y-126660000D03*
X127000000Y-151370000D03*
X118620000Y-150780000D03*
X107820000Y-135860000D03*
X98920000Y-133650000D03*
X146570000Y-162800000D03*
X136390000Y-153110000D03*
X145830000Y-162800000D03*
X136390000Y-153860000D03*
X33400000Y-133120000D03*
X33190000Y-145710000D03*
X55500000Y-147680000D03*
X30050000Y-139000000D03*
X33770000Y-139920000D03*
X37700000Y-137550000D03*
X27320000Y-133730000D03*
X37660000Y-135550000D03*
X59330000Y-155030000D03*
X60080000Y-155010000D03*
X94410000Y-153360000D03*
X93710000Y-153360000D03*
X87450000Y-150050000D03*
X86730000Y-150070000D03*
X36100000Y-133050000D03*
X147230000Y-140220000D03*
X93390000Y-124240000D03*
X91380000Y-124410000D03*
X69320000Y-129410000D03*
X60590000Y-138330000D03*
X56500000Y-142140000D03*
X55910000Y-143630000D03*
X39080000Y-146570000D03*
X95150000Y-140780000D03*
X69000000Y-125270000D03*
X121040000Y-137270000D03*
X131750000Y-136890000D03*
X126930000Y-139490000D03*
X127770000Y-136920000D03*
X126910000Y-134400000D03*
X91020000Y-140460000D03*
X94710000Y-136340000D03*
X85370000Y-136710000D03*
X36640000Y-155390000D03*
X37650000Y-156220000D03*
X38260000Y-137080000D03*
X36900000Y-132770000D03*
X38360000Y-134650000D03*
X31360000Y-137960000D03*
X27310000Y-135660000D03*
X30300000Y-151470000D03*
X51330000Y-162680000D03*
X29330000Y-151470000D03*
X40800000Y-162680000D03*
D35*
X94190000Y-143200000D02*
X94190000Y-139770000D01*
X115680000Y-134510000D02*
X117540000Y-134510000D01*
X115100000Y-135090000D02*
X115680000Y-134510000D01*
X97360000Y-135090000D02*
X115100000Y-135090000D01*
X93930000Y-138520000D02*
X97360000Y-135090000D01*
X93930000Y-139510000D02*
X93930000Y-138520000D01*
X94190000Y-139770000D02*
X93930000Y-139510000D01*
X90950000Y-139810000D02*
X91040000Y-136500000D01*
X90420000Y-140340000D02*
X90950000Y-139810000D01*
X90420000Y-141310000D02*
X90420000Y-140340000D01*
X92370000Y-143260000D02*
X90420000Y-141310000D01*
X94130000Y-143260000D02*
X92370000Y-143260000D01*
X94190000Y-143200000D02*
X94130000Y-143260000D01*
X132970000Y-137480000D02*
X137400000Y-137480000D01*
X132850000Y-137600000D02*
X132970000Y-137480000D01*
X118390000Y-135360000D02*
X117540000Y-134510000D01*
X123760000Y-134520000D02*
X122920000Y-135360000D01*
X122920000Y-135360000D02*
X118390000Y-135360000D01*
X145920000Y-135330000D02*
X144710000Y-136540000D01*
X144710000Y-136540000D02*
X138340000Y-136540000D01*
X138340000Y-136540000D02*
X137400000Y-137480000D01*
X47340000Y-124500000D02*
X47410000Y-124570000D01*
X47410000Y-124570000D02*
X49070000Y-124570000D01*
D36*
X121980000Y-137340000D02*
X121980000Y-137070000D01*
X112130000Y-135850000D02*
X111180000Y-136800000D01*
X120760000Y-135850000D02*
X112130000Y-135850000D01*
X121980000Y-137070000D02*
X120760000Y-135850000D01*
X120960000Y-131070000D02*
X120960000Y-131295498D01*
X120960000Y-131295498D02*
X121470000Y-131805498D01*
X121470000Y-131805498D02*
X123604502Y-131805498D01*
X123604502Y-131805498D02*
X125460000Y-129950000D01*
X113240000Y-138860000D02*
X113240000Y-139490000D01*
X111180000Y-136800000D02*
X113240000Y-138860000D01*
X113240000Y-139490000D02*
X113240000Y-144260000D01*
X113240000Y-144260000D02*
X113410000Y-144430000D01*
D37*
X146320000Y-145300000D02*
X149840000Y-145300000D01*
X150570000Y-144570000D02*
X150570000Y-142960000D01*
X149840000Y-145300000D02*
X150570000Y-144570000D01*
D35*
X68830000Y-133190000D02*
X66610000Y-133190000D01*
X70360000Y-131660000D02*
X68830000Y-133190000D01*
X70360000Y-128080000D02*
X70360000Y-131660000D01*
X72530000Y-125910000D02*
X70360000Y-128080000D01*
D36*
X92060000Y-148620000D02*
X68520000Y-148620000D01*
X54740000Y-146020000D02*
X54740000Y-145730000D01*
X57900000Y-149180000D02*
X54740000Y-146020000D01*
X67960000Y-149180000D02*
X57900000Y-149180000D01*
X68520000Y-148620000D02*
X67960000Y-149180000D01*
D38*
X92065000Y-150050000D02*
X92065000Y-148625000D01*
X92065000Y-148625000D02*
X92060000Y-148620000D01*
X92065000Y-150050000D02*
X92060000Y-150055000D01*
X92060000Y-150055000D02*
X92060000Y-150130000D01*
X88470000Y-137210000D02*
X89610000Y-137210000D01*
X89610000Y-137210000D02*
X89630000Y-137190000D01*
X88470000Y-137210000D02*
X88470000Y-137200000D01*
X88370000Y-144930000D02*
X92060000Y-148620000D01*
X88370000Y-138450000D02*
X88370000Y-144930000D01*
X89630000Y-137190000D02*
X88370000Y-138450000D01*
D39*
X109890000Y-153090000D02*
X109890000Y-155080000D01*
X109890000Y-155080000D02*
X109320000Y-155650000D01*
X110610000Y-153090000D02*
X109890000Y-153090000D01*
X109890000Y-153090000D02*
X109870000Y-153110000D01*
X97270000Y-151120000D02*
X97330000Y-151120000D01*
X97330000Y-151120000D02*
X101860000Y-155650000D01*
X101860000Y-155650000D02*
X109320000Y-155650000D01*
X110610000Y-154360000D02*
X110610000Y-153090000D01*
X109320000Y-155650000D02*
X110610000Y-154360000D01*
X97270000Y-151120000D02*
X96550000Y-151120000D01*
X96550000Y-151120000D02*
X96530000Y-151140000D01*
X96550000Y-151120000D02*
X96530000Y-151140000D01*
D40*
X118990000Y-157480000D02*
X118990000Y-159700000D01*
X120160000Y-156310000D02*
X118990000Y-157480000D01*
X125930000Y-156310000D02*
X120160000Y-156310000D01*
X127330000Y-157710000D02*
X125930000Y-156310000D01*
X127330000Y-157870000D02*
X127330000Y-157710000D01*
D41*
X127330000Y-157870000D02*
X127300000Y-157840000D01*
X127330000Y-160350000D02*
X127330000Y-157870000D01*
D42*
X34180000Y-133140000D02*
X34180000Y-130700000D01*
D43*
X47010000Y-155250000D02*
X47050000Y-155290000D01*
X47050000Y-155290000D02*
X47050000Y-160360000D01*
D39*
X121590000Y-139390000D02*
X121100000Y-139390000D01*
X127100000Y-144900000D02*
X121590000Y-139390000D01*
X127100000Y-147500000D02*
X127100000Y-144900000D01*
X129250000Y-149650000D02*
X127100000Y-147500000D01*
X129250000Y-153170000D02*
X129250000Y-149650000D01*
X134950000Y-158870000D02*
X129250000Y-153170000D01*
X134950000Y-158870000D02*
X134950000Y-160350000D01*
X119180000Y-139390000D02*
X121100000Y-139390000D01*
X144480000Y-157360000D02*
X144480000Y-158710000D01*
X148400000Y-126650000D02*
X148400000Y-136820000D01*
X144860000Y-156980000D02*
X144480000Y-157360000D01*
X144860000Y-140360000D02*
X144860000Y-156980000D01*
X148400000Y-136820000D02*
X144860000Y-140360000D01*
D37*
X64940000Y-137190000D02*
X39160000Y-137190000D01*
X27510000Y-150630000D02*
X27110000Y-150630000D01*
X32990000Y-145150000D02*
X27510000Y-150630000D01*
X32990000Y-143360000D02*
X32990000Y-145150000D01*
X39160000Y-137190000D02*
X32990000Y-143360000D01*
X66150000Y-136390000D02*
X66580000Y-135960000D01*
X66580000Y-135960000D02*
X94160000Y-135960000D01*
X94160000Y-135960000D02*
X97240000Y-132880000D01*
X97240000Y-132880000D02*
X116490000Y-132880000D01*
X116490000Y-132880000D02*
X117340000Y-133730000D01*
X117340000Y-133730000D02*
X118770000Y-133730000D01*
X118770000Y-133730000D02*
X119490000Y-133010000D01*
X119490000Y-133010000D02*
X145320000Y-133010000D01*
X145320000Y-133010000D02*
X146470000Y-131860000D01*
X149970000Y-131870000D02*
X149990000Y-131850000D01*
X149990000Y-131850000D02*
X153100000Y-131850000D01*
X153100000Y-131850000D02*
X154000000Y-130950000D01*
X64930000Y-136390000D02*
X66150000Y-136390000D01*
X64930000Y-135600000D02*
X94160000Y-135600000D01*
X141630000Y-131860000D02*
X141630000Y-130910000D01*
X140750000Y-132740000D02*
X141630000Y-131860000D01*
X119370000Y-132740000D02*
X140750000Y-132740000D01*
X118680000Y-133430000D02*
X119370000Y-132740000D01*
X117430000Y-133430000D02*
X118680000Y-133430000D01*
X116620000Y-132620000D02*
X117430000Y-133430000D01*
X97140000Y-132620000D02*
X116620000Y-132620000D01*
X94160000Y-135600000D02*
X97140000Y-132620000D01*
D35*
X119880000Y-130900000D02*
X119450000Y-130900000D01*
X121980000Y-128800000D02*
X119880000Y-130900000D01*
D36*
X68250000Y-124500000D02*
X68250000Y-125260000D01*
X68600000Y-124150000D02*
X68250000Y-124500000D01*
X71530000Y-124150000D02*
X68600000Y-124150000D01*
X71810000Y-123870000D02*
X71530000Y-124150000D01*
D39*
X142720000Y-141400000D02*
X142720000Y-142140000D01*
X130700000Y-141110000D02*
X142430000Y-141110000D01*
X142430000Y-141110000D02*
X142720000Y-141400000D01*
X129960000Y-141110000D02*
X130700000Y-141110000D01*
D35*
X125000000Y-140600000D02*
X125000000Y-135290000D01*
X100760000Y-124850000D02*
X99540000Y-126070000D01*
X105240000Y-124850000D02*
X100760000Y-124850000D01*
X108820000Y-128430000D02*
X105240000Y-124850000D01*
X119440000Y-128430000D02*
X108820000Y-128430000D01*
X119720000Y-128150000D02*
X119440000Y-128430000D01*
X120770000Y-128150000D02*
X119720000Y-128150000D01*
X120910000Y-128290000D02*
X120770000Y-128150000D01*
X127170000Y-128290000D02*
X120910000Y-128290000D01*
X130930000Y-132050000D02*
X127170000Y-128290000D01*
X126120000Y-133790000D02*
X130450000Y-133790000D01*
X125680000Y-134230000D02*
X126120000Y-133790000D01*
X125680000Y-134610000D02*
X125680000Y-134230000D01*
X125000000Y-135290000D02*
X125680000Y-134610000D01*
X133340000Y-132050000D02*
X133340000Y-130080000D01*
X103450000Y-125800000D02*
X103450000Y-127450000D01*
X128220000Y-132110000D02*
X128600000Y-131730000D01*
X119460000Y-132110000D02*
X128220000Y-132110000D01*
X118780000Y-131430000D02*
X119460000Y-132110000D01*
X117010000Y-131430000D02*
X118780000Y-131430000D01*
X116420000Y-132020000D02*
X117010000Y-131430000D01*
X111740000Y-132020000D02*
X116420000Y-132020000D01*
X107540000Y-127820000D02*
X111740000Y-132020000D01*
X103820000Y-127820000D02*
X107540000Y-127820000D01*
X103450000Y-127450000D02*
X103820000Y-127820000D01*
X133340000Y-130080000D02*
X133370000Y-130050000D01*
X131380000Y-139350000D02*
X130900000Y-138870000D01*
X130900000Y-138870000D02*
X130900000Y-138260000D01*
X130900000Y-138260000D02*
X131760000Y-137400000D01*
X131760000Y-137400000D02*
X132300000Y-137400000D01*
X132300000Y-137400000D02*
X132820000Y-136880000D01*
X132820000Y-136880000D02*
X132820000Y-134500000D01*
X132820000Y-134500000D02*
X131600000Y-133280000D01*
X131600000Y-133280000D02*
X119610000Y-133280000D01*
X119610000Y-133280000D02*
X118890000Y-134000000D01*
X118890000Y-134000000D02*
X117232402Y-134000000D01*
X117232402Y-134000000D02*
X116392402Y-133160000D01*
X116392402Y-133160000D02*
X100600000Y-133160000D01*
X100600000Y-133160000D02*
X99210000Y-134550000D01*
X99210000Y-134550000D02*
X97930000Y-134550000D01*
X97930000Y-134550000D02*
X97330000Y-133950000D01*
D44*
X122770000Y-145530000D02*
X122240000Y-145530000D01*
X90020000Y-141440000D02*
X89930000Y-139920000D01*
X100170000Y-151590000D02*
X90020000Y-141440000D01*
X116180000Y-151590000D02*
X100170000Y-151590000D01*
X122240000Y-145530000D02*
X116180000Y-151590000D01*
D35*
X94130000Y-123820000D02*
X94040000Y-123730000D01*
X94040000Y-123730000D02*
X79160000Y-123730000D01*
X79160000Y-123730000D02*
X68600000Y-134290000D01*
X68600000Y-134290000D02*
X67720000Y-134290000D01*
X97032498Y-132320000D02*
X97010000Y-132320000D01*
X128902498Y-132230000D02*
X128680000Y-132452498D01*
X128680000Y-132452498D02*
X119392498Y-132452498D01*
X119392498Y-132452498D02*
X118660000Y-131720000D01*
X118660000Y-131720000D02*
X117132498Y-131720000D01*
X117132498Y-131720000D02*
X116532498Y-132320000D01*
X116532498Y-132320000D02*
X97032498Y-132320000D01*
X129540000Y-132230000D02*
X128902498Y-132230000D01*
X95080000Y-134250000D02*
X93190000Y-134250000D01*
X97010000Y-132320000D02*
X95080000Y-134250000D01*
D37*
X71290000Y-125930000D02*
X71290000Y-125620000D01*
X53150000Y-128780000D02*
X53150000Y-129950000D01*
X53310000Y-128620000D02*
X53150000Y-128780000D01*
X56150000Y-128620000D02*
X53310000Y-128620000D01*
X56870000Y-127900000D02*
X56150000Y-128620000D01*
X63610000Y-127900000D02*
X56870000Y-127900000D01*
X65800000Y-125760000D02*
X63610000Y-127900000D01*
X69930000Y-125760000D02*
X65800000Y-125760000D01*
X70240000Y-125400000D02*
X69930000Y-125760000D01*
X71070000Y-125400000D02*
X70240000Y-125400000D01*
X71290000Y-125620000D02*
X71070000Y-125400000D01*
D35*
X77260000Y-124770000D02*
X77180000Y-124690000D01*
X90760000Y-124740000D02*
X78900000Y-124740000D01*
X91180000Y-125160000D02*
X90760000Y-124740000D01*
X93660000Y-125160000D02*
X91180000Y-125160000D01*
X95000000Y-123820000D02*
X93660000Y-125160000D01*
X105740000Y-123820000D02*
X95000000Y-123820000D01*
X105780000Y-123860000D02*
X105740000Y-123820000D01*
X68540000Y-140230000D02*
X67620000Y-139310000D01*
X67620000Y-139310000D02*
X45780000Y-139310000D01*
X45780000Y-139310000D02*
X44870000Y-140220000D01*
X30810000Y-134600000D02*
X29760000Y-134600000D01*
X30850000Y-134560000D02*
X30810000Y-134600000D01*
X69500000Y-139580000D02*
X69500000Y-140150000D01*
X68870000Y-138950000D02*
X69500000Y-139580000D01*
X45340000Y-138950000D02*
X68870000Y-138950000D01*
X42930000Y-141360000D02*
X45340000Y-138950000D01*
D42*
X33400000Y-133120000D02*
X32220000Y-133120000D01*
X32220000Y-133120000D02*
X31610000Y-133730000D01*
X33190000Y-145710000D02*
X33190000Y-148410000D01*
X35090000Y-150310000D02*
X53925000Y-150310000D01*
X33190000Y-148410000D02*
X35090000Y-150310000D01*
X30500000Y-159200000D02*
X30500000Y-157470000D01*
X28240000Y-155120000D02*
X28240000Y-150660000D01*
X28240000Y-150660000D02*
X33190000Y-145710000D01*
X28240000Y-155210000D02*
X28240000Y-155120000D01*
X30500000Y-157470000D02*
X28240000Y-155210000D01*
D36*
X53925000Y-149255000D02*
X53925000Y-150310000D01*
X55500000Y-147680000D02*
X53925000Y-149255000D01*
D45*
X30970000Y-139920000D02*
X33770000Y-139920000D01*
X30050000Y-139000000D02*
X30970000Y-139920000D01*
X34360000Y-137550000D02*
X34360000Y-139330000D01*
X34360000Y-139330000D02*
X33770000Y-139920000D01*
X33490000Y-135550000D02*
X33490000Y-136760000D01*
X34280000Y-137550000D02*
X34360000Y-137550000D01*
X34360000Y-137550000D02*
X37700000Y-137550000D01*
X33490000Y-136760000D02*
X34280000Y-137550000D01*
X27320000Y-133730000D02*
X31610000Y-133730000D01*
X33430000Y-135550000D02*
X33490000Y-135550000D01*
X33490000Y-135550000D02*
X37660000Y-135550000D01*
X31610000Y-133730000D02*
X33430000Y-135550000D01*
D36*
X93390000Y-124240000D02*
X93220000Y-124410000D01*
X93220000Y-124410000D02*
X91380000Y-124410000D01*
D42*
X131750000Y-136890000D02*
X131720000Y-136920000D01*
X131720000Y-136920000D02*
X127770000Y-136920000D01*
X127770000Y-136920000D02*
X127770000Y-138650000D01*
X127770000Y-138650000D02*
X126930000Y-139490000D01*
X127820000Y-136300000D02*
X127820000Y-135310000D01*
X127820000Y-135310000D02*
X126910000Y-134400000D01*
X127820000Y-136870000D02*
X127820000Y-136300000D01*
X127770000Y-136920000D02*
X127820000Y-136870000D01*
D44*
X36640000Y-155390000D02*
X37470000Y-156220000D01*
X37470000Y-156220000D02*
X37650000Y-156220000D01*
D35*
X36900000Y-133190000D02*
X36900000Y-132770000D01*
X38360000Y-134650000D02*
X36900000Y-133190000D01*
X29610000Y-137960000D02*
X31360000Y-137960000D01*
X27310000Y-135660000D02*
X29610000Y-137960000D01*
D36*
X30300000Y-156090000D02*
X30300000Y-151470000D01*
X33514998Y-159304998D02*
X30300000Y-156090000D01*
X37974998Y-159304998D02*
X33514998Y-159304998D01*
X40620000Y-161950000D02*
X37974998Y-159304998D01*
X50600000Y-161950000D02*
X40620000Y-161950000D01*
X51330000Y-162680000D02*
X50600000Y-161950000D01*
X29330000Y-155660000D02*
X29330000Y-151470000D01*
X33300000Y-159630000D02*
X29330000Y-155660000D01*
X37750000Y-159630000D02*
X33300000Y-159630000D01*
X40800000Y-162680000D02*
X37750000Y-159630000D01*
M02*
