G04 #@! TF.FileFunction,Legend,Bot*
%FSLAX46Y46*%
G04 Gerber Fmt 4.6, Leading zero omitted, Abs format (unit mm)*
G04 Created by KiCad (PCBNEW 4.0.7) date 06/15/18 17:29:42*
%MOMM*%
%LPD*%
G01*
G04 APERTURE LIST*
%ADD10C,0.100000*%
%ADD11C,0.300000*%
%ADD12C,0.150000*%
%ADD13C,0.120000*%
%ADD14C,0.125000*%
G04 APERTURE END LIST*
D10*
D11*
X113927142Y-153878571D02*
X113569999Y-155378571D01*
X113284285Y-154307143D01*
X112998571Y-155378571D01*
X112641428Y-153878571D01*
X112069999Y-155378571D02*
X112069999Y-154378571D01*
X112069999Y-153878571D02*
X112141428Y-153950000D01*
X112069999Y-154021429D01*
X111998571Y-153950000D01*
X112069999Y-153878571D01*
X112069999Y-154021429D01*
X111141427Y-155378571D02*
X111284285Y-155307143D01*
X111355713Y-155164286D01*
X111355713Y-153878571D01*
X110784285Y-154378571D02*
X110212856Y-154378571D01*
X110569999Y-155378571D02*
X110569999Y-154092857D01*
X110498571Y-153950000D01*
X110355713Y-153878571D01*
X110212856Y-153878571D01*
X109712856Y-155378571D02*
X109712856Y-154378571D01*
X109712856Y-154664286D02*
X109641428Y-154521429D01*
X109569999Y-154450000D01*
X109427142Y-154378571D01*
X109284285Y-154378571D01*
X108212857Y-155307143D02*
X108355714Y-155378571D01*
X108641428Y-155378571D01*
X108784285Y-155307143D01*
X108855714Y-155164286D01*
X108855714Y-154592857D01*
X108784285Y-154450000D01*
X108641428Y-154378571D01*
X108355714Y-154378571D01*
X108212857Y-154450000D01*
X108141428Y-154592857D01*
X108141428Y-154735714D01*
X108855714Y-154878571D01*
X106855714Y-155378571D02*
X106855714Y-153878571D01*
X106855714Y-155307143D02*
X106998571Y-155378571D01*
X107284285Y-155378571D01*
X107427143Y-155307143D01*
X107498571Y-155235714D01*
X107570000Y-155092857D01*
X107570000Y-154664286D01*
X107498571Y-154521429D01*
X107427143Y-154450000D01*
X107284285Y-154378571D01*
X106998571Y-154378571D01*
X106855714Y-154450000D01*
X104284285Y-155378571D02*
X104998571Y-155378571D01*
X104998571Y-153878571D01*
X103569999Y-155378571D02*
X103712857Y-155307143D01*
X103784285Y-155235714D01*
X103855714Y-155092857D01*
X103855714Y-154664286D01*
X103784285Y-154521429D01*
X103712857Y-154450000D01*
X103569999Y-154378571D01*
X103355714Y-154378571D01*
X103212857Y-154450000D01*
X103141428Y-154521429D01*
X103069999Y-154664286D01*
X103069999Y-155092857D01*
X103141428Y-155235714D01*
X103212857Y-155307143D01*
X103355714Y-155378571D01*
X103569999Y-155378571D01*
X102427142Y-154378571D02*
X102427142Y-155878571D01*
X102427142Y-154450000D02*
X102284285Y-154378571D01*
X101998571Y-154378571D01*
X101855714Y-154450000D01*
X101784285Y-154521429D01*
X101712856Y-154664286D01*
X101712856Y-155092857D01*
X101784285Y-155235714D01*
X101855714Y-155307143D01*
X101998571Y-155378571D01*
X102284285Y-155378571D01*
X102427142Y-155307143D01*
X100498571Y-155307143D02*
X100641428Y-155378571D01*
X100927142Y-155378571D01*
X101069999Y-155307143D01*
X101141428Y-155164286D01*
X101141428Y-154592857D01*
X101069999Y-154450000D01*
X100927142Y-154378571D01*
X100641428Y-154378571D01*
X100498571Y-154450000D01*
X100427142Y-154592857D01*
X100427142Y-154735714D01*
X101141428Y-154878571D01*
X99855714Y-155307143D02*
X99712857Y-155378571D01*
X99427142Y-155378571D01*
X99284285Y-155307143D01*
X99212857Y-155164286D01*
X99212857Y-155092857D01*
X99284285Y-154950000D01*
X99427142Y-154878571D01*
X99641428Y-154878571D01*
X99784285Y-154807143D01*
X99855714Y-154664286D01*
X99855714Y-154592857D01*
X99784285Y-154450000D01*
X99641428Y-154378571D01*
X99427142Y-154378571D01*
X99284285Y-154450000D01*
X97427142Y-154807143D02*
X96284285Y-154807143D01*
X93712856Y-155378571D02*
X94427142Y-155378571D01*
X94427142Y-153878571D01*
X92641428Y-155307143D02*
X92784285Y-155378571D01*
X93069999Y-155378571D01*
X93212856Y-155307143D01*
X93284285Y-155164286D01*
X93284285Y-154592857D01*
X93212856Y-154450000D01*
X93069999Y-154378571D01*
X92784285Y-154378571D01*
X92641428Y-154450000D01*
X92569999Y-154592857D01*
X92569999Y-154735714D01*
X93284285Y-154878571D01*
X91927142Y-154378571D02*
X91927142Y-155378571D01*
X91927142Y-154521429D02*
X91855714Y-154450000D01*
X91712856Y-154378571D01*
X91498571Y-154378571D01*
X91355714Y-154450000D01*
X91284285Y-154592857D01*
X91284285Y-155378571D01*
X90569999Y-154378571D02*
X90569999Y-155378571D01*
X90569999Y-154521429D02*
X90498571Y-154450000D01*
X90355713Y-154378571D01*
X90141428Y-154378571D01*
X89998571Y-154450000D01*
X89927142Y-154592857D01*
X89927142Y-155378571D01*
X88569999Y-155378571D02*
X88569999Y-154592857D01*
X88641428Y-154450000D01*
X88784285Y-154378571D01*
X89069999Y-154378571D01*
X89212856Y-154450000D01*
X88569999Y-155307143D02*
X88712856Y-155378571D01*
X89069999Y-155378571D01*
X89212856Y-155307143D01*
X89284285Y-155164286D01*
X89284285Y-155021429D01*
X89212856Y-154878571D01*
X89069999Y-154807143D01*
X88712856Y-154807143D01*
X88569999Y-154735714D01*
X87855713Y-155378571D02*
X87855713Y-154378571D01*
X87855713Y-154664286D02*
X87784285Y-154521429D01*
X87712856Y-154450000D01*
X87569999Y-154378571D01*
X87427142Y-154378571D01*
X87141428Y-154378571D02*
X86569999Y-154378571D01*
X86927142Y-153878571D02*
X86927142Y-155164286D01*
X86855714Y-155307143D01*
X86712856Y-155378571D01*
X86569999Y-155378571D01*
X84284285Y-155378571D02*
X84284285Y-153878571D01*
X84284285Y-155307143D02*
X84427142Y-155378571D01*
X84712856Y-155378571D01*
X84855714Y-155307143D01*
X84927142Y-155235714D01*
X84998571Y-155092857D01*
X84998571Y-154664286D01*
X84927142Y-154521429D01*
X84855714Y-154450000D01*
X84712856Y-154378571D01*
X84427142Y-154378571D01*
X84284285Y-154450000D01*
X82998571Y-155307143D02*
X83141428Y-155378571D01*
X83427142Y-155378571D01*
X83569999Y-155307143D01*
X83641428Y-155164286D01*
X83641428Y-154592857D01*
X83569999Y-154450000D01*
X83427142Y-154378571D01*
X83141428Y-154378571D01*
X82998571Y-154450000D01*
X82927142Y-154592857D01*
X82927142Y-154735714D01*
X83641428Y-154878571D01*
X80712857Y-153878571D02*
X80712857Y-154950000D01*
X80784285Y-155164286D01*
X80927142Y-155307143D01*
X81141428Y-155378571D01*
X81284285Y-155378571D01*
X79784285Y-155378571D02*
X79927143Y-155307143D01*
X79998571Y-155235714D01*
X80070000Y-155092857D01*
X80070000Y-154664286D01*
X79998571Y-154521429D01*
X79927143Y-154450000D01*
X79784285Y-154378571D01*
X79570000Y-154378571D01*
X79427143Y-154450000D01*
X79355714Y-154521429D01*
X79284285Y-154664286D01*
X79284285Y-155092857D01*
X79355714Y-155235714D01*
X79427143Y-155307143D01*
X79570000Y-155378571D01*
X79784285Y-155378571D01*
X78641428Y-154378571D02*
X78641428Y-155378571D01*
X78641428Y-154521429D02*
X78570000Y-154450000D01*
X78427142Y-154378571D01*
X78212857Y-154378571D01*
X78070000Y-154450000D01*
X77998571Y-154592857D01*
X77998571Y-155378571D01*
X76641428Y-154378571D02*
X76641428Y-155592857D01*
X76712857Y-155735714D01*
X76784285Y-155807143D01*
X76927142Y-155878571D01*
X77141428Y-155878571D01*
X77284285Y-155807143D01*
X76641428Y-155307143D02*
X76784285Y-155378571D01*
X77069999Y-155378571D01*
X77212857Y-155307143D01*
X77284285Y-155235714D01*
X77355714Y-155092857D01*
X77355714Y-154664286D01*
X77284285Y-154521429D01*
X77212857Y-154450000D01*
X77069999Y-154378571D01*
X76784285Y-154378571D01*
X76641428Y-154450000D01*
X74784285Y-154807143D02*
X73641428Y-154807143D01*
X70927142Y-155235714D02*
X70998571Y-155307143D01*
X71212857Y-155378571D01*
X71355714Y-155378571D01*
X71569999Y-155307143D01*
X71712857Y-155164286D01*
X71784285Y-155021429D01*
X71855714Y-154735714D01*
X71855714Y-154521429D01*
X71784285Y-154235714D01*
X71712857Y-154092857D01*
X71569999Y-153950000D01*
X71355714Y-153878571D01*
X71212857Y-153878571D01*
X70998571Y-153950000D01*
X70927142Y-154021429D01*
X69641428Y-155378571D02*
X69641428Y-154592857D01*
X69712857Y-154450000D01*
X69855714Y-154378571D01*
X70141428Y-154378571D01*
X70284285Y-154450000D01*
X69641428Y-155307143D02*
X69784285Y-155378571D01*
X70141428Y-155378571D01*
X70284285Y-155307143D01*
X70355714Y-155164286D01*
X70355714Y-155021429D01*
X70284285Y-154878571D01*
X70141428Y-154807143D01*
X69784285Y-154807143D01*
X69641428Y-154735714D01*
X68712856Y-155378571D02*
X68855714Y-155307143D01*
X68927142Y-155164286D01*
X68927142Y-153878571D01*
X68284285Y-154378571D02*
X67927142Y-155378571D01*
X67570000Y-154378571D01*
X66998571Y-155378571D02*
X66998571Y-154378571D01*
X66998571Y-153878571D02*
X67070000Y-153950000D01*
X66998571Y-154021429D01*
X66927143Y-153950000D01*
X66998571Y-153878571D01*
X66998571Y-154021429D01*
X66284285Y-154378571D02*
X66284285Y-155378571D01*
X66284285Y-154521429D02*
X66212857Y-154450000D01*
X66069999Y-154378571D01*
X65855714Y-154378571D01*
X65712857Y-154450000D01*
X65641428Y-154592857D01*
X65641428Y-155378571D01*
X62927142Y-155378571D02*
X63427142Y-154664286D01*
X63784285Y-155378571D02*
X63784285Y-153878571D01*
X63212857Y-153878571D01*
X63069999Y-153950000D01*
X62998571Y-154021429D01*
X62927142Y-154164286D01*
X62927142Y-154378571D01*
X62998571Y-154521429D01*
X63069999Y-154592857D01*
X63212857Y-154664286D01*
X63784285Y-154664286D01*
X62284285Y-155378571D02*
X62284285Y-154378571D01*
X62284285Y-153878571D02*
X62355714Y-153950000D01*
X62284285Y-154021429D01*
X62212857Y-153950000D01*
X62284285Y-153878571D01*
X62284285Y-154021429D01*
X60998571Y-155307143D02*
X61141428Y-155378571D01*
X61427142Y-155378571D01*
X61569999Y-155307143D01*
X61641428Y-155164286D01*
X61641428Y-154592857D01*
X61569999Y-154450000D01*
X61427142Y-154378571D01*
X61141428Y-154378571D01*
X60998571Y-154450000D01*
X60927142Y-154592857D01*
X60927142Y-154735714D01*
X61641428Y-154878571D01*
X60284285Y-155378571D02*
X60284285Y-153878571D01*
X60141428Y-154807143D02*
X59712857Y-155378571D01*
X59712857Y-154378571D02*
X60284285Y-154950000D01*
X58498571Y-155307143D02*
X58641428Y-155378571D01*
X58927142Y-155378571D01*
X59069999Y-155307143D01*
X59141428Y-155164286D01*
X59141428Y-154592857D01*
X59069999Y-154450000D01*
X58927142Y-154378571D01*
X58641428Y-154378571D01*
X58498571Y-154450000D01*
X58427142Y-154592857D01*
X58427142Y-154735714D01*
X59141428Y-154878571D01*
X57784285Y-155378571D02*
X57784285Y-154378571D01*
X57784285Y-154664286D02*
X57712857Y-154521429D01*
X57641428Y-154450000D01*
X57498571Y-154378571D01*
X57355714Y-154378571D01*
X56855714Y-155378571D02*
X56855714Y-153878571D01*
X56712857Y-154807143D02*
X56284286Y-155378571D01*
X56284286Y-154378571D02*
X56855714Y-154950000D01*
X112927141Y-157142857D02*
X113427141Y-157142857D01*
X113427141Y-157928571D02*
X113427141Y-156428571D01*
X112712855Y-156428571D01*
X112141427Y-157928571D02*
X112141427Y-156928571D01*
X112141427Y-157214286D02*
X112069999Y-157071429D01*
X111998570Y-157000000D01*
X111855713Y-156928571D01*
X111712856Y-156928571D01*
X110569999Y-157928571D02*
X110569999Y-157142857D01*
X110641428Y-157000000D01*
X110784285Y-156928571D01*
X111069999Y-156928571D01*
X111212856Y-157000000D01*
X110569999Y-157857143D02*
X110712856Y-157928571D01*
X111069999Y-157928571D01*
X111212856Y-157857143D01*
X111284285Y-157714286D01*
X111284285Y-157571429D01*
X111212856Y-157428571D01*
X111069999Y-157357143D01*
X110712856Y-157357143D01*
X110569999Y-157285714D01*
X109855713Y-156928571D02*
X109855713Y-157928571D01*
X109855713Y-157071429D02*
X109784285Y-157000000D01*
X109641427Y-156928571D01*
X109427142Y-156928571D01*
X109284285Y-157000000D01*
X109212856Y-157142857D01*
X109212856Y-157928571D01*
X108498570Y-157928571D02*
X108498570Y-156428571D01*
X108355713Y-157357143D02*
X107927142Y-157928571D01*
X107927142Y-156928571D02*
X108498570Y-157500000D01*
X106284284Y-156928571D02*
X105927141Y-157928571D01*
X105569999Y-156928571D01*
X104355713Y-157928571D02*
X104355713Y-157142857D01*
X104427142Y-157000000D01*
X104569999Y-156928571D01*
X104855713Y-156928571D01*
X104998570Y-157000000D01*
X104355713Y-157857143D02*
X104498570Y-157928571D01*
X104855713Y-157928571D01*
X104998570Y-157857143D01*
X105069999Y-157714286D01*
X105069999Y-157571429D01*
X104998570Y-157428571D01*
X104855713Y-157357143D01*
X104498570Y-157357143D01*
X104355713Y-157285714D01*
X103641427Y-156928571D02*
X103641427Y-157928571D01*
X103641427Y-157071429D02*
X103569999Y-157000000D01*
X103427141Y-156928571D01*
X103212856Y-156928571D01*
X103069999Y-157000000D01*
X102998570Y-157142857D01*
X102998570Y-157928571D01*
X101355713Y-156428571D02*
X100855713Y-157928571D01*
X100355713Y-156428571D01*
X99284285Y-157857143D02*
X99427142Y-157928571D01*
X99712856Y-157928571D01*
X99855713Y-157857143D01*
X99927142Y-157714286D01*
X99927142Y-157142857D01*
X99855713Y-157000000D01*
X99712856Y-156928571D01*
X99427142Y-156928571D01*
X99284285Y-157000000D01*
X99212856Y-157142857D01*
X99212856Y-157285714D01*
X99927142Y-157428571D01*
X97998571Y-157857143D02*
X98141428Y-157928571D01*
X98427142Y-157928571D01*
X98569999Y-157857143D01*
X98641428Y-157714286D01*
X98641428Y-157142857D01*
X98569999Y-157000000D01*
X98427142Y-156928571D01*
X98141428Y-156928571D01*
X97998571Y-157000000D01*
X97927142Y-157142857D01*
X97927142Y-157285714D01*
X98641428Y-157428571D01*
X97069999Y-157928571D02*
X97212857Y-157857143D01*
X97284285Y-157714286D01*
X97284285Y-156428571D01*
X95927143Y-157857143D02*
X96070000Y-157928571D01*
X96355714Y-157928571D01*
X96498571Y-157857143D01*
X96570000Y-157714286D01*
X96570000Y-157142857D01*
X96498571Y-157000000D01*
X96355714Y-156928571D01*
X96070000Y-156928571D01*
X95927143Y-157000000D01*
X95855714Y-157142857D01*
X95855714Y-157285714D01*
X96570000Y-157428571D01*
X95212857Y-156928571D02*
X95212857Y-157928571D01*
X95212857Y-157071429D02*
X95141429Y-157000000D01*
X94998571Y-156928571D01*
X94784286Y-156928571D01*
X94641429Y-157000000D01*
X94570000Y-157142857D01*
X94570000Y-157928571D01*
X92712857Y-157357143D02*
X91570000Y-157357143D01*
X89927143Y-156428571D02*
X89070000Y-156428571D01*
X89498571Y-157928571D02*
X89498571Y-156428571D01*
X88570000Y-157928571D02*
X88570000Y-156428571D01*
X87927143Y-157928571D02*
X87927143Y-157142857D01*
X87998572Y-157000000D01*
X88141429Y-156928571D01*
X88355714Y-156928571D01*
X88498572Y-157000000D01*
X88570000Y-157071429D01*
X87212857Y-157928571D02*
X87212857Y-156928571D01*
X87212857Y-156428571D02*
X87284286Y-156500000D01*
X87212857Y-156571429D01*
X87141429Y-156500000D01*
X87212857Y-156428571D01*
X87212857Y-156571429D01*
X85927143Y-157857143D02*
X86070000Y-157928571D01*
X86355714Y-157928571D01*
X86498571Y-157857143D01*
X86570000Y-157714286D01*
X86570000Y-157142857D01*
X86498571Y-157000000D01*
X86355714Y-156928571D01*
X86070000Y-156928571D01*
X85927143Y-157000000D01*
X85855714Y-157142857D01*
X85855714Y-157285714D01*
X86570000Y-157428571D01*
X85284286Y-157857143D02*
X85141429Y-157928571D01*
X84855714Y-157928571D01*
X84712857Y-157857143D01*
X84641429Y-157714286D01*
X84641429Y-157642857D01*
X84712857Y-157500000D01*
X84855714Y-157428571D01*
X85070000Y-157428571D01*
X85212857Y-157357143D01*
X85284286Y-157214286D01*
X85284286Y-157142857D01*
X85212857Y-157000000D01*
X85070000Y-156928571D01*
X84855714Y-156928571D01*
X84712857Y-157000000D01*
X82212857Y-157928571D02*
X82212857Y-156428571D01*
X82212857Y-157857143D02*
X82355714Y-157928571D01*
X82641428Y-157928571D01*
X82784286Y-157857143D01*
X82855714Y-157785714D01*
X82927143Y-157642857D01*
X82927143Y-157214286D01*
X82855714Y-157071429D01*
X82784286Y-157000000D01*
X82641428Y-156928571D01*
X82355714Y-156928571D01*
X82212857Y-157000000D01*
X80927143Y-157857143D02*
X81070000Y-157928571D01*
X81355714Y-157928571D01*
X81498571Y-157857143D01*
X81570000Y-157714286D01*
X81570000Y-157142857D01*
X81498571Y-157000000D01*
X81355714Y-156928571D01*
X81070000Y-156928571D01*
X80927143Y-157000000D01*
X80855714Y-157142857D01*
X80855714Y-157285714D01*
X81570000Y-157428571D01*
X78570000Y-157142857D02*
X78355714Y-157214286D01*
X78284286Y-157285714D01*
X78212857Y-157428571D01*
X78212857Y-157642857D01*
X78284286Y-157785714D01*
X78355714Y-157857143D01*
X78498572Y-157928571D01*
X79070000Y-157928571D01*
X79070000Y-156428571D01*
X78570000Y-156428571D01*
X78427143Y-156500000D01*
X78355714Y-156571429D01*
X78284286Y-156714286D01*
X78284286Y-156857143D01*
X78355714Y-157000000D01*
X78427143Y-157071429D01*
X78570000Y-157142857D01*
X79070000Y-157142857D01*
X77355714Y-157928571D02*
X77498572Y-157857143D01*
X77570000Y-157785714D01*
X77641429Y-157642857D01*
X77641429Y-157214286D01*
X77570000Y-157071429D01*
X77498572Y-157000000D01*
X77355714Y-156928571D01*
X77141429Y-156928571D01*
X76998572Y-157000000D01*
X76927143Y-157071429D01*
X76855714Y-157214286D01*
X76855714Y-157642857D01*
X76927143Y-157785714D01*
X76998572Y-157857143D01*
X77141429Y-157928571D01*
X77355714Y-157928571D01*
X75641429Y-157857143D02*
X75784286Y-157928571D01*
X76070000Y-157928571D01*
X76212857Y-157857143D01*
X76284286Y-157714286D01*
X76284286Y-157142857D01*
X76212857Y-157000000D01*
X76070000Y-156928571D01*
X75784286Y-156928571D01*
X75641429Y-157000000D01*
X75570000Y-157142857D01*
X75570000Y-157285714D01*
X76284286Y-157428571D01*
X74927143Y-157928571D02*
X74927143Y-156928571D01*
X74927143Y-157214286D02*
X74855715Y-157071429D01*
X74784286Y-157000000D01*
X74641429Y-156928571D01*
X74498572Y-156928571D01*
X72855715Y-157357143D02*
X71712858Y-157357143D01*
X69855715Y-157928571D02*
X69855715Y-156428571D01*
X68998572Y-157928571D01*
X68998572Y-156428571D01*
X68284286Y-157928571D02*
X68284286Y-156928571D01*
X68284286Y-156428571D02*
X68355715Y-156500000D01*
X68284286Y-156571429D01*
X68212858Y-156500000D01*
X68284286Y-156428571D01*
X68284286Y-156571429D01*
X66998572Y-157857143D02*
X67141429Y-157928571D01*
X67427143Y-157928571D01*
X67570000Y-157857143D01*
X67641429Y-157714286D01*
X67641429Y-157142857D01*
X67570000Y-157000000D01*
X67427143Y-156928571D01*
X67141429Y-156928571D01*
X66998572Y-157000000D01*
X66927143Y-157142857D01*
X66927143Y-157285714D01*
X67641429Y-157428571D01*
X66070000Y-157928571D02*
X66212858Y-157857143D01*
X66284286Y-157714286D01*
X66284286Y-156428571D01*
X65570001Y-157857143D02*
X65427144Y-157928571D01*
X65141429Y-157928571D01*
X64998572Y-157857143D01*
X64927144Y-157714286D01*
X64927144Y-157642857D01*
X64998572Y-157500000D01*
X65141429Y-157428571D01*
X65355715Y-157428571D01*
X65498572Y-157357143D01*
X65570001Y-157214286D01*
X65570001Y-157142857D01*
X65498572Y-157000000D01*
X65355715Y-156928571D01*
X65141429Y-156928571D01*
X64998572Y-157000000D01*
X62641429Y-157142857D02*
X63141429Y-157142857D01*
X63141429Y-157928571D02*
X63141429Y-156428571D01*
X62427143Y-156428571D01*
X61212858Y-157928571D02*
X61212858Y-157142857D01*
X61284287Y-157000000D01*
X61427144Y-156928571D01*
X61712858Y-156928571D01*
X61855715Y-157000000D01*
X61212858Y-157857143D02*
X61355715Y-157928571D01*
X61712858Y-157928571D01*
X61855715Y-157857143D01*
X61927144Y-157714286D01*
X61927144Y-157571429D01*
X61855715Y-157428571D01*
X61712858Y-157357143D01*
X61355715Y-157357143D01*
X61212858Y-157285714D01*
X60498572Y-157928571D02*
X60498572Y-156428571D01*
X60355715Y-157357143D02*
X59927144Y-157928571D01*
X59927144Y-156928571D02*
X60498572Y-157500000D01*
X59284286Y-157928571D02*
X59284286Y-156428571D01*
X59141429Y-157357143D02*
X58712858Y-157928571D01*
X58712858Y-156928571D02*
X59284286Y-157500000D01*
X57498572Y-157857143D02*
X57641429Y-157928571D01*
X57927143Y-157928571D01*
X58070000Y-157857143D01*
X58141429Y-157714286D01*
X58141429Y-157142857D01*
X58070000Y-157000000D01*
X57927143Y-156928571D01*
X57641429Y-156928571D01*
X57498572Y-157000000D01*
X57427143Y-157142857D01*
X57427143Y-157285714D01*
X58141429Y-157428571D01*
X56570000Y-157928571D02*
X56712858Y-157857143D01*
X56784286Y-157714286D01*
X56784286Y-156428571D01*
X99891426Y-160478571D02*
X99891426Y-158978571D01*
X99319998Y-158978571D01*
X99177140Y-159050000D01*
X99105712Y-159121429D01*
X99034283Y-159264286D01*
X99034283Y-159478571D01*
X99105712Y-159621429D01*
X99177140Y-159692857D01*
X99319998Y-159764286D01*
X99891426Y-159764286D01*
X98391426Y-160478571D02*
X98391426Y-158978571D01*
X97891426Y-160050000D01*
X97391426Y-158978571D01*
X97391426Y-160478571D01*
X96748569Y-160407143D02*
X96534283Y-160478571D01*
X96177140Y-160478571D01*
X96034283Y-160407143D01*
X95962854Y-160335714D01*
X95891426Y-160192857D01*
X95891426Y-160050000D01*
X95962854Y-159907143D01*
X96034283Y-159835714D01*
X96177140Y-159764286D01*
X96462854Y-159692857D01*
X96605712Y-159621429D01*
X96677140Y-159550000D01*
X96748569Y-159407143D01*
X96748569Y-159264286D01*
X96677140Y-159121429D01*
X96605712Y-159050000D01*
X96462854Y-158978571D01*
X96105712Y-158978571D01*
X95891426Y-159050000D01*
X94319998Y-158978571D02*
X93819998Y-160478571D01*
X93319998Y-158978571D01*
X92248570Y-160407143D02*
X92391427Y-160478571D01*
X92677141Y-160478571D01*
X92819998Y-160407143D01*
X92891427Y-160264286D01*
X92891427Y-159692857D01*
X92819998Y-159550000D01*
X92677141Y-159478571D01*
X92391427Y-159478571D01*
X92248570Y-159550000D01*
X92177141Y-159692857D01*
X92177141Y-159835714D01*
X92891427Y-159978571D01*
X91534284Y-160478571D02*
X91534284Y-159478571D01*
X91534284Y-159764286D02*
X91462856Y-159621429D01*
X91391427Y-159550000D01*
X91248570Y-159478571D01*
X91105713Y-159478571D01*
X90677142Y-160407143D02*
X90534285Y-160478571D01*
X90248570Y-160478571D01*
X90105713Y-160407143D01*
X90034285Y-160264286D01*
X90034285Y-160192857D01*
X90105713Y-160050000D01*
X90248570Y-159978571D01*
X90462856Y-159978571D01*
X90605713Y-159907143D01*
X90677142Y-159764286D01*
X90677142Y-159692857D01*
X90605713Y-159550000D01*
X90462856Y-159478571D01*
X90248570Y-159478571D01*
X90105713Y-159550000D01*
X89391427Y-160478571D02*
X89391427Y-159478571D01*
X89391427Y-158978571D02*
X89462856Y-159050000D01*
X89391427Y-159121429D01*
X89319999Y-159050000D01*
X89391427Y-158978571D01*
X89391427Y-159121429D01*
X88105713Y-160407143D02*
X88248570Y-160478571D01*
X88534284Y-160478571D01*
X88677141Y-160407143D01*
X88748570Y-160264286D01*
X88748570Y-159692857D01*
X88677141Y-159550000D01*
X88534284Y-159478571D01*
X88248570Y-159478571D01*
X88105713Y-159550000D01*
X88034284Y-159692857D01*
X88034284Y-159835714D01*
X88748570Y-159978571D01*
X85462856Y-160478571D02*
X86319999Y-160478571D01*
X85891427Y-160478571D02*
X85891427Y-158978571D01*
X86034284Y-159192857D01*
X86177142Y-159335714D01*
X86319999Y-159407143D01*
X83677142Y-159907143D02*
X82534285Y-159907143D01*
X80177142Y-159692857D02*
X79962856Y-159764286D01*
X79891428Y-159835714D01*
X79819999Y-159978571D01*
X79819999Y-160192857D01*
X79891428Y-160335714D01*
X79962856Y-160407143D01*
X80105714Y-160478571D01*
X80677142Y-160478571D01*
X80677142Y-158978571D01*
X80177142Y-158978571D01*
X80034285Y-159050000D01*
X79962856Y-159121429D01*
X79891428Y-159264286D01*
X79891428Y-159407143D01*
X79962856Y-159550000D01*
X80034285Y-159621429D01*
X80177142Y-159692857D01*
X80677142Y-159692857D01*
X79248571Y-160050000D02*
X78534285Y-160050000D01*
X79391428Y-160478571D02*
X78891428Y-158978571D01*
X78391428Y-160478571D01*
X77891428Y-160478571D02*
X77891428Y-158978571D01*
X77320000Y-158978571D01*
X77177142Y-159050000D01*
X77105714Y-159121429D01*
X77034285Y-159264286D01*
X77034285Y-159478571D01*
X77105714Y-159621429D01*
X77177142Y-159692857D01*
X77320000Y-159764286D01*
X77891428Y-159764286D01*
X75320000Y-159121429D02*
X75248571Y-159050000D01*
X75105714Y-158978571D01*
X74748571Y-158978571D01*
X74605714Y-159050000D01*
X74534285Y-159121429D01*
X74462857Y-159264286D01*
X74462857Y-159407143D01*
X74534285Y-159621429D01*
X75391428Y-160478571D01*
X74462857Y-160478571D01*
X73534286Y-158978571D02*
X73391429Y-158978571D01*
X73248572Y-159050000D01*
X73177143Y-159121429D01*
X73105714Y-159264286D01*
X73034286Y-159550000D01*
X73034286Y-159907143D01*
X73105714Y-160192857D01*
X73177143Y-160335714D01*
X73248572Y-160407143D01*
X73391429Y-160478571D01*
X73534286Y-160478571D01*
X73677143Y-160407143D01*
X73748572Y-160335714D01*
X73820000Y-160192857D01*
X73891429Y-159907143D01*
X73891429Y-159550000D01*
X73820000Y-159264286D01*
X73748572Y-159121429D01*
X73677143Y-159050000D01*
X73534286Y-158978571D01*
X71605715Y-160478571D02*
X72462858Y-160478571D01*
X72034286Y-160478571D02*
X72034286Y-158978571D01*
X72177143Y-159192857D01*
X72320001Y-159335714D01*
X72462858Y-159407143D01*
X70748572Y-159621429D02*
X70891430Y-159550000D01*
X70962858Y-159478571D01*
X71034287Y-159335714D01*
X71034287Y-159264286D01*
X70962858Y-159121429D01*
X70891430Y-159050000D01*
X70748572Y-158978571D01*
X70462858Y-158978571D01*
X70320001Y-159050000D01*
X70248572Y-159121429D01*
X70177144Y-159264286D01*
X70177144Y-159335714D01*
X70248572Y-159478571D01*
X70320001Y-159550000D01*
X70462858Y-159621429D01*
X70748572Y-159621429D01*
X70891430Y-159692857D01*
X70962858Y-159764286D01*
X71034287Y-159907143D01*
X71034287Y-160192857D01*
X70962858Y-160335714D01*
X70891430Y-160407143D01*
X70748572Y-160478571D01*
X70462858Y-160478571D01*
X70320001Y-160407143D01*
X70248572Y-160335714D01*
X70177144Y-160192857D01*
X70177144Y-159907143D01*
X70248572Y-159764286D01*
X70320001Y-159692857D01*
X70462858Y-159621429D01*
D12*
X25000000Y-164000000D02*
X25000000Y-123000000D01*
X158000000Y-164000000D02*
X25000000Y-164000000D01*
X158000000Y-123000000D02*
X158000000Y-164000000D01*
X25000000Y-123000000D02*
X158000000Y-123000000D01*
D13*
X35060000Y-136460000D02*
X34360000Y-136460000D01*
X34360000Y-137660000D02*
X35060000Y-137660000D01*
X119750000Y-149810000D02*
X119250000Y-149810000D01*
X119250000Y-150610000D02*
X119750000Y-150610000D01*
X110330000Y-136300000D02*
X110330000Y-135300000D01*
X112030000Y-135300000D02*
X112030000Y-136300000D01*
X112130000Y-136300000D02*
X112130000Y-135300000D01*
X113830000Y-135300000D02*
X113830000Y-136300000D01*
X147140000Y-142810000D02*
X147140000Y-142310000D01*
X146340000Y-142310000D02*
X146340000Y-142810000D01*
X155220000Y-144790000D02*
X154720000Y-144790000D01*
X154720000Y-145590000D02*
X155220000Y-145590000D01*
X103890000Y-124170000D02*
X103190000Y-124170000D01*
X103190000Y-125370000D02*
X103890000Y-125370000D01*
D12*
X118285000Y-144825000D02*
X118510000Y-144825000D01*
X118285000Y-148175000D02*
X118585000Y-148175000D01*
X121635000Y-148175000D02*
X121335000Y-148175000D01*
X121635000Y-144825000D02*
X121335000Y-144825000D01*
X118285000Y-144825000D02*
X118285000Y-148175000D01*
X121635000Y-144825000D02*
X121635000Y-148175000D01*
X118510000Y-144825000D02*
X118510000Y-143600000D01*
X120905000Y-131725000D02*
X121130000Y-131725000D01*
X120905000Y-135075000D02*
X121205000Y-135075000D01*
X124255000Y-135075000D02*
X123955000Y-135075000D01*
X124255000Y-131725000D02*
X123955000Y-131725000D01*
X120905000Y-131725000D02*
X120905000Y-135075000D01*
X124255000Y-131725000D02*
X124255000Y-135075000D01*
X121130000Y-131725000D02*
X121130000Y-130500000D01*
X133725000Y-133505000D02*
X133950000Y-133505000D01*
X133725000Y-136855000D02*
X134025000Y-136855000D01*
X137075000Y-136855000D02*
X136775000Y-136855000D01*
X137075000Y-133505000D02*
X136775000Y-133505000D01*
X133725000Y-133505000D02*
X133725000Y-136855000D01*
X137075000Y-133505000D02*
X137075000Y-136855000D01*
X133950000Y-133505000D02*
X133950000Y-132280000D01*
D13*
X116890000Y-151190000D02*
X116890000Y-150950000D01*
X117770000Y-150950000D02*
X117770000Y-151190000D01*
X120890000Y-151410000D02*
X120890000Y-151170000D01*
X121770000Y-151170000D02*
X121770000Y-151410000D01*
X156140000Y-145590000D02*
X155140000Y-145590000D01*
X155140000Y-146950000D02*
X156140000Y-146950000D01*
X118450000Y-134600000D02*
X118450000Y-136600000D01*
X120590000Y-136600000D02*
X120590000Y-134600000D01*
X116190000Y-134600000D02*
X116190000Y-136600000D01*
X118330000Y-136600000D02*
X118330000Y-134600000D01*
X116080000Y-136330000D02*
X116080000Y-134330000D01*
X113940000Y-134330000D02*
X113940000Y-136330000D01*
X147220000Y-143500000D02*
X147220000Y-143740000D01*
X146340000Y-143740000D02*
X146340000Y-143500000D01*
X147470000Y-140100000D02*
X147470000Y-139860000D01*
X148350000Y-139860000D02*
X148350000Y-140100000D01*
X100210000Y-134510000D02*
X100710000Y-134510000D01*
X100710000Y-135570000D02*
X100210000Y-135570000D01*
D12*
X147385000Y-140675000D02*
X147160000Y-140675000D01*
X147385000Y-137325000D02*
X147085000Y-137325000D01*
X144035000Y-137325000D02*
X144335000Y-137325000D01*
X144035000Y-140675000D02*
X144335000Y-140675000D01*
X147385000Y-140675000D02*
X147385000Y-137325000D01*
X144035000Y-140675000D02*
X144035000Y-137325000D01*
X147160000Y-140675000D02*
X147160000Y-141900000D01*
D13*
X28140000Y-147190000D02*
X27640000Y-147190000D01*
X27640000Y-147990000D02*
X28140000Y-147990000D01*
X27720000Y-147990000D02*
X26720000Y-147990000D01*
X26720000Y-149350000D02*
X27720000Y-149350000D01*
X119630000Y-129060000D02*
X119630000Y-130760000D01*
X119630000Y-130760000D02*
X117080000Y-130760000D01*
X119630000Y-129060000D02*
X117080000Y-129060000D01*
X151170000Y-130450000D02*
X151170000Y-128750000D01*
X151170000Y-128750000D02*
X153720000Y-128750000D01*
X151170000Y-130450000D02*
X153720000Y-130450000D01*
X128680000Y-130570000D02*
X128680000Y-128870000D01*
X128680000Y-128870000D02*
X131230000Y-128870000D01*
X128680000Y-130570000D02*
X131230000Y-130570000D01*
X122280000Y-156060000D02*
X122280000Y-157760000D01*
X122280000Y-157760000D02*
X119730000Y-157760000D01*
X122280000Y-156060000D02*
X119730000Y-156060000D01*
X95270000Y-143750000D02*
X94570000Y-143750000D01*
X94570000Y-144950000D02*
X95270000Y-144950000D01*
X115390000Y-147050000D02*
X115390000Y-147750000D01*
X116590000Y-147750000D02*
X116590000Y-147050000D01*
X137930000Y-136270000D02*
X138630000Y-136270000D01*
X138630000Y-135070000D02*
X137930000Y-135070000D01*
X126280000Y-135950000D02*
X126280000Y-135250000D01*
X125080000Y-135250000D02*
X125080000Y-135950000D01*
X144390000Y-143750000D02*
X143690000Y-143750000D01*
X143690000Y-144950000D02*
X144390000Y-144950000D01*
X116390000Y-146900000D02*
X116390000Y-147900000D01*
X117750000Y-147900000D02*
X117750000Y-146900000D01*
X124110000Y-132680000D02*
X124110000Y-133680000D01*
X125470000Y-133680000D02*
X125470000Y-132680000D01*
X137630000Y-135260000D02*
X138630000Y-135260000D01*
X138630000Y-133900000D02*
X137630000Y-133900000D01*
X144730000Y-142190000D02*
X143730000Y-142190000D01*
X143730000Y-143550000D02*
X144730000Y-143550000D01*
D14*
X35031428Y-138738571D02*
X35055238Y-138762381D01*
X35126666Y-138786190D01*
X35174285Y-138786190D01*
X35245714Y-138762381D01*
X35293333Y-138714762D01*
X35317142Y-138667143D01*
X35340952Y-138571905D01*
X35340952Y-138500476D01*
X35317142Y-138405238D01*
X35293333Y-138357619D01*
X35245714Y-138310000D01*
X35174285Y-138286190D01*
X35126666Y-138286190D01*
X35055238Y-138310000D01*
X35031428Y-138333810D01*
X34602857Y-138286190D02*
X34698095Y-138286190D01*
X34745714Y-138310000D01*
X34769523Y-138333810D01*
X34817142Y-138405238D01*
X34840952Y-138500476D01*
X34840952Y-138690952D01*
X34817142Y-138738571D01*
X34793333Y-138762381D01*
X34745714Y-138786190D01*
X34650476Y-138786190D01*
X34602857Y-138762381D01*
X34579047Y-138738571D01*
X34555238Y-138690952D01*
X34555238Y-138571905D01*
X34579047Y-138524286D01*
X34602857Y-138500476D01*
X34650476Y-138476667D01*
X34745714Y-138476667D01*
X34793333Y-138500476D01*
X34817142Y-138524286D01*
X34840952Y-138571905D01*
X34364762Y-138333810D02*
X34340952Y-138310000D01*
X34293333Y-138286190D01*
X34174286Y-138286190D01*
X34126667Y-138310000D01*
X34102857Y-138333810D01*
X34079048Y-138381429D01*
X34079048Y-138429048D01*
X34102857Y-138500476D01*
X34388571Y-138786190D01*
X34079048Y-138786190D01*
X119821428Y-151658571D02*
X119845238Y-151682381D01*
X119916666Y-151706190D01*
X119964285Y-151706190D01*
X120035714Y-151682381D01*
X120083333Y-151634762D01*
X120107142Y-151587143D01*
X120130952Y-151491905D01*
X120130952Y-151420476D01*
X120107142Y-151325238D01*
X120083333Y-151277619D01*
X120035714Y-151230000D01*
X119964285Y-151206190D01*
X119916666Y-151206190D01*
X119845238Y-151230000D01*
X119821428Y-151253810D01*
X119630952Y-151253810D02*
X119607142Y-151230000D01*
X119559523Y-151206190D01*
X119440476Y-151206190D01*
X119392857Y-151230000D01*
X119369047Y-151253810D01*
X119345238Y-151301429D01*
X119345238Y-151349048D01*
X119369047Y-151420476D01*
X119654761Y-151706190D01*
X119345238Y-151706190D01*
X118916667Y-151372857D02*
X118916667Y-151706190D01*
X119035714Y-151182381D02*
X119154762Y-151539524D01*
X118845238Y-151539524D01*
X109858571Y-135478572D02*
X109882381Y-135454762D01*
X109906190Y-135383334D01*
X109906190Y-135335715D01*
X109882381Y-135264286D01*
X109834762Y-135216667D01*
X109787143Y-135192858D01*
X109691905Y-135169048D01*
X109620476Y-135169048D01*
X109525238Y-135192858D01*
X109477619Y-135216667D01*
X109430000Y-135264286D01*
X109406190Y-135335715D01*
X109406190Y-135383334D01*
X109430000Y-135454762D01*
X109453810Y-135478572D01*
X109572857Y-135907143D02*
X109906190Y-135907143D01*
X109382381Y-135788096D02*
X109739524Y-135669048D01*
X109739524Y-135978572D01*
X109406190Y-136121429D02*
X109406190Y-136430952D01*
X109596667Y-136264286D01*
X109596667Y-136335714D01*
X109620476Y-136383333D01*
X109644286Y-136407143D01*
X109691905Y-136430952D01*
X109810952Y-136430952D01*
X109858571Y-136407143D01*
X109882381Y-136383333D01*
X109906190Y-136335714D01*
X109906190Y-136192857D01*
X109882381Y-136145238D01*
X109858571Y-136121429D01*
X111658571Y-135478572D02*
X111682381Y-135454762D01*
X111706190Y-135383334D01*
X111706190Y-135335715D01*
X111682381Y-135264286D01*
X111634762Y-135216667D01*
X111587143Y-135192858D01*
X111491905Y-135169048D01*
X111420476Y-135169048D01*
X111325238Y-135192858D01*
X111277619Y-135216667D01*
X111230000Y-135264286D01*
X111206190Y-135335715D01*
X111206190Y-135383334D01*
X111230000Y-135454762D01*
X111253810Y-135478572D01*
X111372857Y-135907143D02*
X111706190Y-135907143D01*
X111182381Y-135788096D02*
X111539524Y-135669048D01*
X111539524Y-135978572D01*
X111206190Y-136407143D02*
X111206190Y-136169048D01*
X111444286Y-136145238D01*
X111420476Y-136169048D01*
X111396667Y-136216667D01*
X111396667Y-136335714D01*
X111420476Y-136383333D01*
X111444286Y-136407143D01*
X111491905Y-136430952D01*
X111610952Y-136430952D01*
X111658571Y-136407143D01*
X111682381Y-136383333D01*
X111706190Y-136335714D01*
X111706190Y-136216667D01*
X111682381Y-136169048D01*
X111658571Y-136145238D01*
X145648571Y-142238572D02*
X145672381Y-142214762D01*
X145696190Y-142143334D01*
X145696190Y-142095715D01*
X145672381Y-142024286D01*
X145624762Y-141976667D01*
X145577143Y-141952858D01*
X145481905Y-141929048D01*
X145410476Y-141929048D01*
X145315238Y-141952858D01*
X145267619Y-141976667D01*
X145220000Y-142024286D01*
X145196190Y-142095715D01*
X145196190Y-142143334D01*
X145220000Y-142214762D01*
X145243810Y-142238572D01*
X145196190Y-142690953D02*
X145196190Y-142452858D01*
X145434286Y-142429048D01*
X145410476Y-142452858D01*
X145386667Y-142500477D01*
X145386667Y-142619524D01*
X145410476Y-142667143D01*
X145434286Y-142690953D01*
X145481905Y-142714762D01*
X145600952Y-142714762D01*
X145648571Y-142690953D01*
X145672381Y-142667143D01*
X145696190Y-142619524D01*
X145696190Y-142500477D01*
X145672381Y-142452858D01*
X145648571Y-142429048D01*
X145362857Y-143143333D02*
X145696190Y-143143333D01*
X145172381Y-143024286D02*
X145529524Y-142905238D01*
X145529524Y-143214762D01*
X155291428Y-146638571D02*
X155315238Y-146662381D01*
X155386666Y-146686190D01*
X155434285Y-146686190D01*
X155505714Y-146662381D01*
X155553333Y-146614762D01*
X155577142Y-146567143D01*
X155600952Y-146471905D01*
X155600952Y-146400476D01*
X155577142Y-146305238D01*
X155553333Y-146257619D01*
X155505714Y-146210000D01*
X155434285Y-146186190D01*
X155386666Y-146186190D01*
X155315238Y-146210000D01*
X155291428Y-146233810D01*
X154839047Y-146186190D02*
X155077142Y-146186190D01*
X155100952Y-146424286D01*
X155077142Y-146400476D01*
X155029523Y-146376667D01*
X154910476Y-146376667D01*
X154862857Y-146400476D01*
X154839047Y-146424286D01*
X154815238Y-146471905D01*
X154815238Y-146590952D01*
X154839047Y-146638571D01*
X154862857Y-146662381D01*
X154910476Y-146686190D01*
X155029523Y-146686190D01*
X155077142Y-146662381D01*
X155100952Y-146638571D01*
X154386667Y-146186190D02*
X154481905Y-146186190D01*
X154529524Y-146210000D01*
X154553333Y-146233810D01*
X154600952Y-146305238D01*
X154624762Y-146400476D01*
X154624762Y-146590952D01*
X154600952Y-146638571D01*
X154577143Y-146662381D01*
X154529524Y-146686190D01*
X154434286Y-146686190D01*
X154386667Y-146662381D01*
X154362857Y-146638571D01*
X154339048Y-146590952D01*
X154339048Y-146471905D01*
X154362857Y-146424286D01*
X154386667Y-146400476D01*
X154434286Y-146376667D01*
X154529524Y-146376667D01*
X154577143Y-146400476D01*
X154600952Y-146424286D01*
X154624762Y-146471905D01*
X104444761Y-126448571D02*
X104468571Y-126472381D01*
X104539999Y-126496190D01*
X104587618Y-126496190D01*
X104659047Y-126472381D01*
X104706666Y-126424762D01*
X104730475Y-126377143D01*
X104754285Y-126281905D01*
X104754285Y-126210476D01*
X104730475Y-126115238D01*
X104706666Y-126067619D01*
X104659047Y-126020000D01*
X104587618Y-125996190D01*
X104539999Y-125996190D01*
X104468571Y-126020000D01*
X104444761Y-126043810D01*
X104230475Y-126496190D02*
X104230475Y-125996190D01*
X104230475Y-126186667D02*
X104182856Y-126162857D01*
X104087618Y-126162857D01*
X104039999Y-126186667D01*
X104016190Y-126210476D01*
X103992380Y-126258095D01*
X103992380Y-126400952D01*
X104016190Y-126448571D01*
X104039999Y-126472381D01*
X104087618Y-126496190D01*
X104182856Y-126496190D01*
X104230475Y-126472381D01*
X103706666Y-126496190D02*
X103754285Y-126472381D01*
X103778094Y-126448571D01*
X103801904Y-126400952D01*
X103801904Y-126258095D01*
X103778094Y-126210476D01*
X103754285Y-126186667D01*
X103706666Y-126162857D01*
X103635237Y-126162857D01*
X103587618Y-126186667D01*
X103563809Y-126210476D01*
X103539999Y-126258095D01*
X103539999Y-126400952D01*
X103563809Y-126448571D01*
X103587618Y-126472381D01*
X103635237Y-126496190D01*
X103706666Y-126496190D01*
X103254285Y-126496190D02*
X103301904Y-126472381D01*
X103325713Y-126448571D01*
X103349523Y-126400952D01*
X103349523Y-126258095D01*
X103325713Y-126210476D01*
X103301904Y-126186667D01*
X103254285Y-126162857D01*
X103182856Y-126162857D01*
X103135237Y-126186667D01*
X103111428Y-126210476D01*
X103087618Y-126258095D01*
X103087618Y-126400952D01*
X103111428Y-126448571D01*
X103135237Y-126472381D01*
X103182856Y-126496190D01*
X103254285Y-126496190D01*
X102944761Y-126162857D02*
X102754285Y-126162857D01*
X102873332Y-125996190D02*
X102873332Y-126424762D01*
X102849523Y-126472381D01*
X102801904Y-126496190D01*
X102754285Y-126496190D01*
X102611428Y-126043810D02*
X102587618Y-126020000D01*
X102539999Y-125996190D01*
X102420952Y-125996190D01*
X102373333Y-126020000D01*
X102349523Y-126043810D01*
X102325714Y-126091429D01*
X102325714Y-126139048D01*
X102349523Y-126210476D01*
X102635237Y-126496190D01*
X102325714Y-126496190D01*
X117586190Y-145785715D02*
X117086190Y-145785715D01*
X117586190Y-146023810D02*
X117086190Y-146023810D01*
X117586190Y-146309524D01*
X117086190Y-146309524D01*
X117443333Y-146523810D02*
X117443333Y-146761905D01*
X117586190Y-146476191D02*
X117086190Y-146642858D01*
X117586190Y-146809524D01*
X117133810Y-146952381D02*
X117110000Y-146976191D01*
X117086190Y-147023810D01*
X117086190Y-147142857D01*
X117110000Y-147190476D01*
X117133810Y-147214286D01*
X117181429Y-147238095D01*
X117229048Y-147238095D01*
X117300476Y-147214286D01*
X117586190Y-146928572D01*
X117586190Y-147238095D01*
X120206190Y-132685715D02*
X119706190Y-132685715D01*
X120206190Y-132923810D02*
X119706190Y-132923810D01*
X120206190Y-133209524D01*
X119706190Y-133209524D01*
X120063333Y-133423810D02*
X120063333Y-133661905D01*
X120206190Y-133376191D02*
X119706190Y-133542858D01*
X120206190Y-133709524D01*
X119706190Y-133828572D02*
X119706190Y-134138095D01*
X119896667Y-133971429D01*
X119896667Y-134042857D01*
X119920476Y-134090476D01*
X119944286Y-134114286D01*
X119991905Y-134138095D01*
X120110952Y-134138095D01*
X120158571Y-134114286D01*
X120182381Y-134090476D01*
X120206190Y-134042857D01*
X120206190Y-133900000D01*
X120182381Y-133852381D01*
X120158571Y-133828572D01*
X133026190Y-134465715D02*
X132526190Y-134465715D01*
X133026190Y-134703810D02*
X132526190Y-134703810D01*
X133026190Y-134989524D01*
X132526190Y-134989524D01*
X132883333Y-135203810D02*
X132883333Y-135441905D01*
X133026190Y-135156191D02*
X132526190Y-135322858D01*
X133026190Y-135489524D01*
X132692857Y-135870476D02*
X133026190Y-135870476D01*
X132502381Y-135751429D02*
X132859524Y-135632381D01*
X132859524Y-135941905D01*
X116306190Y-150748572D02*
X116068095Y-150581905D01*
X116306190Y-150462858D02*
X115806190Y-150462858D01*
X115806190Y-150653334D01*
X115830000Y-150700953D01*
X115853810Y-150724762D01*
X115901429Y-150748572D01*
X115972857Y-150748572D01*
X116020476Y-150724762D01*
X116044286Y-150700953D01*
X116068095Y-150653334D01*
X116068095Y-150462858D01*
X116306190Y-151224762D02*
X116306190Y-150939048D01*
X116306190Y-151081905D02*
X115806190Y-151081905D01*
X115877619Y-151034286D01*
X115925238Y-150986667D01*
X115949048Y-150939048D01*
X116020476Y-151510476D02*
X115996667Y-151462857D01*
X115972857Y-151439048D01*
X115925238Y-151415238D01*
X115901429Y-151415238D01*
X115853810Y-151439048D01*
X115830000Y-151462857D01*
X115806190Y-151510476D01*
X115806190Y-151605714D01*
X115830000Y-151653333D01*
X115853810Y-151677143D01*
X115901429Y-151700952D01*
X115925238Y-151700952D01*
X115972857Y-151677143D01*
X115996667Y-151653333D01*
X116020476Y-151605714D01*
X116020476Y-151510476D01*
X116044286Y-151462857D01*
X116068095Y-151439048D01*
X116115714Y-151415238D01*
X116210952Y-151415238D01*
X116258571Y-151439048D01*
X116282381Y-151462857D01*
X116306190Y-151510476D01*
X116306190Y-151605714D01*
X116282381Y-151653333D01*
X116258571Y-151677143D01*
X116210952Y-151700952D01*
X116115714Y-151700952D01*
X116068095Y-151677143D01*
X116044286Y-151653333D01*
X116020476Y-151605714D01*
X120306190Y-150968572D02*
X120068095Y-150801905D01*
X120306190Y-150682858D02*
X119806190Y-150682858D01*
X119806190Y-150873334D01*
X119830000Y-150920953D01*
X119853810Y-150944762D01*
X119901429Y-150968572D01*
X119972857Y-150968572D01*
X120020476Y-150944762D01*
X120044286Y-150920953D01*
X120068095Y-150873334D01*
X120068095Y-150682858D01*
X119853810Y-151159048D02*
X119830000Y-151182858D01*
X119806190Y-151230477D01*
X119806190Y-151349524D01*
X119830000Y-151397143D01*
X119853810Y-151420953D01*
X119901429Y-151444762D01*
X119949048Y-151444762D01*
X120020476Y-151420953D01*
X120306190Y-151135239D01*
X120306190Y-151444762D01*
X119806190Y-151754286D02*
X119806190Y-151801905D01*
X119830000Y-151849524D01*
X119853810Y-151873333D01*
X119901429Y-151897143D01*
X119996667Y-151920952D01*
X120115714Y-151920952D01*
X120210952Y-151897143D01*
X120258571Y-151873333D01*
X120282381Y-151849524D01*
X120306190Y-151801905D01*
X120306190Y-151754286D01*
X120282381Y-151706667D01*
X120258571Y-151682857D01*
X120210952Y-151659048D01*
X120115714Y-151635238D01*
X119996667Y-151635238D01*
X119901429Y-151659048D01*
X119853810Y-151682857D01*
X119830000Y-151706667D01*
X119806190Y-151754286D01*
X155961428Y-147946190D02*
X156128095Y-147708095D01*
X156247142Y-147946190D02*
X156247142Y-147446190D01*
X156056666Y-147446190D01*
X156009047Y-147470000D01*
X155985238Y-147493810D01*
X155961428Y-147541429D01*
X155961428Y-147612857D01*
X155985238Y-147660476D01*
X156009047Y-147684286D01*
X156056666Y-147708095D01*
X156247142Y-147708095D01*
X155770952Y-147493810D02*
X155747142Y-147470000D01*
X155699523Y-147446190D01*
X155580476Y-147446190D01*
X155532857Y-147470000D01*
X155509047Y-147493810D01*
X155485238Y-147541429D01*
X155485238Y-147589048D01*
X155509047Y-147660476D01*
X155794761Y-147946190D01*
X155485238Y-147946190D01*
X155056667Y-147446190D02*
X155151905Y-147446190D01*
X155199524Y-147470000D01*
X155223333Y-147493810D01*
X155270952Y-147565238D01*
X155294762Y-147660476D01*
X155294762Y-147850952D01*
X155270952Y-147898571D01*
X155247143Y-147922381D01*
X155199524Y-147946190D01*
X155104286Y-147946190D01*
X155056667Y-147922381D01*
X155032857Y-147898571D01*
X155009048Y-147850952D01*
X155009048Y-147731905D01*
X155032857Y-147684286D01*
X155056667Y-147660476D01*
X155104286Y-147636667D01*
X155199524Y-147636667D01*
X155247143Y-147660476D01*
X155270952Y-147684286D01*
X155294762Y-147731905D01*
X121596190Y-135278572D02*
X121358095Y-135111905D01*
X121596190Y-134992858D02*
X121096190Y-134992858D01*
X121096190Y-135183334D01*
X121120000Y-135230953D01*
X121143810Y-135254762D01*
X121191429Y-135278572D01*
X121262857Y-135278572D01*
X121310476Y-135254762D01*
X121334286Y-135230953D01*
X121358095Y-135183334D01*
X121358095Y-134992858D01*
X121096190Y-135445239D02*
X121096190Y-135754762D01*
X121286667Y-135588096D01*
X121286667Y-135659524D01*
X121310476Y-135707143D01*
X121334286Y-135730953D01*
X121381905Y-135754762D01*
X121500952Y-135754762D01*
X121548571Y-135730953D01*
X121572381Y-135707143D01*
X121596190Y-135659524D01*
X121596190Y-135516667D01*
X121572381Y-135469048D01*
X121548571Y-135445239D01*
X121143810Y-135945238D02*
X121120000Y-135969048D01*
X121096190Y-136016667D01*
X121096190Y-136135714D01*
X121120000Y-136183333D01*
X121143810Y-136207143D01*
X121191429Y-136230952D01*
X121239048Y-136230952D01*
X121310476Y-136207143D01*
X121596190Y-135921429D01*
X121596190Y-136230952D01*
X119336190Y-135278572D02*
X119098095Y-135111905D01*
X119336190Y-134992858D02*
X118836190Y-134992858D01*
X118836190Y-135183334D01*
X118860000Y-135230953D01*
X118883810Y-135254762D01*
X118931429Y-135278572D01*
X119002857Y-135278572D01*
X119050476Y-135254762D01*
X119074286Y-135230953D01*
X119098095Y-135183334D01*
X119098095Y-134992858D01*
X118836190Y-135445239D02*
X118836190Y-135754762D01*
X119026667Y-135588096D01*
X119026667Y-135659524D01*
X119050476Y-135707143D01*
X119074286Y-135730953D01*
X119121905Y-135754762D01*
X119240952Y-135754762D01*
X119288571Y-135730953D01*
X119312381Y-135707143D01*
X119336190Y-135659524D01*
X119336190Y-135516667D01*
X119312381Y-135469048D01*
X119288571Y-135445239D01*
X118836190Y-135921429D02*
X118836190Y-136230952D01*
X119026667Y-136064286D01*
X119026667Y-136135714D01*
X119050476Y-136183333D01*
X119074286Y-136207143D01*
X119121905Y-136230952D01*
X119240952Y-136230952D01*
X119288571Y-136207143D01*
X119312381Y-136183333D01*
X119336190Y-136135714D01*
X119336190Y-135992857D01*
X119312381Y-135945238D01*
X119288571Y-135921429D01*
X113386190Y-135008572D02*
X113148095Y-134841905D01*
X113386190Y-134722858D02*
X112886190Y-134722858D01*
X112886190Y-134913334D01*
X112910000Y-134960953D01*
X112933810Y-134984762D01*
X112981429Y-135008572D01*
X113052857Y-135008572D01*
X113100476Y-134984762D01*
X113124286Y-134960953D01*
X113148095Y-134913334D01*
X113148095Y-134722858D01*
X112886190Y-135175239D02*
X112886190Y-135484762D01*
X113076667Y-135318096D01*
X113076667Y-135389524D01*
X113100476Y-135437143D01*
X113124286Y-135460953D01*
X113171905Y-135484762D01*
X113290952Y-135484762D01*
X113338571Y-135460953D01*
X113362381Y-135437143D01*
X113386190Y-135389524D01*
X113386190Y-135246667D01*
X113362381Y-135199048D01*
X113338571Y-135175239D01*
X113052857Y-135913333D02*
X113386190Y-135913333D01*
X112862381Y-135794286D02*
X113219524Y-135675238D01*
X113219524Y-135984762D01*
X148256190Y-143298572D02*
X148018095Y-143131905D01*
X148256190Y-143012858D02*
X147756190Y-143012858D01*
X147756190Y-143203334D01*
X147780000Y-143250953D01*
X147803810Y-143274762D01*
X147851429Y-143298572D01*
X147922857Y-143298572D01*
X147970476Y-143274762D01*
X147994286Y-143250953D01*
X148018095Y-143203334D01*
X148018095Y-143012858D01*
X147756190Y-143465239D02*
X147756190Y-143774762D01*
X147946667Y-143608096D01*
X147946667Y-143679524D01*
X147970476Y-143727143D01*
X147994286Y-143750953D01*
X148041905Y-143774762D01*
X148160952Y-143774762D01*
X148208571Y-143750953D01*
X148232381Y-143727143D01*
X148256190Y-143679524D01*
X148256190Y-143536667D01*
X148232381Y-143489048D01*
X148208571Y-143465239D01*
X147756190Y-144203333D02*
X147756190Y-144108095D01*
X147780000Y-144060476D01*
X147803810Y-144036667D01*
X147875238Y-143989048D01*
X147970476Y-143965238D01*
X148160952Y-143965238D01*
X148208571Y-143989048D01*
X148232381Y-144012857D01*
X148256190Y-144060476D01*
X148256190Y-144155714D01*
X148232381Y-144203333D01*
X148208571Y-144227143D01*
X148160952Y-144250952D01*
X148041905Y-144250952D01*
X147994286Y-144227143D01*
X147970476Y-144203333D01*
X147946667Y-144155714D01*
X147946667Y-144060476D01*
X147970476Y-144012857D01*
X147994286Y-143989048D01*
X148041905Y-143965238D01*
X146886190Y-139658572D02*
X146648095Y-139491905D01*
X146886190Y-139372858D02*
X146386190Y-139372858D01*
X146386190Y-139563334D01*
X146410000Y-139610953D01*
X146433810Y-139634762D01*
X146481429Y-139658572D01*
X146552857Y-139658572D01*
X146600476Y-139634762D01*
X146624286Y-139610953D01*
X146648095Y-139563334D01*
X146648095Y-139372858D01*
X146386190Y-139825239D02*
X146386190Y-140134762D01*
X146576667Y-139968096D01*
X146576667Y-140039524D01*
X146600476Y-140087143D01*
X146624286Y-140110953D01*
X146671905Y-140134762D01*
X146790952Y-140134762D01*
X146838571Y-140110953D01*
X146862381Y-140087143D01*
X146886190Y-140039524D01*
X146886190Y-139896667D01*
X146862381Y-139849048D01*
X146838571Y-139825239D01*
X146386190Y-140301429D02*
X146386190Y-140634762D01*
X146886190Y-140420476D01*
X100806190Y-136286190D02*
X100972857Y-136048095D01*
X101091904Y-136286190D02*
X101091904Y-135786190D01*
X100901428Y-135786190D01*
X100853809Y-135810000D01*
X100830000Y-135833810D01*
X100806190Y-135881429D01*
X100806190Y-135952857D01*
X100830000Y-136000476D01*
X100853809Y-136024286D01*
X100901428Y-136048095D01*
X101091904Y-136048095D01*
X100663333Y-135952857D02*
X100472857Y-135952857D01*
X100591904Y-135786190D02*
X100591904Y-136214762D01*
X100568095Y-136262381D01*
X100520476Y-136286190D01*
X100472857Y-136286190D01*
X100044286Y-136286190D02*
X100330000Y-136286190D01*
X100187143Y-136286190D02*
X100187143Y-135786190D01*
X100234762Y-135857619D01*
X100282381Y-135905238D01*
X100330000Y-135929048D01*
X148036190Y-138380953D02*
X148440952Y-138380953D01*
X148488571Y-138404762D01*
X148512381Y-138428572D01*
X148536190Y-138476191D01*
X148536190Y-138571429D01*
X148512381Y-138619048D01*
X148488571Y-138642857D01*
X148440952Y-138666667D01*
X148036190Y-138666667D01*
X148536190Y-139166667D02*
X148536190Y-138880953D01*
X148536190Y-139023810D02*
X148036190Y-139023810D01*
X148107619Y-138976191D01*
X148155238Y-138928572D01*
X148179048Y-138880953D01*
X148536190Y-139642857D02*
X148536190Y-139357143D01*
X148536190Y-139500000D02*
X148036190Y-139500000D01*
X148107619Y-139452381D01*
X148155238Y-139404762D01*
X148179048Y-139357143D01*
X29011428Y-145218571D02*
X29035238Y-145242381D01*
X29106666Y-145266190D01*
X29154285Y-145266190D01*
X29225714Y-145242381D01*
X29273333Y-145194762D01*
X29297142Y-145147143D01*
X29320952Y-145051905D01*
X29320952Y-144980476D01*
X29297142Y-144885238D01*
X29273333Y-144837619D01*
X29225714Y-144790000D01*
X29154285Y-144766190D01*
X29106666Y-144766190D01*
X29035238Y-144790000D01*
X29011428Y-144813810D01*
X28844761Y-144766190D02*
X28535238Y-144766190D01*
X28701904Y-144956667D01*
X28630476Y-144956667D01*
X28582857Y-144980476D01*
X28559047Y-145004286D01*
X28535238Y-145051905D01*
X28535238Y-145170952D01*
X28559047Y-145218571D01*
X28582857Y-145242381D01*
X28630476Y-145266190D01*
X28773333Y-145266190D01*
X28820952Y-145242381D01*
X28844761Y-145218571D01*
X28082857Y-144766190D02*
X28320952Y-144766190D01*
X28344762Y-145004286D01*
X28320952Y-144980476D01*
X28273333Y-144956667D01*
X28154286Y-144956667D01*
X28106667Y-144980476D01*
X28082857Y-145004286D01*
X28059048Y-145051905D01*
X28059048Y-145170952D01*
X28082857Y-145218571D01*
X28106667Y-145242381D01*
X28154286Y-145266190D01*
X28273333Y-145266190D01*
X28320952Y-145242381D01*
X28344762Y-145218571D01*
X27661428Y-146196190D02*
X27828095Y-145958095D01*
X27947142Y-146196190D02*
X27947142Y-145696190D01*
X27756666Y-145696190D01*
X27709047Y-145720000D01*
X27685238Y-145743810D01*
X27661428Y-145791429D01*
X27661428Y-145862857D01*
X27685238Y-145910476D01*
X27709047Y-145934286D01*
X27756666Y-145958095D01*
X27947142Y-145958095D01*
X27470952Y-145743810D02*
X27447142Y-145720000D01*
X27399523Y-145696190D01*
X27280476Y-145696190D01*
X27232857Y-145720000D01*
X27209047Y-145743810D01*
X27185238Y-145791429D01*
X27185238Y-145839048D01*
X27209047Y-145910476D01*
X27494761Y-146196190D01*
X27185238Y-146196190D01*
X27018571Y-145696190D02*
X26685238Y-145696190D01*
X26899524Y-146196190D01*
X118737142Y-128286190D02*
X118737142Y-127786190D01*
X118618095Y-127786190D01*
X118546666Y-127810000D01*
X118499047Y-127857619D01*
X118475238Y-127905238D01*
X118451428Y-128000476D01*
X118451428Y-128071905D01*
X118475238Y-128167143D01*
X118499047Y-128214762D01*
X118546666Y-128262381D01*
X118618095Y-128286190D01*
X118737142Y-128286190D01*
X117975238Y-128286190D02*
X118260952Y-128286190D01*
X118118095Y-128286190D02*
X118118095Y-127786190D01*
X118165714Y-127857619D01*
X118213333Y-127905238D01*
X118260952Y-127929048D01*
X117689524Y-128000476D02*
X117737143Y-127976667D01*
X117760952Y-127952857D01*
X117784762Y-127905238D01*
X117784762Y-127881429D01*
X117760952Y-127833810D01*
X117737143Y-127810000D01*
X117689524Y-127786190D01*
X117594286Y-127786190D01*
X117546667Y-127810000D01*
X117522857Y-127833810D01*
X117499048Y-127881429D01*
X117499048Y-127905238D01*
X117522857Y-127952857D01*
X117546667Y-127976667D01*
X117594286Y-128000476D01*
X117689524Y-128000476D01*
X117737143Y-128024286D01*
X117760952Y-128048095D01*
X117784762Y-128095714D01*
X117784762Y-128190952D01*
X117760952Y-128238571D01*
X117737143Y-128262381D01*
X117689524Y-128286190D01*
X117594286Y-128286190D01*
X117546667Y-128262381D01*
X117522857Y-128238571D01*
X117499048Y-128190952D01*
X117499048Y-128095714D01*
X117522857Y-128048095D01*
X117546667Y-128024286D01*
X117594286Y-128000476D01*
X153277142Y-131676190D02*
X153277142Y-131176190D01*
X153158095Y-131176190D01*
X153086666Y-131200000D01*
X153039047Y-131247619D01*
X153015238Y-131295238D01*
X152991428Y-131390476D01*
X152991428Y-131461905D01*
X153015238Y-131557143D01*
X153039047Y-131604762D01*
X153086666Y-131652381D01*
X153158095Y-131676190D01*
X153277142Y-131676190D01*
X152515238Y-131676190D02*
X152800952Y-131676190D01*
X152658095Y-131676190D02*
X152658095Y-131176190D01*
X152705714Y-131247619D01*
X152753333Y-131295238D01*
X152800952Y-131319048D01*
X152277143Y-131676190D02*
X152181905Y-131676190D01*
X152134286Y-131652381D01*
X152110476Y-131628571D01*
X152062857Y-131557143D01*
X152039048Y-131461905D01*
X152039048Y-131271429D01*
X152062857Y-131223810D01*
X152086667Y-131200000D01*
X152134286Y-131176190D01*
X152229524Y-131176190D01*
X152277143Y-131200000D01*
X152300952Y-131223810D01*
X152324762Y-131271429D01*
X152324762Y-131390476D01*
X152300952Y-131438095D01*
X152277143Y-131461905D01*
X152229524Y-131485714D01*
X152134286Y-131485714D01*
X152086667Y-131461905D01*
X152062857Y-131438095D01*
X152039048Y-131390476D01*
X130787142Y-131796190D02*
X130787142Y-131296190D01*
X130668095Y-131296190D01*
X130596666Y-131320000D01*
X130549047Y-131367619D01*
X130525238Y-131415238D01*
X130501428Y-131510476D01*
X130501428Y-131581905D01*
X130525238Y-131677143D01*
X130549047Y-131724762D01*
X130596666Y-131772381D01*
X130668095Y-131796190D01*
X130787142Y-131796190D01*
X130310952Y-131343810D02*
X130287142Y-131320000D01*
X130239523Y-131296190D01*
X130120476Y-131296190D01*
X130072857Y-131320000D01*
X130049047Y-131343810D01*
X130025238Y-131391429D01*
X130025238Y-131439048D01*
X130049047Y-131510476D01*
X130334761Y-131796190D01*
X130025238Y-131796190D01*
X129715714Y-131296190D02*
X129668095Y-131296190D01*
X129620476Y-131320000D01*
X129596667Y-131343810D01*
X129572857Y-131391429D01*
X129549048Y-131486667D01*
X129549048Y-131605714D01*
X129572857Y-131700952D01*
X129596667Y-131748571D01*
X129620476Y-131772381D01*
X129668095Y-131796190D01*
X129715714Y-131796190D01*
X129763333Y-131772381D01*
X129787143Y-131748571D01*
X129810952Y-131700952D01*
X129834762Y-131605714D01*
X129834762Y-131486667D01*
X129810952Y-131391429D01*
X129787143Y-131343810D01*
X129763333Y-131320000D01*
X129715714Y-131296190D01*
X121387142Y-155286190D02*
X121387142Y-154786190D01*
X121268095Y-154786190D01*
X121196666Y-154810000D01*
X121149047Y-154857619D01*
X121125238Y-154905238D01*
X121101428Y-155000476D01*
X121101428Y-155071905D01*
X121125238Y-155167143D01*
X121149047Y-155214762D01*
X121196666Y-155262381D01*
X121268095Y-155286190D01*
X121387142Y-155286190D01*
X120910952Y-154833810D02*
X120887142Y-154810000D01*
X120839523Y-154786190D01*
X120720476Y-154786190D01*
X120672857Y-154810000D01*
X120649047Y-154833810D01*
X120625238Y-154881429D01*
X120625238Y-154929048D01*
X120649047Y-155000476D01*
X120934761Y-155286190D01*
X120625238Y-155286190D01*
X120458571Y-154786190D02*
X120149048Y-154786190D01*
X120315714Y-154976667D01*
X120244286Y-154976667D01*
X120196667Y-155000476D01*
X120172857Y-155024286D01*
X120149048Y-155071905D01*
X120149048Y-155190952D01*
X120172857Y-155238571D01*
X120196667Y-155262381D01*
X120244286Y-155286190D01*
X120387143Y-155286190D01*
X120434762Y-155262381D01*
X120458571Y-155238571D01*
D12*
X95562857Y-146207143D02*
X95610476Y-146254762D01*
X95753333Y-146302381D01*
X95848571Y-146302381D01*
X95991429Y-146254762D01*
X96086667Y-146159524D01*
X96134286Y-146064286D01*
X96181905Y-145873810D01*
X96181905Y-145730952D01*
X96134286Y-145540476D01*
X96086667Y-145445238D01*
X95991429Y-145350000D01*
X95848571Y-145302381D01*
X95753333Y-145302381D01*
X95610476Y-145350000D01*
X95562857Y-145397619D01*
X95181905Y-145397619D02*
X95134286Y-145350000D01*
X95039048Y-145302381D01*
X94800952Y-145302381D01*
X94705714Y-145350000D01*
X94658095Y-145397619D01*
X94610476Y-145492857D01*
X94610476Y-145588095D01*
X94658095Y-145730952D01*
X95229524Y-146302381D01*
X94610476Y-146302381D01*
X94134286Y-146302381D02*
X93943810Y-146302381D01*
X93848571Y-146254762D01*
X93800952Y-146207143D01*
X93705714Y-146064286D01*
X93658095Y-145873810D01*
X93658095Y-145492857D01*
X93705714Y-145397619D01*
X93753333Y-145350000D01*
X93848571Y-145302381D01*
X94039048Y-145302381D01*
X94134286Y-145350000D01*
X94181905Y-145397619D01*
X94229524Y-145492857D01*
X94229524Y-145730952D01*
X94181905Y-145826190D01*
X94134286Y-145873810D01*
X94039048Y-145921429D01*
X93848571Y-145921429D01*
X93753333Y-145873810D01*
X93705714Y-145826190D01*
X93658095Y-145730952D01*
X117847143Y-146757143D02*
X117894762Y-146709524D01*
X117942381Y-146566667D01*
X117942381Y-146471429D01*
X117894762Y-146328571D01*
X117799524Y-146233333D01*
X117704286Y-146185714D01*
X117513810Y-146138095D01*
X117370952Y-146138095D01*
X117180476Y-146185714D01*
X117085238Y-146233333D01*
X116990000Y-146328571D01*
X116942381Y-146471429D01*
X116942381Y-146566667D01*
X116990000Y-146709524D01*
X117037619Y-146757143D01*
X116942381Y-147090476D02*
X116942381Y-147709524D01*
X117323333Y-147376190D01*
X117323333Y-147519048D01*
X117370952Y-147614286D01*
X117418571Y-147661905D01*
X117513810Y-147709524D01*
X117751905Y-147709524D01*
X117847143Y-147661905D01*
X117894762Y-147614286D01*
X117942381Y-147519048D01*
X117942381Y-147233333D01*
X117894762Y-147138095D01*
X117847143Y-147090476D01*
X116942381Y-148328571D02*
X116942381Y-148423810D01*
X116990000Y-148519048D01*
X117037619Y-148566667D01*
X117132857Y-148614286D01*
X117323333Y-148661905D01*
X117561429Y-148661905D01*
X117751905Y-148614286D01*
X117847143Y-148566667D01*
X117894762Y-148519048D01*
X117942381Y-148423810D01*
X117942381Y-148328571D01*
X117894762Y-148233333D01*
X117847143Y-148185714D01*
X117751905Y-148138095D01*
X117561429Y-148090476D01*
X117323333Y-148090476D01*
X117132857Y-148138095D01*
X117037619Y-148185714D01*
X116990000Y-148233333D01*
X116942381Y-148328571D01*
X138922857Y-134527143D02*
X138970476Y-134574762D01*
X139113333Y-134622381D01*
X139208571Y-134622381D01*
X139351429Y-134574762D01*
X139446667Y-134479524D01*
X139494286Y-134384286D01*
X139541905Y-134193810D01*
X139541905Y-134050952D01*
X139494286Y-133860476D01*
X139446667Y-133765238D01*
X139351429Y-133670000D01*
X139208571Y-133622381D01*
X139113333Y-133622381D01*
X138970476Y-133670000D01*
X138922857Y-133717619D01*
X138589524Y-133622381D02*
X137970476Y-133622381D01*
X138303810Y-134003333D01*
X138160952Y-134003333D01*
X138065714Y-134050952D01*
X138018095Y-134098571D01*
X137970476Y-134193810D01*
X137970476Y-134431905D01*
X138018095Y-134527143D01*
X138065714Y-134574762D01*
X138160952Y-134622381D01*
X138446667Y-134622381D01*
X138541905Y-134574762D01*
X138589524Y-134527143D01*
X137018095Y-134622381D02*
X137589524Y-134622381D01*
X137303810Y-134622381D02*
X137303810Y-133622381D01*
X137399048Y-133765238D01*
X137494286Y-133860476D01*
X137589524Y-133908095D01*
X124537143Y-134957143D02*
X124584762Y-134909524D01*
X124632381Y-134766667D01*
X124632381Y-134671429D01*
X124584762Y-134528571D01*
X124489524Y-134433333D01*
X124394286Y-134385714D01*
X124203810Y-134338095D01*
X124060952Y-134338095D01*
X123870476Y-134385714D01*
X123775238Y-134433333D01*
X123680000Y-134528571D01*
X123632381Y-134671429D01*
X123632381Y-134766667D01*
X123680000Y-134909524D01*
X123727619Y-134957143D01*
X123632381Y-135290476D02*
X123632381Y-135909524D01*
X124013333Y-135576190D01*
X124013333Y-135719048D01*
X124060952Y-135814286D01*
X124108571Y-135861905D01*
X124203810Y-135909524D01*
X124441905Y-135909524D01*
X124537143Y-135861905D01*
X124584762Y-135814286D01*
X124632381Y-135719048D01*
X124632381Y-135433333D01*
X124584762Y-135338095D01*
X124537143Y-135290476D01*
X123727619Y-136290476D02*
X123680000Y-136338095D01*
X123632381Y-136433333D01*
X123632381Y-136671429D01*
X123680000Y-136766667D01*
X123727619Y-136814286D01*
X123822857Y-136861905D01*
X123918095Y-136861905D01*
X124060952Y-136814286D01*
X124632381Y-136242857D01*
X124632381Y-136861905D01*
X144682857Y-146207143D02*
X144730476Y-146254762D01*
X144873333Y-146302381D01*
X144968571Y-146302381D01*
X145111429Y-146254762D01*
X145206667Y-146159524D01*
X145254286Y-146064286D01*
X145301905Y-145873810D01*
X145301905Y-145730952D01*
X145254286Y-145540476D01*
X145206667Y-145445238D01*
X145111429Y-145350000D01*
X144968571Y-145302381D01*
X144873333Y-145302381D01*
X144730476Y-145350000D01*
X144682857Y-145397619D01*
X144349524Y-145302381D02*
X143730476Y-145302381D01*
X144063810Y-145683333D01*
X143920952Y-145683333D01*
X143825714Y-145730952D01*
X143778095Y-145778571D01*
X143730476Y-145873810D01*
X143730476Y-146111905D01*
X143778095Y-146207143D01*
X143825714Y-146254762D01*
X143920952Y-146302381D01*
X144206667Y-146302381D01*
X144301905Y-146254762D01*
X144349524Y-146207143D01*
X143397143Y-145302381D02*
X142778095Y-145302381D01*
X143111429Y-145683333D01*
X142968571Y-145683333D01*
X142873333Y-145730952D01*
X142825714Y-145778571D01*
X142778095Y-145873810D01*
X142778095Y-146111905D01*
X142825714Y-146207143D01*
X142873333Y-146254762D01*
X142968571Y-146302381D01*
X143254286Y-146302381D01*
X143349524Y-146254762D01*
X143397143Y-146207143D01*
X118972381Y-147233334D02*
X118496190Y-146900000D01*
X118972381Y-146661905D02*
X117972381Y-146661905D01*
X117972381Y-147042858D01*
X118020000Y-147138096D01*
X118067619Y-147185715D01*
X118162857Y-147233334D01*
X118305714Y-147233334D01*
X118400952Y-147185715D01*
X118448571Y-147138096D01*
X118496190Y-147042858D01*
X118496190Y-146661905D01*
X117972381Y-147566667D02*
X117972381Y-148233334D01*
X118972381Y-147804762D01*
X126692381Y-132537143D02*
X126216190Y-132203809D01*
X126692381Y-131965714D02*
X125692381Y-131965714D01*
X125692381Y-132346667D01*
X125740000Y-132441905D01*
X125787619Y-132489524D01*
X125882857Y-132537143D01*
X126025714Y-132537143D01*
X126120952Y-132489524D01*
X126168571Y-132441905D01*
X126216190Y-132346667D01*
X126216190Y-131965714D01*
X125787619Y-132918095D02*
X125740000Y-132965714D01*
X125692381Y-133060952D01*
X125692381Y-133299048D01*
X125740000Y-133394286D01*
X125787619Y-133441905D01*
X125882857Y-133489524D01*
X125978095Y-133489524D01*
X126120952Y-133441905D01*
X126692381Y-132870476D01*
X126692381Y-133489524D01*
X126692381Y-134441905D02*
X126692381Y-133870476D01*
X126692381Y-134156190D02*
X125692381Y-134156190D01*
X125835238Y-134060952D01*
X125930476Y-133965714D01*
X125978095Y-133870476D01*
X138772857Y-133582381D02*
X139106191Y-133106190D01*
X139344286Y-133582381D02*
X139344286Y-132582381D01*
X138963333Y-132582381D01*
X138868095Y-132630000D01*
X138820476Y-132677619D01*
X138772857Y-132772857D01*
X138772857Y-132915714D01*
X138820476Y-133010952D01*
X138868095Y-133058571D01*
X138963333Y-133106190D01*
X139344286Y-133106190D01*
X138391905Y-132677619D02*
X138344286Y-132630000D01*
X138249048Y-132582381D01*
X138010952Y-132582381D01*
X137915714Y-132630000D01*
X137868095Y-132677619D01*
X137820476Y-132772857D01*
X137820476Y-132868095D01*
X137868095Y-133010952D01*
X138439524Y-133582381D01*
X137820476Y-133582381D01*
X137439524Y-132677619D02*
X137391905Y-132630000D01*
X137296667Y-132582381D01*
X137058571Y-132582381D01*
X136963333Y-132630000D01*
X136915714Y-132677619D01*
X136868095Y-132772857D01*
X136868095Y-132868095D01*
X136915714Y-133010952D01*
X137487143Y-133582381D01*
X136868095Y-133582381D01*
X144872857Y-144772381D02*
X145206191Y-144296190D01*
X145444286Y-144772381D02*
X145444286Y-143772381D01*
X145063333Y-143772381D01*
X144968095Y-143820000D01*
X144920476Y-143867619D01*
X144872857Y-143962857D01*
X144872857Y-144105714D01*
X144920476Y-144200952D01*
X144968095Y-144248571D01*
X145063333Y-144296190D01*
X145444286Y-144296190D01*
X144491905Y-143867619D02*
X144444286Y-143820000D01*
X144349048Y-143772381D01*
X144110952Y-143772381D01*
X144015714Y-143820000D01*
X143968095Y-143867619D01*
X143920476Y-143962857D01*
X143920476Y-144058095D01*
X143968095Y-144200952D01*
X144539524Y-144772381D01*
X143920476Y-144772381D01*
X143587143Y-143772381D02*
X142968095Y-143772381D01*
X143301429Y-144153333D01*
X143158571Y-144153333D01*
X143063333Y-144200952D01*
X143015714Y-144248571D01*
X142968095Y-144343810D01*
X142968095Y-144581905D01*
X143015714Y-144677143D01*
X143063333Y-144724762D01*
X143158571Y-144772381D01*
X143444286Y-144772381D01*
X143539524Y-144724762D01*
X143587143Y-144677143D01*
M02*
