G04 #@! TF.FileFunction,Paste,Top*
%FSLAX46Y46*%
G04 Gerber Fmt 4.6, Leading zero omitted, Abs format (unit mm)*
G04 Created by KiCad (PCBNEW 4.0.7) date 06/15/18 17:29:42*
%MOMM*%
%LPD*%
G01*
G04 APERTURE LIST*
%ADD10C,0.100000*%
%ADD11C,0.150000*%
%ADD12R,0.600000X0.500000*%
%ADD13R,0.500000X0.600000*%
%ADD14R,0.900000X0.500000*%
%ADD15R,0.750000X0.800000*%
%ADD16R,0.800000X0.750000*%
%ADD17R,1.250000X1.000000*%
%ADD18R,0.500000X0.900000*%
%ADD19R,0.700000X0.250000*%
%ADD20R,0.250000X0.700000*%
%ADD21R,1.035000X1.035000*%
%ADD22R,4.100000X4.100000*%
%ADD23R,0.300000X0.350000*%
%ADD24R,0.350000X0.300000*%
%ADD25R,3.750000X2.700000*%
%ADD26R,2.700000X3.750000*%
%ADD27R,3.500000X1.600000*%
%ADD28R,2.500000X1.000000*%
%ADD29R,2.500000X4.000000*%
%ADD30R,1.000000X1.250000*%
%ADD31R,0.800000X0.800000*%
%ADD32R,1.100000X1.100000*%
%ADD33R,0.900000X0.800000*%
%ADD34R,1.400000X1.270000*%
%ADD35R,4.720000X4.800000*%
%ADD36R,4.241800X3.810000*%
%ADD37R,0.300000X1.450000*%
%ADD38R,0.280000X0.430000*%
%ADD39R,0.900000X2.500000*%
%ADD40R,2.200000X2.700000*%
%ADD41R,2.700000X2.200000*%
%ADD42R,0.630000X0.450000*%
%ADD43R,0.480000X0.630000*%
%ADD44R,1.570000X1.235000*%
%ADD45R,1.570000X1.585000*%
%ADD46R,0.490000X0.490000*%
%ADD47R,0.800000X0.900000*%
%ADD48R,2.200000X1.200000*%
%ADD49R,3.050000X2.750000*%
%ADD50R,0.430000X0.280000*%
%ADD51R,0.400000X0.600000*%
%ADD52R,0.600000X0.400000*%
%ADD53R,1.000000X2.500000*%
%ADD54R,2.199640X0.797560*%
%ADD55R,0.550000X1.500000*%
%ADD56R,1.500000X0.550000*%
%ADD57R,0.650000X1.220000*%
%ADD58R,0.813000X0.305000*%
%ADD59R,0.305000X0.813000*%
%ADD60R,0.700000X0.700000*%
%ADD61R,0.650000X1.060000*%
%ADD62R,0.400000X1.100000*%
%ADD63R,0.749300X0.299720*%
%ADD64R,0.600000X0.450000*%
%ADD65R,0.450000X0.600000*%
%ADD66R,0.900000X1.200000*%
%ADD67R,1.250000X1.500000*%
%ADD68R,1.200000X0.750000*%
%ADD69R,2.000000X2.500000*%
G04 APERTURE END LIST*
D10*
D11*
X25000000Y-164000000D02*
X25000000Y-123000000D01*
X158000000Y-164000000D02*
X25000000Y-164000000D01*
X158000000Y-123000000D02*
X158000000Y-164000000D01*
X25000000Y-123000000D02*
X158000000Y-123000000D01*
D12*
X35790000Y-132250000D03*
X36890000Y-132250000D03*
D13*
X29920000Y-137570000D03*
X29920000Y-136470000D03*
D12*
X30310000Y-132540000D03*
X29210000Y-132540000D03*
X33740000Y-132250000D03*
X34840000Y-132250000D03*
X37840000Y-132250000D03*
X38940000Y-132250000D03*
X32710000Y-141110000D03*
X33810000Y-141110000D03*
D14*
X28770000Y-137790000D03*
X28770000Y-136290000D03*
D15*
X39150000Y-133870000D03*
X39150000Y-135370000D03*
D16*
X29440000Y-139000000D03*
X30940000Y-139000000D03*
D17*
X27310000Y-134880000D03*
X27310000Y-132880000D03*
D18*
X27330000Y-138540000D03*
X25830000Y-138540000D03*
D14*
X39200000Y-136570000D03*
X39200000Y-138070000D03*
D19*
X32250000Y-134560000D03*
X32250000Y-135060000D03*
X32250000Y-135560000D03*
X32250000Y-136060000D03*
X32250000Y-136560000D03*
X32250000Y-137060000D03*
X32250000Y-137560000D03*
X32250000Y-138060000D03*
D20*
X32900000Y-138710000D03*
X33400000Y-138710000D03*
X33900000Y-138710000D03*
X34400000Y-138710000D03*
X34900000Y-138710000D03*
X35400000Y-138710000D03*
X35900000Y-138710000D03*
X36400000Y-138710000D03*
D19*
X37050000Y-138060000D03*
X37050000Y-137560000D03*
X37050000Y-137060000D03*
X37050000Y-136560000D03*
X37050000Y-136060000D03*
X37050000Y-135560000D03*
X37050000Y-135060000D03*
X37050000Y-134560000D03*
D20*
X36400000Y-133910000D03*
X35900000Y-133910000D03*
X35400000Y-133910000D03*
X34900000Y-133910000D03*
X34400000Y-133910000D03*
X33900000Y-133910000D03*
X33400000Y-133910000D03*
X32900000Y-133910000D03*
D21*
X35512500Y-137172500D03*
X35512500Y-135447500D03*
X33787500Y-137172500D03*
X33787500Y-135447500D03*
D22*
X78500000Y-158250000D03*
X69000000Y-158250000D03*
D23*
X35010000Y-147590000D03*
X34450000Y-147590000D03*
D24*
X145040000Y-142640000D03*
X145040000Y-143200000D03*
D23*
X66960000Y-123870000D03*
X66400000Y-123870000D03*
X66960000Y-124570000D03*
X66400000Y-124570000D03*
X66960000Y-125270000D03*
X66400000Y-125270000D03*
D16*
X69170000Y-124340000D03*
X70670000Y-124340000D03*
D23*
X68170000Y-124650000D03*
X67610000Y-124650000D03*
D24*
X71090000Y-142180000D03*
X71090000Y-142740000D03*
X78670000Y-140750000D03*
X78670000Y-140190000D03*
D16*
X62130000Y-150410000D03*
X60630000Y-150410000D03*
D12*
X61230000Y-147960000D03*
X62330000Y-147960000D03*
D16*
X62130000Y-149060000D03*
X60630000Y-149060000D03*
X62130000Y-151760000D03*
X60630000Y-151760000D03*
D12*
X57520000Y-150650000D03*
X58620000Y-150650000D03*
D16*
X58430000Y-151750000D03*
X56930000Y-151750000D03*
D25*
X64575000Y-155000000D03*
X57025000Y-155000000D03*
D12*
X52190000Y-155320000D03*
X53290000Y-155320000D03*
X52190000Y-154350000D03*
X53290000Y-154350000D03*
D26*
X114000000Y-161465000D03*
X114000000Y-153915000D03*
D25*
X84515000Y-150050000D03*
X92065000Y-150050000D03*
D23*
X88670000Y-133890000D03*
X89230000Y-133890000D03*
D15*
X113250000Y-142100000D03*
X113250000Y-143600000D03*
X111900000Y-142100000D03*
X111900000Y-143600000D03*
D13*
X110800000Y-143000000D03*
X110800000Y-141900000D03*
X115290000Y-137980000D03*
X115290000Y-139080000D03*
D16*
X127610000Y-139470000D03*
X129110000Y-139470000D03*
X126250000Y-134370000D03*
X124750000Y-134370000D03*
X127600000Y-134370000D03*
X129100000Y-134370000D03*
X126260000Y-139470000D03*
X124760000Y-139470000D03*
X98820000Y-124250000D03*
X97320000Y-124250000D03*
D27*
X147350000Y-160500000D03*
X152750000Y-160500000D03*
D17*
X109740000Y-133010000D03*
X109740000Y-131010000D03*
X107910000Y-133010000D03*
X107910000Y-131010000D03*
D16*
X100390000Y-136390000D03*
X101890000Y-136390000D03*
D28*
X156310000Y-161890000D03*
X156310000Y-158890000D03*
D29*
X152590000Y-146820000D03*
X152590000Y-154820000D03*
D30*
X144490000Y-154130000D03*
X146490000Y-154130000D03*
X144490000Y-152330000D03*
X146490000Y-152330000D03*
X144490000Y-150530000D03*
X146490000Y-150530000D03*
D16*
X100380000Y-135030000D03*
X101880000Y-135030000D03*
X100390000Y-137750000D03*
X101890000Y-137750000D03*
D15*
X108700000Y-128150000D03*
X108700000Y-126650000D03*
D31*
X59540000Y-130250000D03*
X59540000Y-128650000D03*
D32*
X41400000Y-127300000D03*
X41400000Y-124500000D03*
D33*
X46430000Y-137840000D03*
X46430000Y-135940000D03*
X44430000Y-136890000D03*
X49890000Y-136690000D03*
X49890000Y-134790000D03*
X47890000Y-135740000D03*
X53340000Y-135590000D03*
X53340000Y-133690000D03*
X51340000Y-134640000D03*
X56790000Y-134500000D03*
X56790000Y-132600000D03*
X54790000Y-133550000D03*
D34*
X80620000Y-151660000D03*
D35*
X79580000Y-147860000D03*
D34*
X78540000Y-151660000D03*
D31*
X114240000Y-130850000D03*
X112640000Y-130850000D03*
X58190000Y-130250000D03*
X58190000Y-128650000D03*
X149090000Y-130850000D03*
X147490000Y-130850000D03*
X126320000Y-130850000D03*
X124720000Y-130850000D03*
D32*
X100320000Y-124750000D03*
X103120000Y-124750000D03*
X107560000Y-124750000D03*
X104760000Y-124750000D03*
X105970000Y-135890000D03*
X108770000Y-135890000D03*
D36*
X58052300Y-161210000D03*
X64427700Y-161210000D03*
X120817700Y-134340000D03*
X114442300Y-134340000D03*
X148492300Y-134330000D03*
X154867700Y-134330000D03*
X136992300Y-134330000D03*
X143367700Y-134330000D03*
D37*
X96670000Y-139530000D03*
X96170000Y-139530000D03*
X95670000Y-139530000D03*
X95170000Y-139530000D03*
X94670000Y-139530000D03*
X94670000Y-143930000D03*
X95170000Y-143930000D03*
X95670000Y-143930000D03*
X96170000Y-143930000D03*
X96670000Y-143930000D03*
D38*
X67600000Y-123920000D03*
X68120000Y-123920000D03*
D39*
X102690000Y-148200000D03*
X99790000Y-148200000D03*
D22*
X92240000Y-158250000D03*
X82740000Y-158250000D03*
D39*
X95140000Y-148200000D03*
X98040000Y-148200000D03*
D40*
X106500000Y-143850000D03*
X106500000Y-138750000D03*
D41*
X136400000Y-144150000D03*
X131300000Y-144150000D03*
X136400000Y-151700000D03*
X131300000Y-151700000D03*
X143650000Y-160150000D03*
X138550000Y-160150000D03*
D42*
X131200000Y-137870000D03*
X131200000Y-136920000D03*
X131200000Y-135970000D03*
X128520000Y-135970000D03*
X128520000Y-136920000D03*
X128520000Y-137870000D03*
D43*
X129460000Y-136395000D03*
X129460000Y-137445000D03*
X130260000Y-136395000D03*
X130260000Y-137445000D03*
D42*
X127350000Y-137870000D03*
X127350000Y-136920000D03*
X127350000Y-135970000D03*
X124670000Y-135970000D03*
X124670000Y-136920000D03*
X124670000Y-137870000D03*
D43*
X125610000Y-136395000D03*
X125610000Y-137445000D03*
X126410000Y-136395000D03*
X126410000Y-137445000D03*
D44*
X127995000Y-150162500D03*
X125805000Y-150162500D03*
D45*
X127995000Y-152072500D03*
X125805000Y-152072500D03*
D46*
X126265000Y-148160000D03*
X127535000Y-148160000D03*
X128805000Y-148160000D03*
X124995000Y-148160000D03*
X124995000Y-153760000D03*
X128805000Y-153760000D03*
X127535000Y-153760000D03*
X126265000Y-153760000D03*
D44*
X127995000Y-143112500D03*
X125805000Y-143112500D03*
D45*
X127995000Y-145022500D03*
X125805000Y-145022500D03*
D46*
X126265000Y-141110000D03*
X127535000Y-141110000D03*
X128805000Y-141110000D03*
X124995000Y-141110000D03*
X124995000Y-146710000D03*
X128805000Y-146710000D03*
X127535000Y-146710000D03*
X126265000Y-146710000D03*
D44*
X141885000Y-152152500D03*
X139695000Y-152152500D03*
D45*
X141885000Y-154062500D03*
X139695000Y-154062500D03*
D46*
X140155000Y-150150000D03*
X141425000Y-150150000D03*
X142695000Y-150150000D03*
X138885000Y-150150000D03*
X138885000Y-155750000D03*
X142695000Y-155750000D03*
X141425000Y-155750000D03*
X140155000Y-155750000D03*
D44*
X141885000Y-145302500D03*
X139695000Y-145302500D03*
D45*
X141885000Y-147212500D03*
X139695000Y-147212500D03*
D46*
X140155000Y-143300000D03*
X141425000Y-143300000D03*
X142695000Y-143300000D03*
X138885000Y-143300000D03*
X138885000Y-148900000D03*
X142695000Y-148900000D03*
X141425000Y-148900000D03*
X140155000Y-148900000D03*
D47*
X79590000Y-135800000D03*
X77690000Y-135800000D03*
X78640000Y-137800000D03*
D48*
X53340000Y-162680000D03*
X53340000Y-160400000D03*
X53340000Y-158120000D03*
D49*
X45365000Y-158875000D03*
X48715000Y-161925000D03*
X45365000Y-161925000D03*
X48715000Y-158875000D03*
D48*
X42190000Y-162680000D03*
X42190000Y-160400000D03*
X42190000Y-158120000D03*
D49*
X34215000Y-158875000D03*
X37565000Y-161925000D03*
X34215000Y-161925000D03*
X37565000Y-158875000D03*
D47*
X100270000Y-140800000D03*
X98370000Y-140800000D03*
X99320000Y-142800000D03*
D48*
X95740000Y-151070000D03*
X95740000Y-153350000D03*
X95740000Y-155630000D03*
D49*
X103715000Y-154875000D03*
X100365000Y-151825000D03*
X103715000Y-151825000D03*
X100365000Y-154875000D03*
D48*
X95740000Y-158120000D03*
X95740000Y-160400000D03*
X95740000Y-162680000D03*
D49*
X103715000Y-161925000D03*
X100365000Y-158875000D03*
X103715000Y-158875000D03*
X100365000Y-161925000D03*
D48*
X121240000Y-150080000D03*
X121240000Y-147800000D03*
X121240000Y-145520000D03*
D49*
X113265000Y-146275000D03*
X116615000Y-149325000D03*
X113265000Y-149325000D03*
X116615000Y-146275000D03*
D50*
X145910000Y-142690000D03*
X145910000Y-143210000D03*
D14*
X59690000Y-132950000D03*
X59690000Y-131450000D03*
D50*
X42630000Y-143490000D03*
X42630000Y-144010000D03*
X144120000Y-143220000D03*
X144120000Y-142700000D03*
D38*
X69910000Y-125930000D03*
X69390000Y-125930000D03*
X67970000Y-125930000D03*
X68490000Y-125930000D03*
X72090000Y-140710000D03*
X72610000Y-140710000D03*
X73770000Y-140700000D03*
X73250000Y-140700000D03*
D14*
X77590000Y-140550000D03*
X77590000Y-139050000D03*
D18*
X25600000Y-153190000D03*
X27100000Y-153190000D03*
X27100000Y-151740000D03*
X25600000Y-151740000D03*
D51*
X28900000Y-148700000D03*
X29800000Y-148700000D03*
X53050000Y-146010000D03*
X53950000Y-146010000D03*
D52*
X54240000Y-155370000D03*
X54240000Y-154470000D03*
D51*
X94120000Y-146100000D03*
X95020000Y-146100000D03*
D18*
X54700000Y-144810000D03*
X53200000Y-144810000D03*
D53*
X117290000Y-152850000D03*
X122190000Y-152850000D03*
D51*
X123680000Y-137540000D03*
X122780000Y-137540000D03*
D28*
X148690000Y-143770000D03*
X148690000Y-138870000D03*
D51*
X131820000Y-134460000D03*
X132720000Y-134460000D03*
D18*
X121650000Y-130900000D03*
X123150000Y-130900000D03*
X118820000Y-130900000D03*
X120320000Y-130900000D03*
X157400000Y-130900000D03*
X155900000Y-130900000D03*
X154690000Y-130900000D03*
X153190000Y-130900000D03*
X144900000Y-130900000D03*
X143400000Y-130900000D03*
X142350000Y-130900000D03*
X140850000Y-130900000D03*
D14*
X58240000Y-132950000D03*
X58240000Y-131450000D03*
D18*
X117340000Y-130900000D03*
X115840000Y-130900000D03*
X151950000Y-130900000D03*
X150450000Y-130900000D03*
X138540000Y-130900000D03*
X137040000Y-130900000D03*
D52*
X107490000Y-129850000D03*
X107490000Y-128950000D03*
D18*
X104610000Y-136340000D03*
X103110000Y-136340000D03*
D14*
X102000000Y-143000000D03*
X102000000Y-141500000D03*
X102000000Y-138950000D03*
X102000000Y-140450000D03*
X98960000Y-135440000D03*
X98960000Y-136940000D03*
X110200000Y-126500000D03*
X110200000Y-128000000D03*
D54*
X40767660Y-146582460D03*
X40767660Y-145312460D03*
X40767660Y-144047540D03*
X40767660Y-142777540D03*
X35032340Y-142777540D03*
X35032340Y-144047540D03*
X35032340Y-145312460D03*
X35032340Y-146582460D03*
X145057660Y-141582460D03*
X145057660Y-140312460D03*
X145057660Y-139047540D03*
X145057660Y-137777540D03*
X139322340Y-137777540D03*
X139322340Y-139047540D03*
X139322340Y-140312460D03*
X139322340Y-141582460D03*
D55*
X65330000Y-138890000D03*
X66130000Y-138890000D03*
X66930000Y-138890000D03*
X67730000Y-138890000D03*
X68530000Y-138890000D03*
X69330000Y-138890000D03*
X70130000Y-138890000D03*
X70930000Y-138890000D03*
X71730000Y-138890000D03*
X72530000Y-138890000D03*
X73330000Y-138890000D03*
D56*
X75030000Y-137190000D03*
X75030000Y-136390000D03*
X75030000Y-135590000D03*
X75030000Y-134790000D03*
X75030000Y-133990000D03*
X75030000Y-133190000D03*
X75030000Y-132390000D03*
X75030000Y-131590000D03*
X75030000Y-130790000D03*
X75030000Y-129990000D03*
X75030000Y-129190000D03*
D55*
X73330000Y-127490000D03*
X72530000Y-127490000D03*
X71730000Y-127490000D03*
X70930000Y-127490000D03*
X70130000Y-127490000D03*
X69330000Y-127490000D03*
X68530000Y-127490000D03*
X67730000Y-127490000D03*
X66930000Y-127490000D03*
X66130000Y-127490000D03*
X65330000Y-127490000D03*
D56*
X63630000Y-129190000D03*
X63630000Y-129990000D03*
X63630000Y-130790000D03*
X63630000Y-131590000D03*
X63630000Y-132390000D03*
X63630000Y-133190000D03*
X63630000Y-133990000D03*
X63630000Y-134790000D03*
X63630000Y-135590000D03*
X63630000Y-136390000D03*
X63630000Y-137190000D03*
D57*
X28400000Y-153040000D03*
X29350000Y-153040000D03*
X30300000Y-153040000D03*
X30300000Y-150420000D03*
X29350000Y-150420000D03*
X28400000Y-150420000D03*
D58*
X56202000Y-147160000D03*
X56202000Y-147660000D03*
X56202000Y-148160000D03*
X56202000Y-148660000D03*
D59*
X56900000Y-149358000D03*
X57400000Y-149358000D03*
X57900000Y-149358000D03*
X58400000Y-149358000D03*
D58*
X59098000Y-148660000D03*
X59098000Y-148160000D03*
X59098000Y-147660000D03*
X59098000Y-147160000D03*
D59*
X58400000Y-146462000D03*
X57900000Y-146462000D03*
X57400000Y-146462000D03*
X56900000Y-146462000D03*
D60*
X58100000Y-148360000D03*
X58100000Y-147460000D03*
X57200000Y-148360000D03*
X57200000Y-147460000D03*
D33*
X84420000Y-134810000D03*
X84420000Y-136710000D03*
X86420000Y-135760000D03*
D61*
X113050000Y-138400000D03*
X112100000Y-138400000D03*
X111150000Y-138400000D03*
X111150000Y-140600000D03*
X113050000Y-140600000D03*
X112100000Y-140600000D03*
D62*
X97595000Y-132960000D03*
X98245000Y-132960000D03*
X98895000Y-132960000D03*
X99545000Y-132960000D03*
X100195000Y-132960000D03*
X100845000Y-132960000D03*
X101495000Y-132960000D03*
X102145000Y-132960000D03*
X102795000Y-132960000D03*
X103445000Y-132960000D03*
X104095000Y-132960000D03*
X104745000Y-132960000D03*
X105395000Y-132960000D03*
X106045000Y-132960000D03*
X106045000Y-127260000D03*
X105395000Y-127260000D03*
X104745000Y-127260000D03*
X104095000Y-127260000D03*
X103445000Y-127260000D03*
X102795000Y-127260000D03*
X102145000Y-127260000D03*
X101495000Y-127260000D03*
X100845000Y-127260000D03*
X100195000Y-127260000D03*
X99545000Y-127260000D03*
X98895000Y-127260000D03*
X98245000Y-127260000D03*
X97595000Y-127260000D03*
D63*
X72875860Y-141650700D03*
X72875860Y-142151080D03*
X72875860Y-142648920D03*
X72875860Y-143149300D03*
X75624140Y-143149300D03*
X75624140Y-142648920D03*
X75624140Y-142151080D03*
X75624140Y-141650700D03*
D36*
X85142300Y-144800000D03*
X91517700Y-144800000D03*
D64*
X28210000Y-131150000D03*
X26110000Y-131150000D03*
X27850000Y-154900000D03*
X29950000Y-154900000D03*
D65*
X70880000Y-149900000D03*
X70880000Y-152000000D03*
D31*
X42540000Y-150840000D03*
X42540000Y-149240000D03*
X43890000Y-150850000D03*
X43890000Y-149250000D03*
D66*
X42390000Y-154590000D03*
X42390000Y-152390000D03*
X43840000Y-154600000D03*
X43840000Y-152400000D03*
D53*
X73170000Y-151050000D03*
X76170000Y-151050000D03*
X101320000Y-145050000D03*
X98320000Y-145050000D03*
D67*
X94700000Y-137530000D03*
X94700000Y-135030000D03*
X86250000Y-141060000D03*
X86250000Y-138560000D03*
X123280000Y-143260000D03*
X123280000Y-140760000D03*
X114830000Y-143250000D03*
X114830000Y-140750000D03*
D68*
X146390000Y-155700000D03*
X144490000Y-155700000D03*
X132520000Y-156130000D03*
X134420000Y-156130000D03*
X88020000Y-134910000D03*
X89920000Y-134910000D03*
D69*
X117050000Y-142650000D03*
X121050000Y-142650000D03*
X88470000Y-137210000D03*
X92470000Y-137210000D03*
X88470000Y-140460000D03*
X92470000Y-140460000D03*
X117050000Y-139400000D03*
X121050000Y-139400000D03*
D13*
X25980000Y-134950000D03*
X25980000Y-133850000D03*
D18*
X136010000Y-139240000D03*
X134510000Y-139240000D03*
D16*
X34410000Y-140010000D03*
X32910000Y-140010000D03*
M02*
