G04 #@! TF.FileFunction,Paste,Top*
%FSLAX46Y46*%
G04 Gerber Fmt 4.6, Leading zero omitted, Abs format (unit mm)*
G04 Created by KiCad (PCBNEW 4.0.7) date 06/06/18 14:18:26*
%MOMM*%
%LPD*%
G01*
G04 APERTURE LIST*
%ADD10C,0.100000*%
%ADD11C,0.150000*%
%ADD12R,0.300000X0.350000*%
%ADD13R,0.350000X0.300000*%
%ADD14R,0.800000X0.750000*%
%ADD15R,0.600000X0.500000*%
%ADD16R,3.750000X2.700000*%
%ADD17R,2.700000X3.750000*%
%ADD18R,1.250000X1.500000*%
%ADD19R,0.750000X0.800000*%
%ADD20R,0.500000X0.600000*%
%ADD21R,3.500000X1.600000*%
%ADD22R,1.250000X1.000000*%
%ADD23R,2.500000X1.000000*%
%ADD24R,2.500000X4.000000*%
%ADD25R,1.000000X1.250000*%
%ADD26R,0.800000X0.800000*%
%ADD27R,1.100000X1.100000*%
%ADD28R,0.900000X0.800000*%
%ADD29R,1.400000X1.270000*%
%ADD30R,4.720000X4.800000*%
%ADD31R,4.241800X3.810000*%
%ADD32R,0.300000X1.450000*%
%ADD33R,0.280000X0.430000*%
%ADD34R,4.100000X4.100000*%
%ADD35R,0.900000X2.500000*%
%ADD36R,2.200000X2.700000*%
%ADD37R,2.700000X2.200000*%
%ADD38R,0.630000X0.450000*%
%ADD39R,0.480000X0.630000*%
%ADD40R,1.570000X1.235000*%
%ADD41R,1.570000X1.585000*%
%ADD42R,0.490000X0.490000*%
%ADD43R,0.800000X0.900000*%
%ADD44R,2.200000X1.200000*%
%ADD45R,3.050000X2.750000*%
%ADD46R,0.430000X0.280000*%
%ADD47R,0.900000X0.500000*%
%ADD48R,0.500000X0.900000*%
%ADD49R,0.400000X0.600000*%
%ADD50R,0.600000X0.400000*%
%ADD51R,1.000000X2.500000*%
%ADD52R,1.300000X0.700000*%
%ADD53R,0.900000X1.700000*%
%ADD54R,2.199640X0.797560*%
%ADD55R,0.550000X1.500000*%
%ADD56R,1.500000X0.550000*%
%ADD57R,0.650000X1.220000*%
%ADD58R,0.813000X0.305000*%
%ADD59R,0.305000X0.813000*%
%ADD60R,0.700000X0.700000*%
%ADD61C,0.225000*%
%ADD62R,0.650000X1.060000*%
%ADD63R,0.400000X1.100000*%
%ADD64R,0.749300X0.299720*%
%ADD65R,0.600000X0.450000*%
%ADD66R,0.450000X0.600000*%
%ADD67R,0.900000X1.200000*%
%ADD68R,1.200000X0.750000*%
%ADD69R,2.000000X2.500000*%
G04 APERTURE END LIST*
D10*
D11*
X25000000Y-164000000D02*
X25000000Y-123000000D01*
X158000000Y-164000000D02*
X25000000Y-164000000D01*
X158000000Y-123000000D02*
X158000000Y-164000000D01*
X25000000Y-123000000D02*
X158000000Y-123000000D01*
D12*
X35010000Y-147590000D03*
X34450000Y-147590000D03*
D13*
X145040000Y-142640000D03*
X145040000Y-143200000D03*
D12*
X70920000Y-123420000D03*
X70360000Y-123420000D03*
X70920000Y-124120000D03*
X70360000Y-124120000D03*
X70920000Y-124820000D03*
X70360000Y-124820000D03*
D14*
X71920000Y-124530000D03*
X73420000Y-124530000D03*
D12*
X71920000Y-125560000D03*
X72480000Y-125560000D03*
D13*
X71090000Y-142180000D03*
X71090000Y-142740000D03*
X78670000Y-140750000D03*
X78670000Y-140190000D03*
D14*
X62130000Y-151410000D03*
X60630000Y-151410000D03*
D15*
X61230000Y-148960000D03*
X62330000Y-148960000D03*
D14*
X62130000Y-150060000D03*
X60630000Y-150060000D03*
X62130000Y-152760000D03*
X60630000Y-152760000D03*
D15*
X57520000Y-151650000D03*
X58620000Y-151650000D03*
D14*
X58430000Y-152750000D03*
X56930000Y-152750000D03*
D16*
X64565000Y-155960000D03*
X57015000Y-155960000D03*
D15*
X52190000Y-156450000D03*
X53290000Y-156450000D03*
X52190000Y-155600000D03*
X53290000Y-155600000D03*
D17*
X113990000Y-161625000D03*
X113990000Y-154075000D03*
D16*
X84515000Y-150050000D03*
X92065000Y-150050000D03*
D12*
X88670000Y-133890000D03*
X89230000Y-133890000D03*
D18*
X25980000Y-135650000D03*
X25980000Y-133150000D03*
D19*
X35570000Y-135490000D03*
X35570000Y-136990000D03*
D20*
X30450000Y-131750000D03*
X30450000Y-130650000D03*
X29600000Y-131750000D03*
X29600000Y-130650000D03*
D15*
X34070000Y-132570000D03*
X32970000Y-132570000D03*
D20*
X28750000Y-131750000D03*
X28750000Y-130650000D03*
D19*
X36920000Y-135490000D03*
X36920000Y-136990000D03*
X38270000Y-135490000D03*
X38270000Y-136990000D03*
X39620000Y-135490000D03*
X39620000Y-136990000D03*
X35570000Y-138340000D03*
X35570000Y-139840000D03*
X36920000Y-138340000D03*
X36920000Y-139840000D03*
X113250000Y-142100000D03*
X113250000Y-143600000D03*
X111900000Y-142100000D03*
X111900000Y-143600000D03*
D20*
X110800000Y-143000000D03*
X110800000Y-141900000D03*
X115290000Y-137980000D03*
X115290000Y-139080000D03*
D14*
X127610000Y-139640000D03*
X129110000Y-139640000D03*
X126250000Y-134540000D03*
X124750000Y-134540000D03*
X127600000Y-134540000D03*
X129100000Y-134540000D03*
X126260000Y-139640000D03*
X124760000Y-139640000D03*
D12*
X157040000Y-143780000D03*
X157600000Y-143780000D03*
D14*
X98820000Y-123750000D03*
X97320000Y-123750000D03*
D19*
X95970000Y-123750000D03*
X95970000Y-125250000D03*
D21*
X147440000Y-160510000D03*
X152840000Y-160510000D03*
D22*
X109740000Y-133010000D03*
X109740000Y-131010000D03*
X107910000Y-133010000D03*
X107910000Y-131010000D03*
D14*
X100390000Y-136390000D03*
X101890000Y-136390000D03*
D23*
X156400000Y-163150000D03*
X156400000Y-160150000D03*
D24*
X152590000Y-146820000D03*
X152590000Y-154820000D03*
D25*
X144490000Y-154130000D03*
X146490000Y-154130000D03*
X144490000Y-152330000D03*
X146490000Y-152330000D03*
X144490000Y-150530000D03*
X146490000Y-150530000D03*
D14*
X100380000Y-135030000D03*
X101880000Y-135030000D03*
X100390000Y-137750000D03*
X101890000Y-137750000D03*
D19*
X107680000Y-127610000D03*
X107680000Y-126110000D03*
D26*
X59540000Y-130250000D03*
X59540000Y-128650000D03*
D27*
X41400000Y-126700000D03*
X41400000Y-123900000D03*
D28*
X46430000Y-137840000D03*
X46430000Y-135940000D03*
X44430000Y-136890000D03*
X49890000Y-136690000D03*
X49890000Y-134790000D03*
X47890000Y-135740000D03*
X53340000Y-135590000D03*
X53340000Y-133690000D03*
X51340000Y-134640000D03*
X56790000Y-134500000D03*
X56790000Y-132600000D03*
X54790000Y-133550000D03*
D29*
X80620000Y-151660000D03*
D30*
X79580000Y-147860000D03*
D29*
X78540000Y-151660000D03*
D26*
X114240000Y-130850000D03*
X112640000Y-130850000D03*
X58190000Y-130250000D03*
X58190000Y-128650000D03*
X149600000Y-130850000D03*
X148000000Y-130850000D03*
X137840000Y-130850000D03*
X136240000Y-130850000D03*
D27*
X100320000Y-124250000D03*
X103120000Y-124250000D03*
X107560000Y-124250000D03*
X104760000Y-124250000D03*
X105970000Y-135890000D03*
X108770000Y-135890000D03*
D31*
X58272300Y-161210000D03*
X64647700Y-161210000D03*
X120817700Y-134340000D03*
X114442300Y-134340000D03*
X149322300Y-134320000D03*
X155697700Y-134320000D03*
X137892300Y-134330000D03*
X144267700Y-134330000D03*
D32*
X96670000Y-139530000D03*
X96170000Y-139530000D03*
X95670000Y-139530000D03*
X95170000Y-139530000D03*
X94670000Y-139530000D03*
X94670000Y-143930000D03*
X95170000Y-143930000D03*
X95670000Y-143930000D03*
X96170000Y-143930000D03*
X96670000Y-143930000D03*
D33*
X71560000Y-123470000D03*
X72080000Y-123470000D03*
D34*
X78510000Y-158250000D03*
X69010000Y-158250000D03*
D35*
X98040000Y-148200000D03*
X95140000Y-148200000D03*
D34*
X92240000Y-158250000D03*
X82740000Y-158250000D03*
D35*
X101120000Y-148200000D03*
X104020000Y-148200000D03*
D36*
X106500000Y-143850000D03*
X106500000Y-138750000D03*
D37*
X136400000Y-144150000D03*
X131300000Y-144150000D03*
X136400000Y-151700000D03*
X131300000Y-151700000D03*
X143650000Y-160150000D03*
X138550000Y-160150000D03*
D38*
X131200000Y-138040000D03*
X131200000Y-137090000D03*
X131200000Y-136140000D03*
X128520000Y-136140000D03*
X128520000Y-137090000D03*
X128520000Y-138040000D03*
D39*
X129460000Y-136565000D03*
X129460000Y-137615000D03*
X130260000Y-136565000D03*
X130260000Y-137615000D03*
D38*
X127350000Y-138040000D03*
X127350000Y-137090000D03*
X127350000Y-136140000D03*
X124670000Y-136140000D03*
X124670000Y-137090000D03*
X124670000Y-138040000D03*
D39*
X125610000Y-136565000D03*
X125610000Y-137615000D03*
X126410000Y-136565000D03*
X126410000Y-137615000D03*
D40*
X127995000Y-150162500D03*
X125805000Y-150162500D03*
D41*
X127995000Y-152072500D03*
X125805000Y-152072500D03*
D42*
X126265000Y-148160000D03*
X127535000Y-148160000D03*
X128805000Y-148160000D03*
X124995000Y-148160000D03*
X124995000Y-153760000D03*
X128805000Y-153760000D03*
X127535000Y-153760000D03*
X126265000Y-153760000D03*
D40*
X127995000Y-143312500D03*
X125805000Y-143312500D03*
D41*
X127995000Y-145222500D03*
X125805000Y-145222500D03*
D42*
X126265000Y-141310000D03*
X127535000Y-141310000D03*
X128805000Y-141310000D03*
X124995000Y-141310000D03*
X124995000Y-146910000D03*
X128805000Y-146910000D03*
X127535000Y-146910000D03*
X126265000Y-146910000D03*
D40*
X141885000Y-152152500D03*
X139695000Y-152152500D03*
D41*
X141885000Y-154062500D03*
X139695000Y-154062500D03*
D42*
X140155000Y-150150000D03*
X141425000Y-150150000D03*
X142695000Y-150150000D03*
X138885000Y-150150000D03*
X138885000Y-155750000D03*
X142695000Y-155750000D03*
X141425000Y-155750000D03*
X140155000Y-155750000D03*
D40*
X141885000Y-145302500D03*
X139695000Y-145302500D03*
D41*
X141885000Y-147212500D03*
X139695000Y-147212500D03*
D42*
X140155000Y-143300000D03*
X141425000Y-143300000D03*
X142695000Y-143300000D03*
X138885000Y-143300000D03*
X138885000Y-148900000D03*
X142695000Y-148900000D03*
X141425000Y-148900000D03*
X140155000Y-148900000D03*
D43*
X77690000Y-137800000D03*
X79590000Y-137800000D03*
X78640000Y-135800000D03*
D44*
X53340000Y-162680000D03*
X53340000Y-160400000D03*
X53340000Y-158120000D03*
D45*
X45365000Y-158875000D03*
X48715000Y-161925000D03*
X45365000Y-161925000D03*
X48715000Y-158875000D03*
D44*
X42190000Y-162680000D03*
X42190000Y-160400000D03*
X42190000Y-158120000D03*
D45*
X34215000Y-158875000D03*
X37565000Y-161925000D03*
X34215000Y-161925000D03*
X37565000Y-158875000D03*
D43*
X98370000Y-142800000D03*
X100270000Y-142800000D03*
X99320000Y-140800000D03*
D44*
X95740000Y-151070000D03*
X95740000Y-153350000D03*
X95740000Y-155630000D03*
D45*
X103715000Y-154875000D03*
X100365000Y-151825000D03*
X103715000Y-151825000D03*
X100365000Y-154875000D03*
D44*
X104140000Y-162680000D03*
X104140000Y-160400000D03*
X104140000Y-158120000D03*
D45*
X96165000Y-158875000D03*
X99515000Y-161925000D03*
X96165000Y-161925000D03*
X99515000Y-158875000D03*
D44*
X121240000Y-150080000D03*
X121240000Y-147800000D03*
X121240000Y-145520000D03*
D45*
X113265000Y-146275000D03*
X116615000Y-149325000D03*
X113265000Y-149325000D03*
X116615000Y-146275000D03*
D46*
X145910000Y-142690000D03*
X145910000Y-143210000D03*
D47*
X59690000Y-132950000D03*
X59690000Y-131450000D03*
D46*
X42740000Y-144480000D03*
X42740000Y-143960000D03*
X144120000Y-143220000D03*
X144120000Y-142700000D03*
D33*
X69910000Y-125560000D03*
X69390000Y-125560000D03*
X67970000Y-125580000D03*
X68490000Y-125580000D03*
D46*
X73190000Y-125520000D03*
X73190000Y-126040000D03*
D33*
X72090000Y-140710000D03*
X72610000Y-140710000D03*
X73770000Y-140700000D03*
X73250000Y-140700000D03*
D47*
X77590000Y-140550000D03*
X77590000Y-139050000D03*
D48*
X25600000Y-153190000D03*
X27100000Y-153190000D03*
X27100000Y-151740000D03*
X25600000Y-151740000D03*
D49*
X28900000Y-148700000D03*
X29800000Y-148700000D03*
X53050000Y-147410000D03*
X53950000Y-147410000D03*
D50*
X54240000Y-156500000D03*
X54240000Y-155600000D03*
D49*
X94120000Y-146100000D03*
X95020000Y-146100000D03*
D48*
X54700000Y-146210000D03*
X53200000Y-146210000D03*
D51*
X117290000Y-152850000D03*
X122190000Y-152850000D03*
D47*
X27600000Y-137200000D03*
X27600000Y-138700000D03*
D48*
X32870000Y-140980000D03*
X34370000Y-140980000D03*
X32870000Y-139530000D03*
X34370000Y-139530000D03*
D47*
X27600000Y-136150000D03*
X27600000Y-134650000D03*
D48*
X155900000Y-144850000D03*
X157400000Y-144850000D03*
D52*
X38520000Y-140190000D03*
X38520000Y-138290000D03*
D47*
X37070000Y-132790000D03*
X37070000Y-134290000D03*
X35620000Y-132790000D03*
X35620000Y-134290000D03*
X38520000Y-132790000D03*
X38520000Y-134290000D03*
D53*
X136710000Y-139240000D03*
X133810000Y-139240000D03*
D49*
X123680000Y-137710000D03*
X122780000Y-137710000D03*
D23*
X148690000Y-143770000D03*
X148690000Y-138870000D03*
D49*
X131820000Y-134630000D03*
X132720000Y-134630000D03*
D48*
X120540000Y-130900000D03*
X122040000Y-130900000D03*
X117990000Y-130900000D03*
X119490000Y-130900000D03*
X157400000Y-130890000D03*
X155900000Y-130890000D03*
X154850000Y-130890000D03*
X153350000Y-130890000D03*
X144140000Y-130900000D03*
X145640000Y-130900000D03*
X141590000Y-130900000D03*
X143090000Y-130900000D03*
D47*
X58240000Y-132950000D03*
X58240000Y-131450000D03*
D48*
X115440000Y-130900000D03*
X116940000Y-130900000D03*
X152300000Y-130890000D03*
X150800000Y-130890000D03*
X139040000Y-130900000D03*
X140540000Y-130900000D03*
D50*
X107490000Y-129850000D03*
X107490000Y-128950000D03*
D48*
X104610000Y-136340000D03*
X103110000Y-136340000D03*
D47*
X102000000Y-143000000D03*
X102000000Y-141500000D03*
X102000000Y-138950000D03*
X102000000Y-140450000D03*
X98960000Y-135440000D03*
X98960000Y-136940000D03*
X109090000Y-125950000D03*
X109090000Y-127450000D03*
D50*
X97750000Y-135290000D03*
X97750000Y-136190000D03*
D54*
X40767660Y-146582460D03*
X40767660Y-145312460D03*
X40767660Y-144047540D03*
X40767660Y-142777540D03*
X35032340Y-142777540D03*
X35032340Y-144047540D03*
X35032340Y-145312460D03*
X35032340Y-146582460D03*
X145057660Y-141582460D03*
X145057660Y-140312460D03*
X145057660Y-139047540D03*
X145057660Y-137777540D03*
X139322340Y-137777540D03*
X139322340Y-139047540D03*
X139322340Y-140312460D03*
X139322340Y-141582460D03*
D55*
X65330000Y-138890000D03*
X66130000Y-138890000D03*
X66930000Y-138890000D03*
X67730000Y-138890000D03*
X68530000Y-138890000D03*
X69330000Y-138890000D03*
X70130000Y-138890000D03*
X70930000Y-138890000D03*
X71730000Y-138890000D03*
X72530000Y-138890000D03*
X73330000Y-138890000D03*
D56*
X75030000Y-137190000D03*
X75030000Y-136390000D03*
X75030000Y-135590000D03*
X75030000Y-134790000D03*
X75030000Y-133990000D03*
X75030000Y-133190000D03*
X75030000Y-132390000D03*
X75030000Y-131590000D03*
X75030000Y-130790000D03*
X75030000Y-129990000D03*
X75030000Y-129190000D03*
D55*
X73330000Y-127490000D03*
X72530000Y-127490000D03*
X71730000Y-127490000D03*
X70930000Y-127490000D03*
X70130000Y-127490000D03*
X69330000Y-127490000D03*
X68530000Y-127490000D03*
X67730000Y-127490000D03*
X66930000Y-127490000D03*
X66130000Y-127490000D03*
X65330000Y-127490000D03*
D56*
X63630000Y-129190000D03*
X63630000Y-129990000D03*
X63630000Y-130790000D03*
X63630000Y-131590000D03*
X63630000Y-132390000D03*
X63630000Y-133190000D03*
X63630000Y-133990000D03*
X63630000Y-134790000D03*
X63630000Y-135590000D03*
X63630000Y-136390000D03*
X63630000Y-137190000D03*
D57*
X28400000Y-153040000D03*
X29350000Y-153040000D03*
X30300000Y-153040000D03*
X30300000Y-150420000D03*
X29350000Y-150420000D03*
X28400000Y-150420000D03*
D58*
X56202000Y-148160000D03*
X56202000Y-148660000D03*
X56202000Y-149160000D03*
X56202000Y-149660000D03*
D59*
X56900000Y-150358000D03*
X57400000Y-150358000D03*
X57900000Y-150358000D03*
X58400000Y-150358000D03*
D58*
X59098000Y-149660000D03*
X59098000Y-149160000D03*
X59098000Y-148660000D03*
X59098000Y-148160000D03*
D59*
X58400000Y-147462000D03*
X57900000Y-147462000D03*
X57400000Y-147462000D03*
X56900000Y-147462000D03*
D60*
X58100000Y-149360000D03*
X58100000Y-148460000D03*
X57200000Y-149360000D03*
X57200000Y-148460000D03*
D28*
X84420000Y-134810000D03*
X84420000Y-136710000D03*
X86420000Y-135760000D03*
D61*
X33270000Y-137500000D03*
X33270000Y-137100000D03*
X33270000Y-136700000D03*
X33270000Y-136300000D03*
X33270000Y-135900000D03*
X33270000Y-135500000D03*
X33270000Y-135100000D03*
X33270000Y-134700000D03*
X33270000Y-134300000D03*
X32870000Y-134300000D03*
X32870000Y-134700000D03*
X32870000Y-135100000D03*
X32870000Y-135500000D03*
X32870000Y-135900000D03*
X32870000Y-136300000D03*
X32870000Y-136700000D03*
X32870000Y-137100000D03*
X32870000Y-137500000D03*
X32470000Y-137500000D03*
X32470000Y-137100000D03*
X32470000Y-136700000D03*
X32470000Y-136300000D03*
X32470000Y-135500000D03*
X32470000Y-135100000D03*
X32470000Y-134700000D03*
X32470000Y-134300000D03*
X32070000Y-134300000D03*
X32070000Y-134700000D03*
X32070000Y-135100000D03*
X32070000Y-135500000D03*
X32070000Y-136300000D03*
X32070000Y-136700000D03*
X32070000Y-137100000D03*
X32070000Y-137500000D03*
X31670000Y-137500000D03*
X31670000Y-137100000D03*
X31670000Y-136700000D03*
X31670000Y-136300000D03*
X31670000Y-135900000D03*
X31670000Y-135500000D03*
X31670000Y-135100000D03*
X31670000Y-134700000D03*
X31670000Y-134300000D03*
X31270000Y-134300000D03*
X31270000Y-134700000D03*
X31270000Y-135100000D03*
X31270000Y-135500000D03*
X31270000Y-135900000D03*
X31270000Y-136300000D03*
X31270000Y-136700000D03*
X31270000Y-137100000D03*
X31270000Y-137500000D03*
D62*
X113050000Y-138400000D03*
X112100000Y-138400000D03*
X111150000Y-138400000D03*
X111150000Y-140600000D03*
X113050000Y-140600000D03*
X112100000Y-140600000D03*
D63*
X97595000Y-132960000D03*
X98245000Y-132960000D03*
X98895000Y-132960000D03*
X99545000Y-132960000D03*
X100195000Y-132960000D03*
X100845000Y-132960000D03*
X101495000Y-132960000D03*
X102145000Y-132960000D03*
X102795000Y-132960000D03*
X103445000Y-132960000D03*
X104095000Y-132960000D03*
X104745000Y-132960000D03*
X105395000Y-132960000D03*
X106045000Y-132960000D03*
X106045000Y-127260000D03*
X105395000Y-127260000D03*
X104745000Y-127260000D03*
X104095000Y-127260000D03*
X103445000Y-127260000D03*
X102795000Y-127260000D03*
X102145000Y-127260000D03*
X101495000Y-127260000D03*
X100845000Y-127260000D03*
X100195000Y-127260000D03*
X99545000Y-127260000D03*
X98895000Y-127260000D03*
X98245000Y-127260000D03*
X97595000Y-127260000D03*
D64*
X72875860Y-141650700D03*
X72875860Y-142151080D03*
X72875860Y-142648920D03*
X72875860Y-143149300D03*
X75624140Y-143149300D03*
X75624140Y-142648920D03*
X75624140Y-142151080D03*
X75624140Y-141650700D03*
D12*
X25400000Y-146450000D03*
X25960000Y-146450000D03*
D31*
X85142300Y-144800000D03*
X91517700Y-144800000D03*
D48*
X25600000Y-147520000D03*
X27100000Y-147520000D03*
D65*
X27750000Y-131150000D03*
X25650000Y-131150000D03*
X27850000Y-154900000D03*
X29950000Y-154900000D03*
D66*
X70880000Y-149900000D03*
X70880000Y-152000000D03*
D26*
X42540000Y-152240000D03*
X42540000Y-150640000D03*
X43890000Y-152250000D03*
X43890000Y-150650000D03*
D67*
X42390000Y-155990000D03*
X42390000Y-153790000D03*
X43840000Y-156000000D03*
X43840000Y-153800000D03*
D51*
X73170000Y-151050000D03*
X76170000Y-151050000D03*
X98320000Y-145050000D03*
X101320000Y-145050000D03*
D18*
X94700000Y-137530000D03*
X94700000Y-135030000D03*
X86250000Y-141060000D03*
X86250000Y-138560000D03*
X123280000Y-143260000D03*
X123280000Y-140760000D03*
X114830000Y-143250000D03*
X114830000Y-140750000D03*
D68*
X146390000Y-155700000D03*
X144490000Y-155700000D03*
X132520000Y-156130000D03*
X134420000Y-156130000D03*
X88020000Y-134910000D03*
X89920000Y-134910000D03*
D69*
X117050000Y-142650000D03*
X121050000Y-142650000D03*
X88470000Y-137210000D03*
X92470000Y-137210000D03*
X92470000Y-140460000D03*
X88470000Y-140460000D03*
X117050000Y-139400000D03*
X121050000Y-139400000D03*
M02*
