M48
;DRILL file {KiCad 4.0.7} date 06/06/18 14:18:49
;FORMAT={-:-/ absolute / metric / decimal}
FMAT,2
METRIC,TZ
T1C0.100
T2C0.300
T3C0.400
T4C0.650
T5C0.762
T6C0.800
T7C0.838
T8C1.000
T9C1.200
T10C1.300
T11C1.650
T12C3.500
%
G90
G05
M71
T1
X25.65Y-131.58
X27.32Y-135.65
X27.58Y-137.65
X28.33Y-133.28
X28.33Y-133.92
X28.58Y-133.9
X28.59Y-133.28
X28.75Y-131.2
X29.39Y-134.11
X29.6Y-131.22
X30.042Y-138.308
X30.36Y-136.39
X30.45Y-131.2
X30.95Y-139.22
X31.26Y-137.9
X31.46Y-137.3
X31.47Y-136.91
X31.48Y-134.91
X31.87Y-136.5
X31.87Y-136.9
X31.87Y-137.28
X32.26Y-134.5
X32.27Y-134.9
X32.27Y-136.49
X32.27Y-137.3
X32.66Y-137.31
X32.66Y-138.11
X33.06Y-136.1
X33.06Y-136.89
X33.06Y-137.29
X33.07Y-134.9
X33.08Y-136.51
X33.27Y-137.87
X33.34Y-140.97
X33.42Y-132.65
X33.89Y-135.9
X35.54Y-138.94
X35.61Y-133.84
X36.11Y-136.3
X37.07Y-133.82
X38.52Y-133.84
X38.54Y-138.84
X51.85Y-162.77
T2
X97.595Y-128.835
X97.595Y-129.685
X97.595Y-130.535
X97.595Y-131.385
X98.651Y-128.835
X98.651Y-129.685
X98.651Y-130.535
X98.651Y-131.385
X99.707Y-128.835
X99.707Y-129.685
X99.707Y-130.535
X99.707Y-131.385
X100.764Y-128.835
X100.764Y-129.685
X100.764Y-130.535
X100.764Y-131.385
X101.82Y-128.835
X101.82Y-129.685
X101.82Y-130.535
X101.82Y-131.385
X102.876Y-128.835
X102.876Y-129.685
X102.876Y-130.535
X102.876Y-131.385
X103.932Y-128.835
X103.932Y-129.685
X103.932Y-130.535
X103.932Y-131.385
X104.989Y-128.835
X104.989Y-129.685
X104.989Y-130.535
X104.989Y-131.385
X106.045Y-128.835
X106.045Y-129.685
X106.045Y-130.535
X106.045Y-131.385
T3
X27.1Y-150.5
X28.41Y-151.76
X29.81Y-136.1
X31.18Y-150.42
X31.37Y-153.03
X36.68Y-146.6
X39.06Y-146.27
X39.15Y-145.32
X40.3Y-158.2
X40.33Y-162.61
X41.08Y-155.4
X43.48Y-143.63
X43.52Y-144.45
X44.85Y-155.54
X46.42Y-139.17
X46.84Y-156.2
X51.5Y-158.13
X55.314Y-148.66
X55.7Y-146.19
X57.46Y-145.63
X59.2Y-147.4
X59.93Y-156.07
X60.1Y-148.11
X60.83Y-162.6
X61.23Y-147.64
X61.93Y-159.85
X62.32Y-130.
X62.35Y-129.2
X64.34Y-127.34
X64.9Y-133.21
X65.21Y-137.59
X65.97Y-136.42
X66.01Y-135.53
X66.051Y-134.801
X66.09Y-140.
X66.15Y-126.27
X66.89Y-128.8
X66.92Y-137.61
X67.04Y-125.53
X67.29Y-140.93
X67.73Y-140.16
X68.54Y-130.39
X69.34Y-130.38
X69.34Y-140.13
X69.67Y-124.34
X70.16Y-129.87
X70.91Y-125.61
X70.95Y-129.88
X71.2Y-140.74
X71.74Y-137.67
X71.774Y-129.88
X72.8Y-123.48
X72.876Y-141.51
X72.92Y-160.59
X73.33Y-128.76
X73.78Y-131.59
X73.788Y-140.13
X74.02Y-125.49
X76.24Y-136.39
X76.4Y-128.7
X76.41Y-129.43
X76.45Y-132.38
X76.54Y-131.49
X77.46Y-133.93
X81.95Y-133.63
X83.1Y-134.21
X84.18Y-151.66
X84.67Y-141.05
X85.3Y-136.79
X86.657Y-131.533
X87.156Y-132.024
X87.68Y-133.9
X87.77Y-132.36
X89.18Y-154.61
X89.21Y-157.52
X90.14Y-137.48
X90.74Y-136.83
X90.9Y-139.71
X91.01Y-140.5
X94.6Y-140.89
X94.67Y-142.55
X94.73Y-136.33
X95.63Y-141.14
X95.74Y-155.63
X95.96Y-124.43
X96.16Y-132.1
X96.17Y-130.03
X96.24Y-132.89
X96.75Y-125.33
X97.48Y-151.08
X97.74Y-134.57
X98.21Y-126.21
X98.6Y-134.52
X99.342Y-141.51
X99.62Y-126.16
X100.27Y-139.56
X100.82Y-133.95
X101.83Y-126.14
X102.16Y-133.97
X102.72Y-137.76
X102.8Y-126.03
X102.96Y-133.98
X103.51Y-126.22
X103.86Y-136.35
X104.08Y-133.98
X104.1Y-125.75
X104.47Y-138.69
X104.73Y-126.19
X104.81Y-133.99
X104.82Y-137.29
X106.48Y-124.22
X106.5Y-140.69
X106.82Y-133.06
X108.25Y-156.24
X109.1Y-126.79
X109.68Y-142.68
X110.11Y-135.86
X111.15Y-139.56
X111.25Y-144.744
X112.09Y-139.53
X112.825Y-138.05
X113.45Y-130.84
X116.28Y-130.85
X117.26Y-134.4
X118.408Y-144.079
X118.45Y-142.9
X118.55Y-152.93
X118.62Y-157.05
X118.71Y-130.89
X118.839Y-139.469
X119.005Y-131.525
X119.25Y-142.65
X119.25Y-141.85
X119.71Y-145.57
X119.76Y-131.9
X119.89Y-152.2
X120.85Y-134.4
X121.03Y-137.48
X121.2Y-131.25
X122.19Y-136.79
X122.94Y-156.88
X123.02Y-136.64
X123.18Y-147.61
X123.23Y-139.53
X123.25Y-151.54
X123.64Y-133.96
X123.76Y-136.8
X123.77Y-148.19
X123.975Y-135.79
X124.66Y-138.72
X124.74Y-133.45
X125.52Y-140.47
X126.249Y-131.521
X126.75Y-129.14
X126.75Y-130.36
X126.9Y-151.29
X127.11Y-133.16
X127.66Y-138.83
X127.67Y-136.78
X127.928Y-135.626
X128.Y-133.16
X128.66Y-140.55
X129.48Y-133.06
X130.07Y-131.8
X130.36Y-134.99
X130.88Y-133.09
X130.93Y-128.98
X130.93Y-131.95
X130.96Y-134.01
X131.06Y-136.765
X131.85Y-135.33
X132.72Y-135.37
X133.38Y-133.92
X133.83Y-135.95
X134.11Y-133.86
X134.48Y-137.07
X134.5Y-144.03
X135.32Y-139.31
X136.54Y-151.78
X136.73Y-142.02
X137.05Y-130.84
X137.63Y-149.59
X139.76Y-130.85
X140.12Y-142.45
X140.16Y-143.71
X140.91Y-140.3
X141.58Y-131.91
X142.52Y-131.67
X142.692Y-139.048
X143.06Y-141.16
X143.11Y-140.43
X143.19Y-139.64
X143.25Y-141.86
X143.876Y-143.974
X143.96Y-136.82
X144.05Y-149.06
X145.04Y-144.67
X145.39Y-156.73
X145.92Y-143.94
X146.71Y-138.05
X146.74Y-139.24
X146.78Y-144.56
X147.12Y-130.82
X147.69Y-160.54
X148.69Y-139.78
X152.3Y-129.86
X152.51Y-146.89
X154.Y-130.89
X154.81Y-131.92
X156.02Y-129.6
T4
X59.09Y-124.25
X59.09Y-125.52
X59.09Y-126.79
T5
X84.69Y-126.48
X84.69Y-129.02
X87.23Y-126.48
X87.23Y-129.02
X89.77Y-126.48
X89.77Y-129.02
T6
X34.1Y-127.45
X37.6Y-127.45
X45.2Y-127.45
X48.7Y-127.45
T7
X49.724Y-147.6
X49.724Y-150.14
X49.724Y-152.68
X49.724Y-155.22
X53.915Y-148.87
X53.915Y-151.41
X53.915Y-153.95
T8
X53.15Y-124.87
X53.15Y-127.41
X53.15Y-129.95
X55.69Y-124.87
X55.69Y-127.41
X55.69Y-129.95
T9
X27.Y-159.2
X27.01Y-126.6
X29.55Y-126.6
X30.5Y-159.2
X66.33Y-148.1
X66.33Y-150.64
X114.08Y-126.65
X116.62Y-126.65
X119.16Y-126.65
X121.7Y-126.65
X125.52Y-126.65
X127.33Y-160.35
X128.06Y-126.65
X129.87Y-160.35
X130.6Y-126.65
X132.41Y-160.35
X133.14Y-126.65
X134.95Y-160.35
X136.95Y-126.65
X139.49Y-126.65
X142.03Y-126.65
X144.57Y-126.65
X148.4Y-126.65
X150.94Y-126.65
X153.48Y-126.65
X156.02Y-126.65
T10
X108.49Y-147.11
X108.49Y-162.35
T11
X118.99Y-159.7
X122.95Y-159.7
T12
X29.Y-143.5
X154.01Y-140.81
T0
M30
