G04 #@! TF.FileFunction,Paste,Bot*
%FSLAX46Y46*%
G04 Gerber Fmt 4.6, Leading zero omitted, Abs format (unit mm)*
G04 Created by KiCad (PCBNEW 4.0.7) date 06/06/18 14:18:26*
%MOMM*%
%LPD*%
G01*
G04 APERTURE LIST*
%ADD10C,0.100000*%
%ADD11C,0.150000*%
%ADD12R,0.300000X0.350000*%
%ADD13R,1.250000X1.000000*%
%ADD14R,0.350000X0.300000*%
%ADD15R,0.300000X1.450000*%
%ADD16R,0.430000X0.280000*%
%ADD17R,1.700000X0.900000*%
%ADD18R,0.600000X0.450000*%
G04 APERTURE END LIST*
D10*
D11*
X25000000Y-164000000D02*
X25000000Y-123000000D01*
X158000000Y-164000000D02*
X25000000Y-164000000D01*
X158000000Y-123000000D02*
X158000000Y-164000000D01*
X25000000Y-123000000D02*
X158000000Y-123000000D01*
D12*
X119220000Y-150210000D03*
X119780000Y-150210000D03*
D13*
X111180000Y-134800000D03*
X111180000Y-136800000D03*
X112980000Y-134800000D03*
X112980000Y-136800000D03*
D14*
X146740000Y-142280000D03*
X146740000Y-142840000D03*
D15*
X118960000Y-144300000D03*
X119460000Y-144300000D03*
X119960000Y-144300000D03*
X120460000Y-144300000D03*
X120960000Y-144300000D03*
X120960000Y-148700000D03*
X120460000Y-148700000D03*
X119960000Y-148700000D03*
X119460000Y-148700000D03*
X118960000Y-148700000D03*
X121580000Y-131200000D03*
X122080000Y-131200000D03*
X122580000Y-131200000D03*
X123080000Y-131200000D03*
X123580000Y-131200000D03*
X123580000Y-135600000D03*
X123080000Y-135600000D03*
X122580000Y-135600000D03*
X122080000Y-135600000D03*
X121580000Y-135600000D03*
X131870000Y-132610000D03*
X132370000Y-132610000D03*
X132870000Y-132610000D03*
X133370000Y-132610000D03*
X133870000Y-132610000D03*
X133870000Y-137010000D03*
X133370000Y-137010000D03*
X132870000Y-137010000D03*
X132370000Y-137010000D03*
X131870000Y-137010000D03*
D16*
X117330000Y-150810000D03*
X117330000Y-151330000D03*
X121330000Y-151030000D03*
X121330000Y-151550000D03*
D17*
X119520000Y-137050000D03*
X119520000Y-134150000D03*
X117260000Y-137050000D03*
X117260000Y-134150000D03*
X115010000Y-133880000D03*
X115010000Y-136780000D03*
D16*
X146780000Y-143880000D03*
X146780000Y-143360000D03*
X147910000Y-139720000D03*
X147910000Y-140240000D03*
D15*
X146710000Y-141200000D03*
X146210000Y-141200000D03*
X145710000Y-141200000D03*
X145210000Y-141200000D03*
X144710000Y-141200000D03*
X144710000Y-136800000D03*
X145210000Y-136800000D03*
X145710000Y-136800000D03*
X146210000Y-136800000D03*
X146710000Y-136800000D03*
D18*
X119180000Y-129910000D03*
X117080000Y-129910000D03*
X151620000Y-129600000D03*
X153720000Y-129600000D03*
X129130000Y-129720000D03*
X131230000Y-129720000D03*
X121830000Y-156910000D03*
X119730000Y-156910000D03*
M02*
