G04 #@! TF.FileFunction,Copper,L4,Inr,Signal*
%FSLAX46Y46*%
G04 Gerber Fmt 4.6, Leading zero omitted, Abs format (unit mm)*
G04 Created by KiCad (PCBNEW 4.0.7) date 06/14/18 16:50:20*
%MOMM*%
%LPD*%
G01*
G04 APERTURE LIST*
%ADD10C,0.100000*%
%ADD11C,0.150000*%
%ADD12R,1.600000X1.600000*%
%ADD13C,1.600000*%
%ADD14R,2.600000X2.600000*%
%ADD15O,2.600000X2.600000*%
%ADD16C,7.000000*%
%ADD17R,1.700000X1.700000*%
%ADD18O,1.700000X1.700000*%
%ADD19R,1.000000X1.000000*%
%ADD20O,1.000000X1.000000*%
%ADD21R,2.350000X3.000000*%
%ADD22O,2.350000X3.000000*%
%ADD23C,1.270000*%
%ADD24R,1.270000X1.270000*%
%ADD25R,2.000000X2.600000*%
%ADD26O,2.000000X2.600000*%
%ADD27R,1.397000X1.397000*%
%ADD28C,1.397000*%
%ADD29R,1.100000X0.890000*%
%ADD30R,2.600000X2.000000*%
%ADD31O,2.600000X2.000000*%
%ADD32C,2.400000*%
%ADD33R,2.400000X2.400000*%
%ADD34C,0.600000*%
%ADD35C,0.400000*%
%ADD36C,0.200000*%
%ADD37C,0.200000*%
%ADD38C,0.300000*%
G04 APERTURE END LIST*
D10*
D11*
X25000000Y-164000000D02*
X25000000Y-123000000D01*
X158000000Y-164000000D02*
X25000000Y-164000000D01*
X158000000Y-123000000D02*
X158000000Y-164000000D01*
X25000000Y-123000000D02*
X158000000Y-123000000D01*
D12*
X45200000Y-127450000D03*
D13*
X48700000Y-127450000D03*
D12*
X34100000Y-127450000D03*
D13*
X37600000Y-127450000D03*
D14*
X108490000Y-162350000D03*
D15*
X108490000Y-147110000D03*
D16*
X154010000Y-140810000D03*
D17*
X55690000Y-129950000D03*
D18*
X53150000Y-129950000D03*
X55690000Y-127410000D03*
X53150000Y-127410000D03*
X55690000Y-124870000D03*
X53150000Y-124870000D03*
D19*
X59090000Y-124250000D03*
D20*
X59090000Y-125520000D03*
X59090000Y-126790000D03*
D21*
X122950000Y-159700000D03*
D22*
X118990000Y-159700000D03*
D23*
X84690000Y-126480000D03*
X87230000Y-126480000D03*
X89770000Y-126480000D03*
D24*
X84690000Y-129020000D03*
D23*
X87230000Y-129020000D03*
X89770000Y-129020000D03*
D25*
X125520000Y-126650000D03*
D26*
X128060000Y-126650000D03*
X130600000Y-126650000D03*
X133140000Y-126650000D03*
D25*
X114080000Y-126650000D03*
D26*
X116620000Y-126650000D03*
X119160000Y-126650000D03*
X121700000Y-126650000D03*
D25*
X136950000Y-126650000D03*
D26*
X139490000Y-126650000D03*
X142030000Y-126650000D03*
X144570000Y-126650000D03*
D25*
X148400000Y-126650000D03*
D26*
X150940000Y-126650000D03*
X153480000Y-126650000D03*
X156020000Y-126650000D03*
D27*
X49724000Y-155220000D03*
D28*
X53915000Y-153950000D03*
X49724000Y-152680000D03*
X53915000Y-151410000D03*
X49724000Y-150140000D03*
X53915000Y-148870000D03*
X49724000Y-147600000D03*
D29*
X106045000Y-131385000D03*
X106045000Y-130535000D03*
X106045000Y-128835000D03*
X106045000Y-129685000D03*
X104988750Y-129685000D03*
X104988750Y-128835000D03*
X104988750Y-130535000D03*
X104988750Y-131385000D03*
X103932500Y-131385000D03*
X103932500Y-130535000D03*
X103932500Y-128835000D03*
X103932500Y-129685000D03*
X102876250Y-129685000D03*
X102876250Y-128835000D03*
X102876250Y-130535000D03*
X102876250Y-131385000D03*
X101820000Y-131385000D03*
X101820000Y-130535000D03*
X101820000Y-128835000D03*
X101820000Y-129685000D03*
X100763750Y-129685000D03*
X100763750Y-128835000D03*
X100763750Y-130535000D03*
X100763750Y-131385000D03*
X99707500Y-131385000D03*
X99707500Y-130535000D03*
X99707500Y-128835000D03*
X99707500Y-129685000D03*
X98651250Y-129685000D03*
X98651250Y-128835000D03*
X98651250Y-130535000D03*
X98651250Y-131385000D03*
X97595000Y-131385000D03*
X97595000Y-130535000D03*
X97595000Y-128835000D03*
X97595000Y-129685000D03*
D16*
X29000000Y-143500000D03*
D30*
X66330000Y-148100000D03*
D31*
X66330000Y-150640000D03*
D25*
X29550000Y-126600000D03*
D26*
X27010000Y-126600000D03*
D32*
X30500000Y-159200000D03*
D33*
X27000000Y-159200000D03*
D25*
X134950000Y-160350000D03*
D26*
X132410000Y-160350000D03*
X129870000Y-160350000D03*
X127330000Y-160350000D03*
D34*
X28910000Y-134470000D03*
X40400000Y-134750000D03*
X45900000Y-141170000D03*
X50990000Y-142080000D03*
X62190000Y-142140000D03*
X56400000Y-141830000D03*
X54570000Y-138930000D03*
X57570000Y-138880000D03*
X74010000Y-147280000D03*
X69850000Y-137010000D03*
X68680000Y-134010000D03*
X40000000Y-154100000D03*
X81660000Y-124890000D03*
X91970000Y-129570000D03*
X93240000Y-124760000D03*
X77660000Y-124480000D03*
X45540000Y-132340000D03*
X41540000Y-131450000D03*
X41790000Y-137360000D03*
X37540000Y-149420000D03*
X46780000Y-153150000D03*
X47000000Y-148010000D03*
X48490000Y-144440000D03*
X53460000Y-144330000D03*
X49760000Y-132620000D03*
X41440000Y-129150000D03*
X41940000Y-133860000D03*
X44770000Y-134020000D03*
X46420000Y-133990000D03*
X122410000Y-148980000D03*
X117330000Y-134450000D03*
X87680000Y-133900000D03*
X94670000Y-142550000D03*
X126248909Y-131521091D03*
X123975028Y-135790010D03*
X134480000Y-137070000D03*
X146740000Y-139240000D03*
X143876446Y-143973554D03*
X140120000Y-142450000D03*
X133830000Y-135950000D03*
X130070000Y-131800000D03*
X36680000Y-146600000D03*
X43520000Y-144450000D03*
X57460000Y-145630000D03*
X61230000Y-147640000D03*
X71200000Y-140740000D03*
X72875860Y-141510000D03*
X73788316Y-140129999D03*
X83100000Y-134210000D03*
X74020000Y-125490000D03*
X69670000Y-124340000D03*
X67040000Y-125530000D03*
X33720000Y-135550000D03*
X25830000Y-137450000D03*
X119004779Y-131524908D03*
X109680000Y-142680000D03*
D35*
X112810000Y-138010000D03*
D34*
X123020000Y-136640000D03*
X121200000Y-131250000D03*
X129480000Y-133059999D03*
X146710000Y-138050000D03*
X145040000Y-144670000D03*
X143960000Y-136820000D03*
X147120000Y-130820000D03*
X154000000Y-130890000D03*
X142520000Y-131670000D03*
X71740000Y-137670000D03*
X73780000Y-131590000D03*
X66890000Y-128800000D03*
X70910000Y-125610000D03*
X64900000Y-133210000D03*
X72800000Y-123480000D03*
X61930000Y-159850000D03*
X72920000Y-160590000D03*
X55700000Y-146190000D03*
X118620000Y-157050000D03*
X90140000Y-137480000D03*
X122940000Y-156880000D03*
X25980000Y-132860000D03*
X39880000Y-132240000D03*
X29210000Y-133280000D03*
X32490000Y-132470000D03*
D36*
X25650000Y-131580000D03*
D34*
X27980000Y-139440000D03*
X32760000Y-141900000D03*
X44850000Y-155540000D03*
D36*
X51850000Y-162770000D03*
D34*
X119250000Y-142650000D03*
X123230000Y-139530000D03*
X156020000Y-129600000D03*
X145390000Y-156730000D03*
X123760000Y-136800000D03*
X123190000Y-147730000D03*
X96170000Y-130030000D03*
X134500000Y-144030000D03*
X123640000Y-133960000D03*
X104100000Y-125750000D03*
X95960000Y-124430000D03*
X96750000Y-125330000D03*
X106480000Y-124220000D03*
X102800000Y-126030000D03*
X106820000Y-133060000D03*
X102960000Y-133980000D03*
X103860000Y-136350000D03*
X98600000Y-134520000D03*
X104820000Y-137290000D03*
X104810000Y-133990000D03*
X152510000Y-146890000D03*
X144050000Y-149060000D03*
X146780000Y-144560000D03*
X102160000Y-133970000D03*
X102720000Y-137760000D03*
X46420000Y-139170000D03*
X27100000Y-150500000D03*
X65970000Y-136420000D03*
X87770000Y-132360000D03*
X130880000Y-133090000D03*
X154810000Y-131920000D03*
X87155891Y-132024014D03*
X141580000Y-131910000D03*
X130930000Y-131950000D03*
X66010000Y-135530000D03*
X86656890Y-131533081D03*
X118710000Y-130890000D03*
X66050686Y-134800686D03*
X113450000Y-130840000D03*
X116280000Y-130850000D03*
X108250000Y-156240000D03*
X118550000Y-152930000D03*
X95740000Y-155630000D03*
X152300000Y-129860000D03*
X126750000Y-129140000D03*
X126760000Y-130690000D03*
X35420000Y-132900000D03*
X134110000Y-133860000D03*
X143190000Y-139640000D03*
X94600000Y-140890000D03*
X68540000Y-130390000D03*
X60100000Y-148110000D03*
X39150000Y-145320000D03*
X98210000Y-126210000D03*
X123200000Y-148560000D03*
X128660000Y-140550000D03*
X140160000Y-143710000D03*
X125520000Y-140470000D03*
X99620000Y-126160000D03*
X127110000Y-133160000D03*
X103510000Y-126220000D03*
X137630000Y-149590000D03*
X101830000Y-126140000D03*
X136730000Y-142020000D03*
X41080000Y-155400000D03*
X40330000Y-162610000D03*
X135320000Y-139310000D03*
X104080000Y-133980000D03*
X104470000Y-138690000D03*
X109100000Y-126790000D03*
X104730000Y-126190000D03*
X100820000Y-133950000D03*
X97740000Y-134570000D03*
X143060000Y-141160000D03*
X96240000Y-132890000D03*
X66920000Y-137610000D03*
X84670000Y-141050000D03*
X91010000Y-140500000D03*
X31330000Y-137160000D03*
X27130000Y-137130000D03*
X124660000Y-138720000D03*
X124740000Y-133450000D03*
X106500000Y-140690000D03*
X131850000Y-135330000D03*
X120850000Y-134400000D03*
X122190000Y-136790000D03*
X132720000Y-135370000D03*
X71773646Y-129879990D03*
X35410000Y-140770000D03*
X111150000Y-139560000D03*
X112090000Y-139530000D03*
X148690000Y-139780000D03*
X81950000Y-133630000D03*
X137060000Y-130850000D03*
X139760000Y-130850000D03*
X118450002Y-142900000D03*
X67730000Y-140160000D03*
X65210000Y-137590000D03*
X119760000Y-131900000D03*
X130960000Y-134010000D03*
X66090000Y-140000000D03*
X62350000Y-129200000D03*
X70950000Y-129880000D03*
X62320000Y-130000000D03*
X70160000Y-129870000D03*
X73330000Y-128760000D03*
X130220000Y-135000000D03*
X76410000Y-129430000D03*
X127928312Y-135626131D03*
X76540000Y-131490000D03*
X145920000Y-143940000D03*
X140910000Y-140300000D03*
X64340000Y-127340000D03*
X43480000Y-143630000D03*
X142692460Y-139047540D03*
X66150000Y-126270000D03*
X67290000Y-140930000D03*
X28770000Y-135340000D03*
X30850000Y-134170000D03*
X31370000Y-153030000D03*
X69340000Y-140130000D03*
X143110000Y-140430000D03*
X76400000Y-128700000D03*
X96160000Y-132100000D03*
X110110000Y-135860000D03*
X126900000Y-151290000D03*
X147690000Y-160540000D03*
X136540000Y-151780000D03*
X33000000Y-133360000D03*
X33830000Y-140200000D03*
X30170000Y-138380000D03*
X33820000Y-141940000D03*
X27660000Y-133810000D03*
X30870000Y-133180000D03*
X38340000Y-139100000D03*
X38070000Y-135350000D03*
X55313511Y-148660000D03*
X119240000Y-140770000D03*
X45480000Y-146270000D03*
X38750000Y-146270000D03*
X36170000Y-133030000D03*
X133380000Y-133920000D03*
X143250000Y-141860000D03*
X95630000Y-141140000D03*
X69340000Y-130380000D03*
X59200000Y-147400000D03*
X118838554Y-139468554D03*
X127740000Y-138860000D03*
X131060002Y-136765002D03*
X127670000Y-136780000D03*
X128050000Y-133100000D03*
X130930000Y-128980000D03*
X85300000Y-136790000D03*
X94730000Y-136330000D03*
X90900000Y-139710000D03*
X61320000Y-162100000D03*
X28410000Y-151760000D03*
X51500000Y-158130000D03*
X40300000Y-158200000D03*
X38300000Y-137080000D03*
X37800000Y-138150000D03*
X40610000Y-136010000D03*
X36890000Y-132950000D03*
X37850000Y-136070000D03*
X27310000Y-135960000D03*
X31090000Y-138100000D03*
X28130000Y-138510000D03*
X32230000Y-138810000D03*
D37*
X66315736Y-128650000D02*
X47400000Y-128650000D01*
X47400000Y-128650000D02*
X46200000Y-127450000D01*
X46200000Y-127450000D02*
X45200000Y-127450000D01*
X66890000Y-128800000D02*
X66465736Y-128800000D01*
X66465736Y-128800000D02*
X66315736Y-128650000D01*
X73780000Y-131590000D02*
X73780000Y-131165736D01*
X73780000Y-131165736D02*
X71414264Y-128800000D01*
X71414264Y-128800000D02*
X67314264Y-128800000D01*
X67314264Y-128800000D02*
X66890000Y-128800000D01*
X73780000Y-131590000D02*
X71740000Y-133630000D01*
X71740000Y-133630000D02*
X71740000Y-137670000D01*
X37890000Y-143160000D02*
X41880000Y-139170000D01*
X41880000Y-139170000D02*
X46420000Y-139170000D01*
X37890000Y-146420000D02*
X37890000Y-143160000D01*
X35930000Y-148380000D02*
X37890000Y-146420000D01*
X28795736Y-148380000D02*
X35930000Y-148380000D01*
X27100000Y-150500000D02*
X27100000Y-150075736D01*
X27100000Y-150075736D02*
X28795736Y-148380000D01*
X96884999Y-132030001D02*
X96088080Y-131233082D01*
X96088080Y-131233082D02*
X86956889Y-131233082D01*
X118710000Y-130890000D02*
X117569999Y-132030001D01*
X117569999Y-132030001D02*
X96884999Y-132030001D01*
X86956889Y-131233082D02*
X86656890Y-131533081D01*
X118540000Y-140670000D02*
X118540000Y-140660000D01*
X94600000Y-140890000D02*
X94899999Y-140590001D01*
X94899999Y-140590001D02*
X95820003Y-140590001D01*
X95820003Y-140590001D02*
X97239993Y-142009991D01*
X97239993Y-142009991D02*
X115990192Y-142223061D01*
X116986939Y-142223061D02*
X118540000Y-140670000D01*
X115990192Y-142223061D02*
X116986939Y-142223061D01*
X134110000Y-134900000D02*
X134110000Y-133860000D01*
X133160000Y-135850000D02*
X134110000Y-134900000D01*
X133160000Y-138570000D02*
X133160000Y-135850000D01*
X132060000Y-139670000D02*
X133160000Y-138570000D01*
X124380000Y-139670000D02*
X132060000Y-139670000D01*
X123710000Y-139000000D02*
X124380000Y-139670000D01*
X120200000Y-139000000D02*
X123710000Y-139000000D01*
X118540000Y-140660000D02*
X120200000Y-139000000D01*
D10*
X54420000Y-148130000D02*
X60080000Y-148130000D01*
X60080000Y-148130000D02*
X60100000Y-148110000D01*
X51610000Y-145320000D02*
X54420000Y-148130000D01*
X39150000Y-145320000D02*
X51610000Y-145320000D01*
D37*
X143060000Y-141160000D02*
X143099998Y-141160000D01*
X143099998Y-141160000D02*
X134499997Y-132559999D01*
X134499997Y-132559999D02*
X96570001Y-132559999D01*
X96570001Y-132559999D02*
X96539999Y-132590001D01*
X96539999Y-132590001D02*
X96240000Y-132890000D01*
D10*
X69323636Y-132330000D02*
X59170000Y-132330000D01*
X71473647Y-130179989D02*
X71773646Y-129879990D01*
X69323636Y-132330000D02*
X71473647Y-130179989D01*
X37540000Y-138640000D02*
X35410000Y-140770000D01*
X52860000Y-138640000D02*
X37540000Y-138640000D01*
X59170000Y-132330000D02*
X52860000Y-138640000D01*
D37*
X116850000Y-140060001D02*
X116909999Y-140060001D01*
X118590000Y-138380000D02*
X120730000Y-138380000D01*
X116909999Y-140060001D02*
X118590000Y-138380000D01*
X120730000Y-138380000D02*
X123590000Y-138380000D01*
X130600001Y-135490001D02*
X130960000Y-135130002D01*
X129699999Y-135490001D02*
X130600001Y-135490001D01*
X128970000Y-136220000D02*
X129699999Y-135490001D01*
X130960000Y-135130002D02*
X130960000Y-134010000D01*
X123590000Y-138380000D02*
X125750000Y-136220000D01*
X125750000Y-136220000D02*
X128970000Y-136220000D01*
X66090000Y-140000000D02*
X66460001Y-139629999D01*
X66460001Y-139629999D02*
X89399997Y-139629999D01*
X89399997Y-139629999D02*
X90769999Y-141000001D01*
X90769999Y-141000001D02*
X91250001Y-141000001D01*
X91250001Y-141000001D02*
X92190001Y-140060001D01*
X92190001Y-140060001D02*
X116850000Y-140060001D01*
X76410000Y-129430000D02*
X83469998Y-129430000D01*
X83469998Y-129430000D02*
X87429999Y-133390001D01*
X106409999Y-133390001D02*
X108009998Y-134990000D01*
X87429999Y-133390001D02*
X106409999Y-133390001D01*
X108009998Y-134990000D02*
X130220000Y-135000000D01*
X76540000Y-131490000D02*
X80340010Y-135290010D01*
X80340010Y-135290010D02*
X127592191Y-135290010D01*
X127592191Y-135290010D02*
X127928312Y-135626131D01*
X76400000Y-128700000D02*
X76915001Y-128184999D01*
X76915001Y-128184999D02*
X130864999Y-128184999D01*
X130864999Y-128184999D02*
X143110000Y-140430000D01*
X115850000Y-144160000D02*
X119240000Y-140770000D01*
X98733658Y-144243658D02*
X115850000Y-144243658D01*
X95630000Y-141140000D02*
X98733658Y-144243658D01*
D38*
X28410000Y-151760000D02*
X33860000Y-151760000D01*
X33860000Y-151760000D02*
X40300000Y-158200000D01*
M02*
