M48
;DRILL file {KiCad 4.0.7} date 06/14/18 22:28:07
;FORMAT={-:-/ absolute / metric / decimal}
FMAT,2
METRIC,TZ
T1C0.250
T2C0.300
T3C0.650
T4C0.762
T5C0.800
T6C0.838
T7C1.000
T8C1.200
T9C1.300
T10C1.650
T11C1.700
T12C3.500
%
G90
G05
M71
T1
X27.31Y-135.66
X27.32Y-133.73
X28.77Y-138.24
X29.76Y-134.6
X30.05Y-139.
X30.85Y-134.56
X31.02Y-137.14
X31.36Y-137.96
X32.02Y-140.65
X33.4Y-133.12
X33.77Y-139.92
X34.18Y-130.7
X34.18Y-133.14
X35.79Y-132.81
X36.9Y-132.77
X37.66Y-135.55
X37.7Y-137.55
X38.26Y-137.08
X38.36Y-134.65
X59.33Y-155.03
X60.08Y-155.01
X86.73Y-150.07
X87.45Y-150.05
X93.71Y-153.36
X94.41Y-153.36
X96.53Y-151.14
X96.99Y-155.63
X97.Y-162.71
X97.27Y-151.12
X97.76Y-162.69
X97.77Y-155.62
X109.87Y-153.11
X110.61Y-153.09
X118.22Y-152.85
X118.96Y-152.83
X119.18Y-139.39
X119.18Y-142.65
X121.05Y-142.65
X121.1Y-139.39
X122.77Y-145.53
X123.52Y-145.55
X126.91Y-134.4
X126.93Y-139.49
X127.77Y-136.92
X129.96Y-141.11
X130.7Y-141.11
X131.3Y-151.7
X131.75Y-136.89
X131.83Y-152.22
X136.39Y-153.11
X136.39Y-153.86
X142.71Y-141.18
X142.72Y-142.14
X145.83Y-162.8
X146.57Y-162.8
T2
X97.595Y-128.835
X97.595Y-129.685
X97.595Y-130.535
X97.595Y-131.385
X98.651Y-128.835
X98.651Y-129.685
X98.651Y-130.535
X98.651Y-131.385
X99.707Y-128.835
X99.707Y-129.685
X99.707Y-130.535
X99.707Y-131.385
X100.764Y-128.835
X100.764Y-129.685
X100.764Y-130.535
X100.764Y-131.385
X101.82Y-128.835
X101.82Y-129.685
X101.82Y-130.535
X101.82Y-131.385
X102.876Y-128.835
X102.876Y-129.685
X102.876Y-130.535
X102.876Y-131.385
X103.932Y-128.835
X103.932Y-129.685
X103.932Y-130.535
X103.932Y-131.385
X104.989Y-128.835
X104.989Y-129.685
X104.989Y-130.535
X104.989Y-131.385
X106.045Y-128.835
X106.045Y-129.685
X106.045Y-130.535
X106.045Y-131.385
T3
X59.09Y-124.25
X59.09Y-125.52
X59.09Y-126.79
T4
X84.69Y-126.48
X84.69Y-129.02
X87.23Y-126.48
X87.23Y-129.02
X89.77Y-126.48
X89.77Y-129.02
T5
X34.1Y-127.45
X37.6Y-127.45
X45.2Y-127.45
X48.7Y-127.45
T6
X49.734Y-146.5
X49.734Y-149.04
X49.734Y-151.58
X49.734Y-154.12
X53.925Y-147.77
X53.925Y-150.31
X53.925Y-152.85
T7
X53.15Y-124.87
X53.15Y-127.41
X53.15Y-129.95
X55.69Y-124.87
X55.69Y-127.41
X55.69Y-129.95
T8
X27.Y-159.2
X27.01Y-126.6
X29.55Y-126.6
X30.5Y-159.2
X66.33Y-147.92
X66.33Y-150.46
X114.08Y-126.65
X116.62Y-126.65
X119.16Y-126.65
X121.7Y-126.65
X125.52Y-126.65
X128.06Y-126.65
X130.6Y-126.65
X133.14Y-126.65
X136.95Y-126.65
X139.49Y-126.65
X142.03Y-126.65
X144.57Y-126.65
X148.4Y-126.65
X150.94Y-126.65
X153.48Y-126.65
X156.02Y-126.65
T9
X108.49Y-147.11
X108.49Y-162.35
T10
X118.99Y-159.7
X122.95Y-159.7
T11
X123.063Y-160.35
X127.025Y-160.35
X130.988Y-160.35
X134.95Y-160.35
T12
X29.Y-143.5
X154.01Y-140.81
T0
M30
